<?xml version="1.0" encoding="UTF-8" standalone="no"?>
<svg
   height="1600"
   viewBox="0 0 1500 1600"
   width="1500"
   version="1.1"
   id="svg2"
   sodipodi:docname="brush.uv_sculpt.relax.svg"
   inkscape:version="1.3.2 (091e20e, 2023-11-25, custom)"
   xml:space="preserve"
   xmlns:inkscape="http://www.inkscape.org/namespaces/inkscape"
   xmlns:sodipodi="http://sodipodi.sourceforge.net/DTD/sodipodi-0.dtd"
   xmlns="http://www.w3.org/2000/svg"
   xmlns:svg="http://www.w3.org/2000/svg"><defs
     id="defs2" /><sodipodi:namedview
     pagecolor="#303030"
     showgrid="true"
     id="namedview1"
     bordercolor="#000000"
     borderopacity="0.25"
     inkscape:showpageshadow="2"
     inkscape:pageopacity="0.0"
     inkscape:pagecheckerboard="0"
     inkscape:deskcolor="#d1d1d1"
     inkscape:zoom="0.28987248"
     inkscape:cx="615.78802"
     inkscape:cy="853.82372"
     inkscape:window-width="1920"
     inkscape:window-height="1009"
     inkscape:window-x="1912"
     inkscape:window-y="-8"
     inkscape:window-maximized="1"
     inkscape:current-layer="svg2"><inkscape:grid
       id="grid5"
       units="px"
       spacingx="50"
       spacingy="50"
       color="#4772b3"
       opacity="0.2"
       visible="true"
       originx="0"
       originy="0"
       empspacing="2" /></sodipodi:namedview><g
     id="g7"
     inkscape:label="brush.uv_sculpt.relax"
     transform="matrix(1.2932839,0,0,1.2897794,-225.13071,-220.76713)"><g
       id="g5"
       style="stroke:#e5e5e5;stroke-opacity:1"><path
         style="display:inline;opacity:1;fill:none;fill-opacity:1;fill-rule:evenodd;stroke:#e5e5e5;stroke-width:43;stroke-linecap:round;stroke-linejoin:round;stroke-dasharray:none;stroke-dashoffset:6.97083;stroke-opacity:1"
         d="m 943.53316,628.33306 c 63.97844,-37.47814 92.51764,0.75057 115.39354,26.61362 22.8759,25.86305 131.0408,149.50482 141.8088,173.71669 26.8282,104.81335 -43.3701,243.67353 32.8901,315.06623 L 924.99489,1311.7159 C 906.87445,1278.556 843.12519,1223.4961 616.84678,1043.263 556.98274,963.09743 494.55237,911.20712 430.1014,866.54094 c 14.9945,-37.94124 54.70148,-81.42243 162.30101,-17.60713 54.47794,31.55583 83.35768,97.76639 169.39581,93.55402 53.23358,-40.4292 93.14518,-99.95538 -6.11333,-228.54388 -72.56641,-96.44369 -29.87575,-189.58115 -4.88779,-260.13882 23.153,-61.99454 72.33263,-59.45155 109.14483,-33.02924 0.7226,51.64428 -1.93585,97.67 -1.22206,142.80886 14.69408,79.81994 79.8758,88.52953 125.67057,169.49046"
         id="path1"
         sodipodi:nodetypes="czcccccccccccc" /><path
         style="opacity:1;fill:none;fill-opacity:1;fill-rule:evenodd;stroke:#e5e5e5;stroke-width:40;stroke-linecap:round;stroke-linejoin:round;stroke-dasharray:none;stroke-dashoffset:6.97083;stroke-opacity:1"
         d="M 750.39115,717.38784 C 689.80552,850.51482 731.9925,873.81318 724.09443,938.32778"
         id="path2"
         sodipodi:nodetypes="cc" /></g><path
       style="opacity:1;fill:#e5e5e5;fill-opacity:1;fill-rule:evenodd;stroke:none;stroke-width:43;stroke-linecap:round;stroke-linejoin:round;stroke-dasharray:none;stroke-dashoffset:6.97083;stroke-opacity:1"
       d="m 250,1050 h 150 v -50 H 300 V 900 h -50 z"
       id="path3" /><path
       style="opacity:1;fill:#e5e5e5;fill-opacity:1;fill-rule:evenodd;stroke:none;stroke-width:43;stroke-linecap:round;stroke-linejoin:round;stroke-dasharray:none;stroke-dashoffset:6.97083;stroke-opacity:1"
       d="m 850,250 h 150 V 400 H 950 V 300 H 850 Z"
       id="path4" /></g></svg>
