<?xml version="1.0" encoding="UTF-8" standalone="no"?>
<svg
   height="1600"
   viewBox="0 0 1520 1600"
   width="1520"
   version="1.1"
   id="svg2"
   sodipodi:docname="brush.uv_sculpt.grab.svg"
   inkscape:version="1.3.2 (091e20e, 2023-11-25, custom)"
   xml:space="preserve"
   xmlns:inkscape="http://www.inkscape.org/namespaces/inkscape"
   xmlns:sodipodi="http://sodipodi.sourceforge.net/DTD/sodipodi-0.dtd"
   xmlns="http://www.w3.org/2000/svg"
   xmlns:svg="http://www.w3.org/2000/svg"><defs
     id="defs2" /><sodipodi:namedview
     pagecolor="#303030"
     showgrid="true"
     id="namedview1"
     bordercolor="#000000"
     borderopacity="0.25"
     inkscape:showpageshadow="2"
     inkscape:pageopacity="0.0"
     inkscape:pagecheckerboard="0"
     inkscape:deskcolor="#d1d1d1"
     inkscape:zoom="0.28500004"
     inkscape:cx="812.28059"
     inkscape:cy="1149.1227"
     inkscape:window-width="1920"
     inkscape:window-height="1009"
     inkscape:window-x="1912"
     inkscape:window-y="-8"
     inkscape:window-maximized="1"
     inkscape:current-layer="g1"><inkscape:grid
       id="grid5"
       units="px"
       spacingx="50"
       spacingy="50"
       color="#4772b3"
       opacity="0.2"
       visible="true"
       originx="0"
       originy="0"
       empspacing="2" /></sodipodi:namedview><g
     id="g1"
     inkscape:label="brush.uv_sculpt.grab"><path
       style="display:inline;fill:none;fill-rule:evenodd;stroke:#e5e5e5;stroke-width:71.7946;stroke-linecap:round;stroke-linejoin:round;stroke-dashoffset:6.97083"
       d="m 353.94007,504.93093 c 0,-48.4362 -198.31316,-84.35827 -210.83408,82.12657 -7.18313,95.5108 -9.34791,245.4347 4.91359,296.97638 139.97136,347.61032 342.36749,322.37572 342.59566,580.72362 h 734.11806 c -30.1622,-315.7837 163.2722,-360.9779 157.4925,-637.52673 -3.586,-112.41524 -5.7584,-218.8502 -20.4135,-342.33463 -16.4851,-140.2859 -232.032,-167.90434 -227.6357,-0.0604 0,-60.90666 -1.7023,-72.26684 -1.7023,-140.10079 0,-157.18811 -257.82089,-175.84601 -256.08944,-3.61718 -0.34931,-33.77745 0.47042,-42.26918 0.47042,-85.04326 0,-151.57846 -269.12241,-170.582979 -269.12241,24.53468 0,61.51936 -0.0374,19.96387 -0.0374,96.00277 0,-150.34176 -254.10681,-164.9524 -254.10681,29.61128 0,132.00467 -1.60783,155.26018 -1.60783,285.77323 0,17.3449 -3.28315,27.07545 -8.11723,39.05619"
       id="path1"
       sodipodi:nodetypes="csccccccscsscscc" /></g></svg>
