<?xml version="1.0" encoding="UTF-8" standalone="no"?>
<svg
   width="1500"
   height="1600"
   viewBox="0 0 1500 1600"
   version="1.1"
   xml:space="preserve"
   style="clip-rule:evenodd;fill-rule:evenodd;stroke-linejoin:round;stroke-miterlimit:2"
   id="svg1"
   sodipodi:docname="brush.particle.weight.svg"
   inkscape:version="1.3.2 (091e20e, 2023-11-25, custom)"
   xmlns:inkscape="http://www.inkscape.org/namespaces/inkscape"
   xmlns:sodipodi="http://sodipodi.sourceforge.net/DTD/sodipodi-0.dtd"
   xmlns="http://www.w3.org/2000/svg"
   xmlns:svg="http://www.w3.org/2000/svg"
   xmlns:serif="http://www.serif.com/"><defs
   id="defs1" /><sodipodi:namedview
   id="namedview1"
   pagecolor="#3f3f3f"
   bordercolor="#000000"
   borderopacity="0.25"
   inkscape:showpageshadow="2"
   inkscape:pageopacity="0.0"
   inkscape:pagecheckerboard="0"
   inkscape:deskcolor="#d1d1d1"
   showgrid="true"
   inkscape:zoom="0.508125"
   inkscape:cx="800.98401"
   inkscape:cy="800"
   inkscape:window-width="1920"
   inkscape:window-height="1009"
   inkscape:window-x="1912"
   inkscape:window-y="-8"
   inkscape:window-maximized="1"
   inkscape:current-layer="svg1"><inkscape:grid
     id="grid3"
     units="px"
     originx="0"
     originy="0"
     spacingx="50"
     spacingy="50"
     empcolor="#0099e5"
     empopacity="0.30196078"
     color="#0099e5"
     opacity="0.14901961"
     empspacing="2"
     dotted="false"
     gridanglex="30"
     gridanglez="30"
     visible="true" /></sodipodi:namedview>
    <g
   id="brush.particle.weight-svg"
   transform="matrix(1.7377341,0,0,1.737547,-723.26439,-604.62843)">
        
        
        <g
   id="Curve-3"
   serif:id="Curve 3"
   transform="translate(531)"
   style="fill:#45b86e;fill-opacity:1">
            <path
   id="Curve-Green2"
   serif:id="Curve-Green"
   d="m 579.553,743.935 c 5.071,-6.399 50.469,21.932 45.399,28.485 -48.06,62.119 -82.005,127.289 -93.468,197.321 -1.63,9.963 -54.955,3.451 -54.522,-6.306 2.961,-66.761 40.285,-140.87 102.591,-219.5 z"
   style="fill:#45b86e;fill-opacity:1" />
            
            
            
        <path
   id="Curve-Green"
   d="m 579.553,743.935 c 5.071,-6.399 50.469,21.932 45.399,28.485 -48.06,62.119 -82.005,127.289 -93.468,197.321 -1.63,9.963 -54.955,3.451 -54.522,-6.306 2.961,-66.761 40.285,-140.87 102.591,-219.5 z"
   style="clip-rule:evenodd;fill:#45b86e;fill-opacity:1;fill-rule:evenodd;stroke-linejoin:round;stroke-miterlimit:2"
   transform="translate(-531)" /><path
   id="Curve-Green1"
   serif:id="Curve-Green"
   d="m 579.553,743.935 c 5.071,-6.399 50.469,21.932 45.399,28.485 -48.06,62.119 -82.005,127.289 -93.468,197.321 -1.63,9.963 -54.955,3.451 -54.522,-6.306 2.961,-66.761 40.285,-140.87 102.591,-219.5 z"
   style="clip-rule:evenodd;fill:#45b86e;fill-opacity:1;fill-rule:evenodd;stroke-linejoin:round;stroke-miterlimit:2"
   transform="translate(-265)" /></g><g
   id="g2"
   style="clip-rule:evenodd;fill:#01a1e1;fill-opacity:1;fill-rule:evenodd;stroke-linejoin:round;stroke-miterlimit:2"
   transform="translate(531)"><path
     id="Curve-Blue1"
     serif:id="Curve-Blue"
     d="m 651.657,417.837 c 23.201,39.498 38.867,85.742 39.316,142.056 -21.221,1.483 -33.992,2.657 -56.007,4.079 1.942,-42.406 -11.457,-84.813 -32.268,-127.219 -5.106,-25.179 34.283,-43.563 48.959,-18.916 z"
     style="clip-rule:evenodd;fill:#01a1e1;fill-opacity:1;fill-rule:evenodd;stroke-linejoin:round;stroke-miterlimit:2"
     transform="translate(-265)" /><path
     id="Curve-Blue2"
     serif:id="Curve-Blue"
     d="m 651.657,417.837 c 23.201,39.498 38.867,85.742 39.316,142.056 -21.221,1.483 -33.992,2.657 -56.007,4.079 1.942,-42.406 -11.457,-84.813 -32.268,-127.219 -5.106,-25.179 34.283,-43.563 48.959,-18.916 z"
     style="fill:#01a1e1;fill-opacity:1" /><path
     id="Curve-Blue"
     d="m 651.657,417.837 c 23.201,39.498 38.867,85.742 39.316,142.056 -21.221,1.483 -33.992,2.657 -56.007,4.079 1.942,-42.406 -11.457,-84.813 -32.268,-127.219 -5.106,-25.179 34.283,-43.563 48.959,-18.916 z"
     style="clip-rule:evenodd;fill:#01a1e1;fill-opacity:1;fill-rule:evenodd;stroke-linejoin:round;stroke-miterlimit:2"
     transform="translate(-531)" /></g><g
   id="g3"
   style="clip-rule:evenodd;fill:#ffcb36;fill-opacity:1;fill-rule:evenodd;stroke-linejoin:round;stroke-miterlimit:2"
   transform="translate(531)"><path
     id="Curve-Yellow2"
     serif:id="Curve-Yellow"
     d="m 634.966,563.972 c 1.79,-3.818 52.672,-9.195 56.007,-4.079 1.356,74.819 -20.891,145.62 -66.021,212.527 -14.581,-8.886 -30.208,-18.334 -45.399,-28.485 38.047,-59.703 54.668,-119.956 55.413,-179.963 z"
     style="fill:#ffcb36;fill-opacity:1" /><path
     id="Curve-Yellow"
     d="m 634.966,563.972 c 1.79,-3.818 52.672,-9.195 56.007,-4.079 1.356,74.819 -20.891,145.62 -66.021,212.527 -14.581,-8.886 -30.208,-18.334 -45.399,-28.485 38.047,-59.703 54.668,-119.956 55.413,-179.963 z"
     style="clip-rule:evenodd;fill:#ffcb36;fill-opacity:1;fill-rule:evenodd;stroke-linejoin:round;stroke-miterlimit:2"
     transform="translate(-531)" /><path
     id="Curve-Yellow1"
     serif:id="Curve-Yellow"
     d="m 634.966,563.972 c 1.79,-3.818 52.672,-9.195 56.007,-4.079 1.356,74.819 -20.891,145.62 -66.021,212.527 -14.581,-8.886 -30.208,-18.334 -45.399,-28.485 38.047,-59.703 54.668,-119.956 55.413,-179.963 z"
     style="clip-rule:evenodd;fill:#ffcb36;fill-opacity:1;fill-rule:evenodd;stroke-linejoin:round;stroke-miterlimit:2"
     transform="translate(-265)" /></g><g
   id="g1"
   style="clip-rule:evenodd;fill:#e45151;fill-opacity:1;fill-rule:evenodd;stroke-linejoin:round;stroke-miterlimit:2"
   transform="translate(531)"><path
     id="Curve-Red2"
     serif:id="Curve-Red"
     d="m 476.962,963.435 c 19.468,2.341 36.884,4.241 54.522,6.306 -7.902,55.289 2.339,126.199 30.044,212.159 2.169,35 -35.428,38.56 -51.556,15.58 -33.27,-88.37 -42.271,-165.46 -33.01,-234.045 z"
     style="fill:#e45151;fill-opacity:1" /><path
     id="Curve-Red1"
     serif:id="Curve-Red"
     d="m 476.962,963.435 c 19.468,2.341 36.884,4.241 54.522,6.306 -7.902,55.289 2.339,126.199 30.044,212.159 2.169,35 -35.428,38.56 -51.556,15.58 -33.27,-88.37 -42.271,-165.46 -33.01,-234.045 z"
     style="clip-rule:evenodd;fill:#e45151;fill-opacity:1;fill-rule:evenodd;stroke-linejoin:round;stroke-miterlimit:2"
     transform="translate(-265)" /><path
     id="Curve-Red"
     d="m 476.962,963.435 c 19.468,2.341 36.884,4.241 54.522,6.306 -7.902,55.289 2.339,126.199 30.044,212.159 2.169,35 -35.428,38.56 -51.556,15.58 -33.27,-88.37 -42.271,-165.46 -33.01,-234.045 z"
     style="clip-rule:evenodd;fill:#e45151;fill-opacity:1;fill-rule:evenodd;stroke-linejoin:round;stroke-miterlimit:2"
     transform="translate(-531)" /></g>
    </g>
</svg>
