<?xml version="1.0" encoding="UTF-8" standalone="no"?>
<svg
   width="1520"
   height="1600"
   viewBox="0 0 1520 1600"
   version="1.1"
   xml:space="preserve"
   style="clip-rule:evenodd;fill-rule:evenodd;stroke-linejoin:round;stroke-miterlimit:2"
   id="svg1"
   sodipodi:docname="brush.particle.length.svg"
   inkscape:version="1.3.2 (091e20e, 2023-11-25, custom)"
   xmlns:inkscape="http://www.inkscape.org/namespaces/inkscape"
   xmlns:sodipodi="http://sodipodi.sourceforge.net/DTD/sodipodi-0.dtd"
   xmlns="http://www.w3.org/2000/svg"
   xmlns:svg="http://www.w3.org/2000/svg"><defs
   id="defs1" /><sodipodi:namedview
   id="namedview1"
   pagecolor="#3a3a3a"
   bordercolor="#000000"
   borderopacity="0.25"
   inkscape:showpageshadow="2"
   inkscape:pageopacity="0.0"
   inkscape:pagecheckerboard="0"
   inkscape:deskcolor="#d1d1d1"
   showgrid="true"
   inkscape:zoom="0.508125"
   inkscape:cx="800"
   inkscape:cy="800"
   inkscape:window-width="1920"
   inkscape:window-height="1009"
   inkscape:window-x="1912"
   inkscape:window-y="-8"
   inkscape:window-maximized="1"
   inkscape:current-layer="svg1"><inkscape:grid
     id="grid1"
     units="px"
     originx="0"
     originy="0"
     spacingx="50"
     spacingy="50"
     empcolor="#0099e5"
     empopacity="0.30196078"
     color="#0099e5"
     opacity="0.14901961"
     empspacing="2"
     dotted="false"
     gridanglex="30"
     gridanglez="30"
     visible="true" /></sodipodi:namedview>
    <g
   id="brush.particle.length-svg"
   transform="matrix(1.7600107,0,0,1.7600107,-682.19399,-576.12511)">
        <g
   id="g1"
   style="fill:#ffffff"><path
     id="Curves"
     d="m 522.344,750.597 53.318,16.227 c -56.713,84.533 -81.912,153 -75.572,205.388 4.305,70.098 15.013,129.718 32.918,177.568 0.828,25.18 -29.4,43.64 -50.072,18.08 -23.736,-36.45 -36.999,-108.97 -38.481,-222.075 0.937,-74.283 29.971,-138.215 77.889,-195.188 z m 516.996,0 53.32,16.227 c -56.71,84.533 -81.91,153 -75.57,205.388 4.3,70.098 15.01,129.718 32.92,177.568 0.83,25.18 -29.4,43.64 -50.074,18.08 -23.736,-36.45 -36.999,-108.97 -38.481,-222.075 0.937,-74.283 29.971,-138.215 77.885,-195.188 z M 861.56,580.784 h 59.808 c -19.355,64.548 -43.08,120.903 -72.326,166.906 -53.201,72.095 -77.542,118.766 -78.817,145.116 -11.677,54.148 -13.823,101.941 -6.955,143.724 7.659,40.54 18.615,67.48 28.746,100.61 -0.767,41.98 -34,52 -52.391,30.14 -21.736,-56.03 -34.826,-121.86 -38.017,-198.902 0.846,-49.083 14.144,-101.442 38.481,-156.707 17.454,-37.009 40.964,-71.326 69.544,-103.389 27.583,-46.352 44.126,-88.564 51.927,-127.498 z"
     style="fill:#ffffff" /></g>
        <g
   id="g2"
   style="fill:#75ffaf;fill-opacity:1"><path
     id="Arrows"
     d="m 603.319,564.062 71.214,174.77 -213.641,-43.322 z m 298.967,-178.896 104.824,156.935 -217.993,0.407 z m 219.654,179.321 71.2,174.774 -213.633,-43.334 z"
     style="fill:#75ffaf;fill-opacity:1" /></g>
    </g>
</svg>
