<?xml version="1.0" encoding="UTF-8" standalone="no"?>
<svg
   height="1600"
   viewBox="0 0 1140 1600"
   width="1140"
   version="1.1"
   id="svg2"
   sodipodi:docname="brush.gpencil_draw.erase.svg"
   inkscape:version="1.3.2 (091e20e, 2023-11-25, custom)"
   xml:space="preserve"
   xmlns:inkscape="http://www.inkscape.org/namespaces/inkscape"
   xmlns:sodipodi="http://sodipodi.sourceforge.net/DTD/sodipodi-0.dtd"
   xmlns="http://www.w3.org/2000/svg"
   xmlns:svg="http://www.w3.org/2000/svg"><defs
     id="defs2" /><sodipodi:namedview
     pagecolor="#303030"
     showgrid="true"
     id="namedview1"
     bordercolor="#000000"
     borderopacity="0.25"
     inkscape:showpageshadow="2"
     inkscape:pageopacity="0.0"
     inkscape:pagecheckerboard="0"
     inkscape:deskcolor="#d1d1d1"
     inkscape:zoom="0.54800882"
     inkscape:cx="376.81876"
     inkscape:cy="1126.8067"
     inkscape:window-width="1920"
     inkscape:window-height="1009"
     inkscape:window-x="1912"
     inkscape:window-y="-8"
     inkscape:window-maximized="1"
     inkscape:current-layer="svg2"><inkscape:grid
       id="grid5"
       units="px"
       spacingx="50"
       spacingy="50"
       color="#4772b3"
       opacity="0.2"
       visible="true"
       originx="0"
       originy="0"
       empspacing="2" /></sodipodi:namedview><g
     id="g521"
     transform="matrix(1.5731747,0,0,1.5731747,-638.92122,-455.37402)"><path
       style="fill:#f56b5b;stroke:none"
       d="m 847.18128,880.07512 c -23.54327,6.79456 -149.37398,157.74728 -178.66666,164.28498 -27.25428,6.0827 -95.04482,-38.9909 -130.66153,-73.13581 -18.32988,-18.0063 -35.90158,-45.55637 -43.86519,-35.57617 -7.71432,9.66779 -13.74332,24.27831 -17.47225,35.57617 -16.04801,48.62171 3.46456,103.99821 41.33232,136.94751 79.04736,68.7803 189.41531,85.508 287.99998,53.0268 109.60995,-36.1139 108.74938,-137.599 102.66666,-181.97432 -4.53947,-33.11645 -15.56266,-53.98556 -35.99894,-82.66666 -6.41957,-9.00948 -12.41186,-20.21191 -25.33439,-16.4825 z"
       id="path659"
       inkscape:label="object"
       sodipodi:nodetypes="ssssssssss" /><path
       style="fill:#e5e5e5;stroke:none"
       d="m 565.84796,745.89097 c -28.63731,28.30795 -59.32846,58.93614 -79.79735,83.99999 -12.22522,14.9696 16.23368,40.10237 27.24593,53.33333 28.59224,34.35303 58.21337,63.71419 92.55142,92.32926 13.76095,11.46745 33.73962,27.82275 53.33333,24.80655 30.93684,-20.03118 56.36029,-52.16278 82.66666,-78.46915 v -1.33333 C 683.67427,861.83327 624.94845,803.67811 565.84796,745.89097 Z"
       id="path636"
       inkscape:label="bottom"
       sodipodi:nodetypes="cssssccc" /><path
       style="fill:#e5e5e5;stroke:none"
       d="m 905.84794,416.28088 c -11.1101,0.20719 -19.45955,9.07251 -26.66666,16.27677 L 616.51463,695.2243 c -4.21782,4.21786 -15.72428,12.15552 -15.72428,18.66667 0,7.75187 15.92435,18.86678 21.05761,24 l 66.66666,66.66666 62.66667,62.66666 c 4.90832,4.90837 17.26879,24.86148 22.66666,19.72428 93.69891,-89.17392 185.15502,-182.21266 275.99995,-273.0576 6.8367,-6.83667 15.4294,-13.45825 19.0525,-22.66666 7.0108,-17.81828 -13.025,-38.95882 -22.608,-53.33333 -26.5954,-39.89298 -60.63961,-72.57454 -100.44446,-99.11108 -9.94425,-6.62948 -27.57568,-22.73071 -40,-22.49902 z"
       id="path524"
       inkscape:label="top"
       sodipodi:nodetypes="sccscccscssss" /></g></svg>
