<?xml version="1.0" encoding="UTF-8" standalone="no"?>
<svg
   height="1600"
   viewBox="0 0 1510 1600"
   width="1510"
   version="1.1"
   id="svg2"
   sodipodi:docname="brush.uv_sculpt.pinch.svg"
   inkscape:version="1.3.2 (091e20e, 2023-11-25, custom)"
   xml:space="preserve"
   xmlns:inkscape="http://www.inkscape.org/namespaces/inkscape"
   xmlns:sodipodi="http://sodipodi.sourceforge.net/DTD/sodipodi-0.dtd"
   xmlns="http://www.w3.org/2000/svg"
   xmlns:svg="http://www.w3.org/2000/svg"><defs
     id="defs2" /><sodipodi:namedview
     pagecolor="#303030"
     showgrid="true"
     id="namedview1"
     bordercolor="#000000"
     borderopacity="0.25"
     inkscape:showpageshadow="2"
     inkscape:pageopacity="0.0"
     inkscape:pagecheckerboard="0"
     inkscape:deskcolor="#d1d1d1"
     inkscape:zoom="0.40240351"
     inkscape:cx="662.27057"
     inkscape:cy="769.12848"
     inkscape:window-width="1920"
     inkscape:window-height="1009"
     inkscape:window-x="1912"
     inkscape:window-y="-8"
     inkscape:window-maximized="1"
     inkscape:current-layer="svg2"><inkscape:grid
       id="grid5"
       units="px"
       spacingx="50"
       spacingy="50"
       color="#4772b3"
       opacity="0.2"
       visible="true"
       originx="0"
       originy="0"
       empspacing="2" /></sodipodi:namedview><g
     id="g1"
     inkscape:label="brush.uv_sculpt.pinch"
     transform="matrix(1.3010564,0,0,1.3010564,-224.36817,-224.36817)"><g
       id="g5"
       style="display:inline;stroke:#e5e5e5;stroke-opacity:1"><path
         style="display:inline;opacity:1;fill:none;fill-opacity:1;fill-rule:evenodd;stroke:#e5e5e5;stroke-width:43;stroke-linecap:round;stroke-linejoin:round;stroke-dasharray:none;stroke-dashoffset:6.97083;stroke-opacity:1"
         d="m 953.54308,625.60308 c 63.97842,-47.48805 90.69762,0.75057 113.57352,26.61362 22.8759,25.86305 119.372,130.85649 129.0689,155.51685 20.4583,97.53341 -25.1702,262.76105 37.4401,325.05385 L 928.93479,1301.5847 C 867.13472,1199.2654 736.74128,1137.2523 626.2476,1029.6131 579.74115,961.6436 543.49151,903.38844 444.34573,829.28794 c 14.9945,-37.68925 66.28219,-82.81352 164.31078,-4.79816 49.07684,39.43451 69.83356,105.83056 155.87169,101.61819 C 824.13173,900 819.2535,802.51722 816.65438,758.53357 808.91227,592.86464 764.80475,606.3553 651.60793,592.69918 c -57.18899,-3.89717 -75.4958,-78.76155 5.45054,-106.76714 17.72445,-4.72246 81.87115,-4.61598 117.9997,-1.08796 68.91247,12.35906 187.55578,76.08135 210.43917,248.23113"
         id="path1"
         sodipodi:nodetypes="czcccccccccccc" /><path
         style="opacity:1;fill:none;fill-opacity:1;fill-rule:evenodd;stroke:#e5e5e5;stroke-width:40;stroke-linecap:round;stroke-linejoin:round;stroke-dasharray:none;stroke-dashoffset:6.97083;stroke-opacity:1"
         d="M 804.0807,665.51827 C 678.88561,734.94579 729.52381,833.60214 725.26571,921.92992"
         id="path2"
         sodipodi:nodetypes="cc" /></g><path
       style="opacity:1;fill:#e5e5e5;fill-opacity:1;fill-rule:evenodd;stroke:none;stroke-width:43;stroke-linecap:round;stroke-linejoin:round;stroke-dasharray:none;stroke-dashoffset:6.97083;stroke-opacity:1"
       d="M 400,900 H 250 v 50 h 100 v 100 h 50 z"
       id="path3" /><path
       style="display:inline;opacity:1;fill:#e5e5e5;fill-opacity:1;fill-rule:evenodd;stroke:none;stroke-width:43;stroke-linecap:round;stroke-linejoin:round;stroke-dasharray:none;stroke-dashoffset:6.97083;stroke-opacity:1"
       d="M 900,400 H 750 V 250 h 50 v 100 h 100 z"
       id="path4" /></g></svg>
