<?xml version="1.0" encoding="UTF-8" standalone="no"?>
<svg
   width="1500"
   height="1600"
   viewBox="0 0 1500 1600"
   version="1.1"
   xml:space="preserve"
   style="clip-rule:evenodd;fill-rule:evenodd;stroke-linejoin:round;stroke-miterlimit:2"
   id="svg1"
   sodipodi:docname="brush.particle.cut.svg"
   inkscape:version="1.3.2 (091e20e, 2023-11-25, custom)"
   xmlns:inkscape="http://www.inkscape.org/namespaces/inkscape"
   xmlns:sodipodi="http://sodipodi.sourceforge.net/DTD/sodipodi-0.dtd"
   xmlns="http://www.w3.org/2000/svg"
   xmlns:svg="http://www.w3.org/2000/svg"
   xmlns:serif="http://www.serif.com/"><defs
   id="defs1" /><sodipodi:namedview
   id="namedview1"
   pagecolor="#4c4c4c"
   bordercolor="#000000"
   borderopacity="0.25"
   inkscape:showpageshadow="2"
   inkscape:pageopacity="0.0"
   inkscape:pagecheckerboard="0"
   inkscape:deskcolor="#d1d1d1"
   showgrid="true"
   inkscape:zoom="0.508125"
   inkscape:cx="800.98401"
   inkscape:cy="811.80812"
   inkscape:window-width="1920"
   inkscape:window-height="1009"
   inkscape:window-x="1912"
   inkscape:window-y="-8"
   inkscape:window-maximized="1"
   inkscape:current-layer="svg1"><inkscape:grid
     id="grid1"
     units="px"
     originx="0"
     originy="0"
     spacingx="50"
     spacingy="50"
     empcolor="#0099e5"
     empopacity="0.30196078"
     color="#0099e5"
     opacity="0.14901961"
     empspacing="2"
     dotted="false"
     gridanglex="30"
     gridanglez="30"
     visible="true" /></sodipodi:namedview>
    <g
   id="brush.particle.cut-svg"
   transform="matrix(1.7429121,0,0,1.735018,-667.01147,-617.80345)">
        
        <g
   id="g2"
   style="fill:#f56b5b;fill-opacity:1"><path
     id="Curve-Line1"
     serif:id="Curve Line"
     d="m 581.625,913.918 82.062,-42.654 c 46.83,-59.232 84.996,-125.6 110.808,-202.142 23.577,-89.71 14.285,-169.305 -26.427,-239.233 -20.262,-24.796 -48.766,-17.476 -51.927,10.663 25.181,65.728 38.324,125.895 30.136,174.325 -7.372,64.193 -40.213,123.116 -83.453,179.888 -31.78,45.073 -50.439,83.972 -61.199,119.153 z"
     style="fill:#f56b5b;fill-opacity:1" /></g>
        <g
   id="g1"
   style="fill:#ffffff"><path
     id="Curve-Line"
     serif:id="Curve Line"
     d="m 575.519,1084.45 49.85,-22.31 c 8.886,47.02 19.124,90.66 31.809,128.18 0.732,25.99 -28.823,41.98 -47.476,20.18 -15.431,-23.38 -26.98,-64.68 -34.183,-126.05 z"
     style="fill:#ffffff" /><path
     id="Scissors"
     d="m 1081.52,867.367 c 29.87,0 54.13,24.255 54.13,54.129 0,29.874 -24.26,54.129 -54.13,54.129 -29.88,0 -54.13,-24.255 -54.13,-54.129 0,-29.874 24.25,-54.129 54.13,-54.129 z m 0,-266 c 29.87,0 54.13,24.255 54.13,54.129 0,29.874 -24.26,54.129 -54.13,54.129 -29.88,0 -54.13,-24.255 -54.13,-54.129 0,-29.874 24.25,-54.129 54.13,-54.129 z M 1068.3,789.59 c 14.8,9.073 31.53,17.664 51.4,25.47 40.84,15.892 67.75,61.635 67.75,105.463 0,58.662 -47.63,106.287 -106.29,106.287 -58.66,0 -106.288,-47.625 -106.288,-106.287 0,-24.834 8.695,-48.883 24.578,-67.974 L 976.07,838.36 553.24,1061.83 c -51.043,13.83 -88.356,4.56 -112.199,-27.35 L 887.517,788.752 790.154,734.044 c 8.58,-19.206 15.53,-46.012 20.4,-82.526 l 165.052,88.089 22.752,-11.56 m 0,0 c -28.34,-33.433 -33.252,-80.833 -12.371,-119.367 27.953,-51.575 92.513,-70.757 144.093,-42.809 51.57,27.949 70.75,92.512 42.8,144.088 -11.83,21.834 -30.93,43.821 -53.99,53.039 -16.21,5.929 -33.11,14.966 -50.59,26.592 M 673.957,668.732 c 10.003,-15.312 17.197,-43.539 22.254,-81.599 l -145.394,-77.89 c -45.74,-12.345 -82.345,-2.12 -111.271,27.076 z"
     style="fill:#ffffff" /></g>
    </g>
</svg>
