<?xml version="1.0" encoding="UTF-8" standalone="no"?>
<svg
   width="100%"
   height="100%"
   viewBox="0 0 1600 1600"
   version="1.1"
   xml:space="preserve"
   style="fill-rule:evenodd;clip-rule:evenodd;stroke-linejoin:round;stroke-miterlimit:2;"
   id="svg1"
   sodipodi:docname="brush.particle.add.svg"
   inkscape:version="1.3.2 (091e20e, 2023-11-25, custom)"
   xmlns:inkscape="http://www.inkscape.org/namespaces/inkscape"
   xmlns:sodipodi="http://sodipodi.sourceforge.net/DTD/sodipodi-0.dtd"
   xmlns="http://www.w3.org/2000/svg"
   xmlns:svg="http://www.w3.org/2000/svg"
   xmlns:serif="http://www.serif.com/"><defs
   id="defs1" /><sodipodi:namedview
   id="namedview1"
   pagecolor="#303030"
   bordercolor="#000000"
   borderopacity="0.25"
   inkscape:showpageshadow="2"
   inkscape:pageopacity="0.0"
   inkscape:pagecheckerboard="0"
   inkscape:deskcolor="#d1d1d1"
   showgrid="true"
   inkscape:zoom="0.2540625"
   inkscape:cx="1434.6863"
   inkscape:cy="1355.9656"
   inkscape:window-width="1920"
   inkscape:window-height="1009"
   inkscape:window-x="1912"
   inkscape:window-y="-8"
   inkscape:window-maximized="1"
   inkscape:current-layer="svg1"><inkscape:grid
     id="grid1"
     units="px"
     originx="0"
     originy="0"
     spacingx="50"
     spacingy="50"
     empcolor="#0099e5"
     empopacity="0.30196078"
     color="#0099e5"
     opacity="0.14901961"
     empspacing="2"
     dotted="false"
     gridanglex="30"
     gridanglez="30"
     visible="true" /></sodipodi:namedview>
    <g
   id="brush.particle.add-svg"
   style="fill:#75ffaf;fill-opacity:1"
   transform="matrix(1.6973363,0,0,1.7431764,-703.98079,-609.37054)">
        <path
   id="Cross"
   d="M 975.182,980.351 H 1095.34 V 860.193 h 82.4 v 120.158 h 120.46 v 81.799 h -120.76 v 119.56 h -82.1 V 1062.15 H 975.481 Z"
   style="fill:#75ffaf;fill-opacity:1" />
        <path
   id="Curve-Line"
   serif:id="Curve Line"
   d="m 819.82,1175.79 c -22.723,-62.12 -31.509,-132.95 -29.262,-210.684 2.1,-40.313 37.892,-109.265 102.418,-202.641 32.612,-44.714 54.638,-104.375 60.719,-186.546 -2.319,-52.873 -15.336,-106.509 -39.504,-160.942 -8.574,-7.652 -23.796,-10.482 -32.453,-5.971 -8.657,4.511 -22.693,17.195 -19.487,33.038 32.929,77.497 43.347,141.629 26.336,189.473 -20.13,71.405 -51.759,127.773 -92.176,172.647 -50.036,64.437 -69.159,137.229 -61.451,217.276 4.44,63.81 13.8,120.24 30.725,165.33 10.248,17.76 17.93,25.88 35.115,22.68 16.722,-3.12 22.191,-11.99 19.02,-33.66 z"
   style="fill:#75ffaf;fill-opacity:1" /><path
   d="m 819.82,1175.79 c -22.723,-62.12 -31.509,-132.95 -29.262,-210.684 2.1,-40.313 37.892,-109.265 102.418,-202.641 32.612,-44.714 54.638,-104.375 60.719,-186.546 -2.319,-52.873 -15.336,-106.509 -39.504,-160.942 -8.574,-7.652 -23.796,-10.482 -32.453,-5.971 -8.657,4.511 -22.693,17.195 -19.487,33.038 32.929,77.497 43.347,141.629 26.336,189.473 -20.13,71.405 -51.759,127.773 -92.176,172.647 -50.036,64.437 -69.159,137.229 -61.451,217.276 4.44,63.81 13.8,120.24 30.725,165.33 10.248,17.76 17.93,25.88 35.115,22.68 16.722,-3.12 22.191,-11.99 19.02,-33.66 z"
   style="clip-rule:evenodd;fill:#75ffaf;fill-opacity:1;fill-rule:evenodd;stroke-linejoin:round;stroke-miterlimit:2"
   id="path1"
   transform="translate(-260)" />
        
    </g>
</svg>
