<?xml version="1.0" encoding="UTF-8" standalone="no"?>
<svg
   width="1600"
   height="1500"
   viewBox="0 0 1600 1500"
   version="1.1"
   xml:space="preserve"
   style="clip-rule:evenodd;fill-rule:evenodd;stroke-linejoin:round;stroke-miterlimit:2"
   id="svg1"
   sodipodi:docname="brush.particle.smooth.svg"
   inkscape:version="1.3.2 (091e20e, 2023-11-25, custom)"
   xmlns:inkscape="http://www.inkscape.org/namespaces/inkscape"
   xmlns:sodipodi="http://sodipodi.sourceforge.net/DTD/sodipodi-0.dtd"
   xmlns="http://www.w3.org/2000/svg"
   xmlns:svg="http://www.w3.org/2000/svg"><defs
   id="defs1" /><sodipodi:namedview
   id="namedview1"
   pagecolor="#474747"
   bordercolor="#000000"
   borderopacity="0.25"
   inkscape:showpageshadow="2"
   inkscape:pageopacity="0.0"
   inkscape:pagecheckerboard="0"
   inkscape:deskcolor="#d1d1d1"
   showgrid="true"
   inkscape:zoom="0.508125"
   inkscape:cx="800.98401"
   inkscape:cy="1142.4354"
   inkscape:window-width="1920"
   inkscape:window-height="1009"
   inkscape:window-x="1912"
   inkscape:window-y="-8"
   inkscape:window-maximized="1"
   inkscape:current-layer="svg1"><inkscape:grid
     id="grid1"
     units="px"
     originx="0"
     originy="0"
     spacingx="50"
     spacingy="50"
     empcolor="#0099e5"
     empopacity="0.30196078"
     color="#0099e5"
     opacity="0.14901961"
     empspacing="2"
     dotted="false"
     gridanglex="30"
     gridanglez="30"
     visible="true" /></sodipodi:namedview>
    <g
   id="brush.particle.smooth-svg"
   style="fill:#d9aff5;fill-opacity:1"
   transform="matrix(1.4050213,0,0,1.4309922,-377.68095,-378.78836)">
        <path
   d="m 270.017,503.805 h 103.482 v 163.939 h 54.894 V 504.176 H 537.438 L 401.317,307.226 Z"
   style="clip-rule:evenodd;fill:#d9aff5;fill-opacity:1;fill-rule:evenodd;stroke-linejoin:round;stroke-miterlimit:2"
   id="path1"
   transform="rotate(24.832053,407.1697,639.51879)" />
        <path
   id="Curves"
   d="M 822.147,524.562 467.482,1229.49 c -20.68,29.88 -61.374,12.76 -50.435,-22.7 L 769.921,502.072 c 14.922,-26.099 63.372,-3.932 52.226,22.49 z m 261.003,0 -354.668,704.928 c -20.68,29.88 -61.374,12.76 -50.435,-22.7 L 1030.92,502.072 c 14.92,-26.099 63.37,-3.932 52.23,22.49 z m 251,0 -354.668,704.928 c -20.68,29.88 -61.374,12.76 -50.435,-22.7 L 1281.92,502.072 c 14.92,-26.099 63.37,-3.932 52.23,22.49 z"
   style="fill:#d9aff5;fill-opacity:1" />
    </g>
</svg>
