<?xml version="1.0" encoding="UTF-8" standalone="no"?>
<svg
   width="1600"
   height="1400"
   viewBox="0 0 1600 1400"
   version="1.1"
   xml:space="preserve"
   style="clip-rule:evenodd;fill-rule:evenodd;stroke-linejoin:round;stroke-miterlimit:2"
   id="svg3"
   sodipodi:docname="brush.particle.comb.svg"
   inkscape:version="1.3.2 (091e20e, 2023-11-25, custom)"
   xmlns:inkscape="http://www.inkscape.org/namespaces/inkscape"
   xmlns:sodipodi="http://sodipodi.sourceforge.net/DTD/sodipodi-0.dtd"
   xmlns="http://www.w3.org/2000/svg"
   xmlns:svg="http://www.w3.org/2000/svg"
   xmlns:serif="http://www.serif.com/"><defs
   id="defs3" /><sodipodi:namedview
   id="namedview3"
   pagecolor="#3a3a3a"
   bordercolor="#000000"
   borderopacity="0.25"
   inkscape:showpageshadow="2"
   inkscape:pageopacity="0.0"
   inkscape:pagecheckerboard="0"
   inkscape:deskcolor="#d1d1d1"
   showgrid="true"
   inkscape:zoom="0.508125"
   inkscape:cx="800"
   inkscape:cy="957.44157"
   inkscape:window-width="1920"
   inkscape:window-height="1009"
   inkscape:window-x="1912"
   inkscape:window-y="-8"
   inkscape:window-maximized="1"
   inkscape:current-layer="svg3"><inkscape:grid
     id="grid3"
     units="px"
     originx="0"
     originy="0"
     spacingx="50"
     spacingy="50"
     empcolor="#0099e5"
     empopacity="0.30196078"
     color="#0099e5"
     opacity="0.14901961"
     empspacing="2"
     dotted="false"
     gridanglex="30"
     gridanglez="30"
     visible="true" /></sodipodi:namedview>
    <g
   id="brush.particle.comb-svg"
   transform="matrix(1.3852574,0,0,1.3852574,-311.21372,-378.88999)">
        
        
        <g
   id="Curve-Line2"
   serif:id="Curve Line"
   transform="matrix(0.720522,0,0,0.936857,486.543,76.4107)"
   style="fill:#d9aff5;fill-opacity:1">
            <path
   d="M 849.403,1172.93 C 811.47,1099.89 772.089,1006.59 798.35,949.867 829.899,881.72 860.19,873.276 936.692,825.88 c 65.098,-40.332 108.138,-83.808 138.048,-114.05 20.94,-21.186 48.34,-61.487 61.79,-91.715 7.65,-9.326 5.1,-32.908 -10.96,-43.045 -11.07,-6.985 -32.74,-5.85 -53.53,12.575 -13.73,37.626 -53.31,84.012 -97.988,123.248 -32.112,28.2 -68.003,55.588 -129.501,90.683 -108.426,61.874 -123.261,114.255 -129.415,157.725 -9.592,67.739 24.034,177.429 58.839,225.259 10.248,17.76 28.842,25.68 46.027,22.48 16.722,-3.12 32.571,-14.44 29.401,-36.11 z"
   style="fill:#d9aff5;fill-opacity:1"
   id="path3" /><path
   d="M 849.403,1172.93 C 815.6,1100.69 804.381,1007.46 826.108,949.867 852.613,879.604 942.639,830.487 1027.37,802.142 1101.6,777.309 1197,743.421 1265.38,694.963 c 46.05,-32.637 83.27,-60.238 100.78,-109.831 1.31,-11.417 9.16,-32.577 -9.92,-43.045 -8.5,-4.666 -37.59,-6.226 -48.69,5.529 -34.91,74.397 -95.5,112.4 -163.74,144.037 -80.63,37.383 -187.576,76.804 -253.766,105.051 -72.23,30.825 -124.554,96.476 -147.151,164.597 -21.339,64.329 4.046,177.429 31.082,225.259 10.248,17.76 28.842,25.68 46.027,22.48 16.722,-3.12 32.571,-14.44 29.401,-36.11 z"
   style="clip-rule:evenodd;fill:#d9aff5;fill-opacity:1;fill-rule:evenodd;stroke-linejoin:round;stroke-miterlimit:2"
   id="path2"
   transform="translate(-360.8495)" /><path
   d="m 819.82,1175.79 c -26.194,-59.28 -38.591,-150.25 -5.799,-220.926 30.63,-66.015 128.988,-116.928 210.749,-156.72 69.49,-33.819 163.25,-63.622 231.25,-111.577 42.21,-29.766 77.53,-55.898 108.06,-107.032 5.67,-9.482 4.21,-30.355 -7.84,-37.448 -8.41,-4.952 -25.63,-7.425 -36.73,4.329 -34.92,71.144 -103.91,102.863 -173.36,137.042 -72.96,35.903 -176.883,77.603 -247.268,119.243 -58.038,34.336 -122.24,90.908 -148.711,160.599 -24.456,64.39 -3.783,178.38 15.514,223.47 10.248,17.76 17.93,25.88 35.115,22.68 16.722,-3.12 22.191,-11.99 19.02,-33.66 z"
   style="clip-rule:evenodd;fill:#d9aff5;fill-opacity:1;fill-rule:evenodd;stroke-linejoin:round;stroke-miterlimit:2"
   id="path1"
   transform="matrix(1.3878827,0,0,1.0673988,-1016.6837,-81.560686)" />
        </g>
        <g
   id="g3"
   style="fill:#ffffff"><path
     id="Comb"
     d="m 305.736,587.263 c -7.437,4.994 -10.416,13.11 -7.865,25.095 l 64.423,155.067 c 23.642,19.083 40.033,14.002 48.692,-16.855 L 370.16,628.839 c 6.66,-16.978 21.307,-21.976 41.95,-17.979 l 58.805,111.618 c 29.571,20.99 44.592,9.849 50.191,-22.099 L 476.534,587.263 c 7.312,-18.173 23.276,-25.15 47.568,-21.35 l 50.191,106.749 c 26.258,20.554 43.533,16.402 49.816,-17.979 L 584.031,538.196 c 5.224,-16.629 18.998,-23.199 41.201,-19.851 l 57.682,108.246 c 26.6,22.137 44.316,18.066 50.94,-18.727 L 688.907,491.002 c 8.45,-17.035 24.511,-23.416 47.943,-19.477 l 51.314,107.498 c 24.081,18.983 41.342,16.226 49.442,-15.731 L 797.528,443.808 c 5.93,-15.995 18.791,-23.209 39.703,-20.226 l 59.554,110.869 c 25.936,22.418 43.482,18.408 49.442,-22.099 L 876.185,355.413 c -5.486,-8.555 -14.116,-12.171 -26.594,-9.738 z"
     style="fill:#ffffff" /></g>
    </g>
</svg>
