<?xml version="1.0" encoding="UTF-8"?>
<svg version="1.1" xmlns="http://www.w3.org/2000/svg" width="53" height="50">
<path d="M0 0 C17.49 0 34.98 0 53 0 C53 16.5 53 33 53 50 C35.51 50 18.02 50 0 50 C0 33.5 0 17 0 0 Z " fill="#464646" transform="translate(0,0)"/>
<path d="M0 0 C-1.29299694 2.88437779 -2.65941363 4.87219421 -5 7 C-2.61435923 6.42415568 -0.33317216 5.77772405 2 5 C3.89470816 4.9314505 5.7916834 4.91519628 7.6875 4.9375 C8.68136719 4.94652344 9.67523437 4.95554687 10.69921875 4.96484375 C11.83810547 4.98224609 11.83810547 4.98224609 13 5 C13 5.66 13 6.32 13 7 C13.598125 7.103125 14.19625 7.20625 14.8125 7.3125 C17.41358588 8.12998413 18.33126997 8.85315069 20 11 C20.90145805 16.17323226 20.62605831 20.72469604 18.3125 25.4375 C12.55472772 31.81773415 12.55472772 31.81773415 7.66796875 32.390625 C6.51941406 32.34421875 5.37085937 32.2978125 4.1875 32.25 C3.02605469 32.21390625 1.86460938 32.1778125 0.66796875 32.140625 C-0.21246094 32.09421875 -1.09289063 32.0478125 -2 32 C-2.375 28.8125 -2.375 28.8125 -2 25 C-0.20080649 22.91444836 1.73106786 21.62066581 4 20 C4.33 19.34 4.66 18.68 5 18 C4.113125 18.33 3.22625 18.66 2.3125 19 C-3.25829642 20.60475617 -9.26362305 20.54555753 -15 20 C-17.41912056 17.58087944 -17.43021684 16.65969476 -17.625 13.3125 C-17.58624497 9.96987891 -17.37012224 8.4693823 -15.28125 5.8203125 C-9.99919418 1.2080826 -7.08541242 -0.13121134 0 0 Z " fill="#BCBCBB" transform="translate(21,6)"/>
<path d="M0 0 C0.763125 0.495 1.52625 0.99 2.3125 1.5 C2.3125 4.47 2.3125 7.44 2.3125 10.5 C1.3225 10.995 1.3225 10.995 0.3125 11.5 C0.003125 12.304375 -0.30625 13.10875 -0.625 13.9375 C-1.6875 16.5 -1.6875 16.5 -4.6875 18.5 C-7.875 18.125 -7.875 18.125 -10.6875 17.5 C-9.58355517 15.20719151 -8.45353483 13.16205032 -7 11.0625 C-5.41085774 7.95988892 -5.86997188 6.78657276 -6.6875 3.5 C-7.37714844 3.644375 -8.06679688 3.78875 -8.77734375 3.9375 C-14.8755192 5.14207787 -20.47513445 5.70368412 -26.6875 5.5 C-27.0175 4.18 -27.3475 2.86 -27.6875 1.5 C-27.00042969 1.36722656 -26.31335937 1.23445313 -25.60546875 1.09765625 C-24.25388672 0.83275391 -24.25388672 0.83275391 -22.875 0.5625 C-21.53501953 0.30146484 -21.53501953 0.30146484 -20.16796875 0.03515625 C-6.93309448 -2.82024182 -6.93309448 -2.82024182 0 0 Z " fill="#D5D7D7" transform="translate(35.6875,15.5)"/>
<path d="M0 0 C0.66 0.33 1.32 0.66 2 1 C1.505 1.37125 1.01 1.7425 0.5 2.125 C-1.63328708 4.79160885 -1.35330461 6.67893663 -1 10 C0.75509765 12.1665597 0.75509765 12.1665597 2.87939453 12.22705078 C3.99483643 12.21134033 3.99483643 12.21134033 5.1328125 12.1953125 C5.93847656 12.18886719 6.74414062 12.18242187 7.57421875 12.17578125 C8.41597656 12.15902344 9.25773437 12.14226563 10.125 12.125 C10.97449219 12.11597656 11.82398438 12.10695313 12.69921875 12.09765625 C14.79959884 12.07405647 16.89983444 12.03818483 19 12 C19.15234375 14.3671875 19.15234375 14.3671875 19 17 C16.5625 19.125 16.5625 19.125 14 21 C13.67 21.99 13.34 22.98 13 24 C17.76569514 24.99420398 21.57169078 25.68356392 25.9375 23.1875 C28.94006287 21.16953646 28.94006287 21.16953646 31 19 C30.77189306 22.07944368 29.733093 23.32621967 27.75 25.75 C23.03538273 29.547241 16.69500202 28.38023011 11 28 C10.625 24.8125 10.625 24.8125 11 21 C12.79919351 18.91444836 14.73106786 17.62066581 17 16 C17.33 15.34 17.66 14.68 18 14 C17.113125 14.33 16.22625 14.66 15.3125 15 C9.74170358 16.60475617 3.73637695 16.54555753 -2 16 C-4.49040942 13.50959058 -4.32391014 12.56845643 -4.375 9.125 C-4.32201165 5.45820608 -4.28105993 4.36889116 -2 1.375 C-1.34 0.92125 -0.68 0.4675 0 0 Z " fill="#7D7D7D" transform="translate(8,10)"/>
<path d="M0 0 C0.66 0.33 1.32 0.66 2 1 C2.3743038 5.67879749 2.44402217 9.07780011 0.375 13.375 C-2.32077359 16.35453923 -4.18596219 17.72865406 -8 19 C-11.35669205 18.77622053 -13.98565383 18.50717308 -17 17 C-16.75 15.1875 -16.75 15.1875 -16 13 C-15.34 12.525625 -14.68 12.05125 -14 11.5625 C-11.74724544 10.12113694 -11.74724544 10.12113694 -11.25 7.3125 C-11.1675 6.549375 -11.085 5.78625 -11 5 C-12.03060547 5.23976563 -12.03060547 5.23976563 -13.08203125 5.484375 C-16.32256304 6.05699909 -19.39755202 6.20498361 -22.6875 6.25 C-23.82574219 6.27578125 -24.96398437 6.3015625 -26.13671875 6.328125 C-27.08160156 6.21984375 -28.02648437 6.1115625 -29 6 C-29.66 5.01 -30.32 4.02 -31 3 C-29.86111328 3.01740234 -29.86111328 3.01740234 -28.69921875 3.03515625 C-27.70535156 3.04417969 -26.71148437 3.05320312 -25.6875 3.0625 C-24.70136719 3.07410156 -23.71523438 3.08570313 -22.69921875 3.09765625 C-19.90036151 3.12329862 -19.90036151 3.12329862 -17 2 C-15.60560336 1.93334624 -14.20830125 1.91461801 -12.8125 1.9375 C-10.9253125 1.9684375 -10.9253125 1.9684375 -9 2 C-7.625 4.5 -7.625 4.5 -7 8 C-8.64541326 10.98097598 -10.72956696 13.47302085 -13 16 C-9.65747276 16.07427838 -7.1964086 16.06546953 -4 15 C-2.77479736 11.99152582 -2.77479736 11.99152582 -2 9 C-1.34 9 -0.68 9 0 9 C0 6.03 0 3.06 0 0 Z " fill="#BBBCBC" transform="translate(38,17)"/>
<path d="M0 0 C0.99386719 0.00902344 1.98773438 0.01804687 3.01171875 0.02734375 C4.15060547 0.04474609 4.15060547 0.04474609 5.3125 0.0625 C5.3125 0.7225 5.3125 1.3825 5.3125 2.0625 C5.910625 2.165625 6.50875 2.26875 7.125 2.375 C9.73823762 3.19630325 10.65922947 3.88318885 12.3125 6.0625 C12.60546875 8.76171875 12.60546875 8.76171875 12.5 11.75 C12.47292969 12.74386719 12.44585937 13.73773438 12.41796875 14.76171875 C12.38316406 15.52097656 12.34835938 16.28023437 12.3125 17.0625 C11.6525 17.3925 10.9925 17.7225 10.3125 18.0625 C10.3125 14.4325 10.3125 10.8025 10.3125 7.0625 C3.85458424 3.60826599 -2.45090555 3.37808081 -9.6875 3.0625 C-7.75082354 -0.81085293 -3.83275078 -0.04509119 0 0 Z " fill="#9C9C9C" transform="translate(28.6875,10.9375)"/>
<path d="M0 0 C9.9 0 19.8 0 30 0 C30 0.66 30 1.32 30 2 C28.7934375 1.96519531 27.586875 1.93039063 26.34375 1.89453125 C24.72918072 1.86637016 23.11459621 1.83907251 21.5 1.8125 C20.31277344 1.77479492 20.31277344 1.77479492 19.1015625 1.73632812 C11.9006049 1.64779176 6.35261994 3.55899753 0 7 C0 4.69 0 2.38 0 0 Z " fill="#333232" transform="translate(0,0)"/>
<path d="M0 0 C0.66 0.33 1.32 0.66 2 1 C-0.2972973 7.40825036 -0.2972973 7.40825036 -3.375 10 C-6.41196803 11.1569402 -7.93855664 10.96216791 -11 10 C-7.54563567 6.40746109 -3.80635497 3.20760251 0 0 Z " fill="#353535" transform="translate(39,33)"/>
<path d="M0 0 C0.33 0.66 0.66 1.32 1 2 C-0.95834545 6.26228127 -3.79266256 9.84604438 -8 12 C-11.66676452 12.69193766 -15.27306954 12.92705296 -19 13 C-19.66 12.01 -20.32 11.02 -21 10 C-20.13117187 9.98582031 -19.26234375 9.97164062 -18.3671875 9.95703125 C-10.84926391 9.88585693 -10.84926391 9.88585693 -4.3125 6.6875 C-2.40363215 4.46908601 -1.01027041 2.72773012 0 0 Z " fill="#5D5D5D" transform="translate(40,28)"/>
<path d="M0 0 C0.33 0.99 0.66 1.98 1 3 C-0.64122707 5.52496473 -1.39614655 6.58107412 -4 8 C-8.69340356 8.45179989 -13.2988206 8.28626938 -18 8 C-18 6.35 -18 4.7 -18 3 C-17.67 3.66 -17.34 4.32 -17 5 C-13.2948535 6.12903606 -9.56228573 6.56207697 -5.8828125 5.23828125 C-3.31057681 3.80273893 -1.34192368 2.68384736 0 0 Z " fill="#939393" transform="translate(38,29)"/>
<path d="M0 0 C-1.29299694 2.88437779 -2.65941363 4.87219421 -5 7 C-4.67 7.66 -4.34 8.32 -4 9 C-5.32 9 -6.64 9 -8 9 C-7.42415568 6.61435923 -6.77772405 4.33317216 -6 2 C-7.32 2.33 -8.64 2.66 -10 3 C-7.29536552 -0.8183075 -4.37912428 -0.24787496 0 0 Z " fill="#8D8D8D" transform="translate(21,6)"/>
<path d="M0 0 C0.33 0 0.66 0 1 0 C1.309375 0.969375 1.61875 1.93875 1.9375 2.9375 C2.69523342 5.84065792 2.69523342 5.84065792 4 7 C6.01594582 7.23427778 8.038474 7.41336124 10.0625 7.5625 C11.71958984 7.68818359 11.71958984 7.68818359 13.41015625 7.81640625 C14.26480469 7.87699219 15.11945312 7.93757813 16 8 C16 8.33 16 8.66 16 9 C11.32798795 10.20568053 6.78503708 10.09382426 2 10 C2 9.34 2 8.68 2 8 C1.34 8 0.68 8 0 8 C0 5.36 0 2.72 0 0 Z " fill="#9C9C9C" transform="translate(5,15)"/>
<path d="M0 0 C0.66 0.33 1.32 0.66 2 1 C2.51211281 7.40141012 2.11888494 10.98010898 -2 16 C-2 12.66981985 -1.52103148 9.60151119 -1 6.3125 C-0.814375 5.13300781 -0.62875 3.95351563 -0.4375 2.73828125 C-0.293125 1.83464844 -0.14875 0.93101563 0 0 Z " fill="#B1B1B1" transform="translate(38,17)"/>
<path d="M0 0 C-5.21084821 3.15393444 -7.81474757 4.11454171 -14 4 C-14 3.34 -14 2.68 -14 2 C-12.04396149 1.47061343 -10.08507711 0.95173199 -8.125 0.4375 C-7.03445312 0.14746094 -5.94390625 -0.14257812 -4.8203125 -0.44140625 C-2 -1 -2 -1 0 0 Z " fill="#DDDFE0" transform="translate(24,16)"/>
<path d="M0 0 C0 0.99 0 1.98 0 3 C-0.66 3 -1.32 3 -2 3 C-2.33 4.65 -2.66 6.3 -3 8 C-2.01 8.33 -1.02 8.66 0 9 C-2.97 8.505 -2.97 8.505 -6 8 C-4.55746343 4.63408134 -2.66735273 2.48952921 0 0 Z " fill="#D1D2D2" transform="translate(31,25)"/>
<path d="M0 0 C-0.125 1.875 -0.125 1.875 -1 4 C-4.0625 5.25 -4.0625 5.25 -7 6 C-6.1875 3.5625 -6.1875 3.5625 -5 1 C-2 0 -2 0 0 0 Z " fill="#C8C8C8" transform="translate(15,8)"/>
<path d="M0 0 C0.33 0.66 0.66 1.32 1 2 C0.0625 4.125 0.0625 4.125 -1 6 C-2.32 6 -3.64 6 -5 6 C-3.63016497 2.83884224 -3.0109362 2.0072908 0 0 Z " fill="#DEE0E1" transform="translate(33,27)"/>
</svg>
