<?xml version="1.0" encoding="UTF-8" standalone="no"?>
<!-- Created with Inkscape (http://www.inkscape.org/) -->

<svg
   width="1600mm"
   height="1600mm"
   viewBox="0 0 1600 1600"
   version="1.1"
   id="svg1"
   xml:space="preserve"
   inkscape:version="1.3.2 (091e20e, 2023-11-25, custom)"
   sodipodi:docname="none.svg"
   xmlns:inkscape="http://www.inkscape.org/namespaces/inkscape"
   xmlns:sodipodi="http://sodipodi.sourceforge.net/DTD/sodipodi-0.dtd"
   xmlns="http://www.w3.org/2000/svg"
   xmlns:svg="http://www.w3.org/2000/svg"><sodipodi:namedview
     id="namedview1"
     pagecolor="#4c4c4c"
     bordercolor="#000000"
     borderopacity="0.25"
     inkscape:showpageshadow="2"
     inkscape:pageopacity="0.0"
     inkscape:pagecheckerboard="0"
     inkscape:deskcolor="#d1d1d1"
     inkscape:document-units="mm"
     showguides="true"
     showgrid="true"
     inkscape:zoom="0.045266467"
     inkscape:cx="5136.2524"
     inkscape:cy="5401.3493"
     inkscape:window-width="1920"
     inkscape:window-height="1009"
     inkscape:window-x="1912"
     inkscape:window-y="-8"
     inkscape:window-maximized="1"
     inkscape:current-layer="layer1"><inkscape:grid
       id="grid21"
       units="mm"
       originx="0"
       originy="0"
       spacingx="50"
       spacingy="50"
       empcolor="#0099e5"
       empopacity="0.30196078"
       color="#0099e5"
       opacity="0.14901961"
       empspacing="2"
       dotted="false"
       gridanglex="30"
       gridanglez="30"
       visible="true" /></sodipodi:namedview><defs
     id="defs1"><rect
       x="1043.819"
       y="-342.41684"
       width="568.85376"
       height="104.93419"
       id="rect20" /><rect
       x="-749.80725"
       y="-613.12366"
       width="179.64133"
       height="179.64133"
       id="rect18" /><rect
       x="-1374.6466"
       y="-702.94434"
       width="1253.584"
       height="425.67184"
       id="rect16" /><rect
       x="-1230.1525"
       y="-632.6499"
       width="339.75641"
       height="288.98822"
       id="rect15" /><rect
       x="-1523.046"
       y="-702.94434"
       width="2350.9583"
       height="581.88165"
       id="rect13" /><rect
       x="-1011.4588"
       y="-66.389183"
       width="1628.4875"
       height="374.90363"
       id="rect12" /><rect
       x="-636.55511"
       y="-367.09314"
       width="1925.2864"
       height="527.20825"
       id="rect11" /></defs><g
     inkscape:label="Layer 1"
     inkscape:groupmode="layer"
     id="layer1"><g
       id="g21"
       style="fill:#000000"
       transform="matrix(3.8530064,0,0,3.8530064,533.99698,303.01216)"><g
         id="g8"
         style="fill:#999999"><path
           style="opacity:1;fill:#999999;fill-rule:evenodd;stroke-width:0.264583"
           id="path11"
           sodipodi:type="arc"
           sodipodi:cx="68.970299"
           sodipodi:cy="128.89957"
           sodipodi:rx="181.59598"
           sodipodi:ry="181.59598"
           sodipodi:start="6.0889385"
           sodipodi:end="6.0884181"
           sodipodi:arc-type="slice"
           d="M 247.15106,93.846538 A 181.59598,181.59598 0 0 1 104.04651,307.07577 181.59598,181.59598 0 0 1 -109.20134,163.99896 181.59598,181.59598 0 0 1 33.847729,-49.267502 181.59598,181.59598 0 0 1 247.1328,93.753817 L 68.970299,128.89957 Z" /></g><g
         id="g20"
         style="fill:#000000"><path
           style="-inkscape-font-specification:'Arial, Normal';fill:#000000;fill-rule:evenodd;stroke-width:8.81766"
           d="M -75.779085,168.6179 V 92.876238 h 10.281439 l 39.782455,59.467022 V 92.876238 h 9.609788 V 168.6179 h -10.28144 l -39.782455,-59.51868 v 59.51868 z m 73.4683792,-36.88918 q 0,-18.85792 10.126443,-29.50102 10.1264438,-10.694762 26.1427568,-10.694762 10.488101,0 18.909582,5.01155 8.421481,5.011562 12.81305,14.001362 4.443236,8.93814 4.443236,20.30455 0,11.52142 -4.649898,20.61455 -4.649897,9.09313 -13.174709,13.79469 -8.524812,4.6499 -18.392927,4.6499 -10.694764,0 -19.116245,-5.16655 -8.4214805,-5.16656 -12.7613847,-14.10469 -4.3399041,-8.93814 -4.3399041,-18.90958 z m 10.3331051,0.15499 q 0,13.69137 7.3365047,21.59619 7.38817,7.85316 18.496258,7.85316 11.314751,0 18.59959,-7.95649 7.336504,-7.95649 7.336504,-22.57783 0,-9.24813 -3.151597,-16.11965 -3.099931,-6.92318 -9.144798,-10.69476 -5.993201,-3.82325 -13.484702,-3.82325 -10.643098,0 -18.341262,7.33651 -7.6464977,7.28483 -7.6464977,24.38612 z M 82.937406,168.6179 V 92.876238 h 10.28144 L 133.0013,152.34326 V 92.876238 h 9.60978 V 168.6179 H 132.32964 L 92.547194,109.09922 v 59.51868 z m 76.723324,0 V 92.876238 h 54.76545 v 8.938142 h -44.74234 v 23.19782 h 41.90074 v 8.88647 h -41.90074 v 25.78109 h 46.49897 v 8.93814 z"
           id="text19"
           aria-label="NONE" /></g></g></g></svg>
