<?xml version="1.0" encoding="UTF-8" standalone="no"?>
<svg
   height="1600"
   viewBox="0 0 1550 1600"
   width="1550"
   version="1.1"
   id="svg2"
   sodipodi:docname="ops.gpencil.edit_bend.svg"
   inkscape:version="1.3.2 (091e20e, 2023-11-25, custom)"
   xml:space="preserve"
   xmlns:inkscape="http://www.inkscape.org/namespaces/inkscape"
   xmlns:sodipodi="http://sodipodi.sourceforge.net/DTD/sodipodi-0.dtd"
   xmlns="http://www.w3.org/2000/svg"
   xmlns:svg="http://www.w3.org/2000/svg"><defs
     id="defs2" /><sodipodi:namedview
     pagecolor="#303030"
     showgrid="true"
     id="namedview1"
     bordercolor="#000000"
     borderopacity="0.25"
     inkscape:showpageshadow="2"
     inkscape:pageopacity="0.0"
     inkscape:pagecheckerboard="0"
     inkscape:deskcolor="#d1d1d1"
     inkscape:zoom="0.2654502"
     inkscape:cx="482.19967"
     inkscape:cy="725.1831"
     inkscape:window-width="1920"
     inkscape:window-height="1009"
     inkscape:window-x="1912"
     inkscape:window-y="-8"
     inkscape:window-maximized="1"
     inkscape:current-layer="svg2"><inkscape:grid
       id="grid5"
       units="px"
       spacingx="50"
       spacingy="50"
       color="#4772b3"
       opacity="0.2"
       visible="true"
       originx="0"
       originy="0"
       empspacing="2" /></sodipodi:namedview><g
     id="g1"
     transform="matrix(1.1710958,0,0,1.1710958,-194.46856,-123.62531)"><g
       id="g5"
       inkscape:label="gray"
       style="fill:#e5e5e5;fill-opacity:1;stroke:none"><path
         d="m 375.54568,1326.0919 c 0.35333,-13.2916 -5.67888,-29.2819 -16.68999,-40.2931 -11.01125,-11.0113 -27.00139,-17.0433 -40.29301,-16.69 -13.29193,-0.3533 -29.28207,5.6787 -40.29317,16.69 -11.01125,11.0112 -17.04332,27.0015 -16.68999,40.2931 -0.35333,13.2916 5.67874,29.2821 16.68999,40.2935 11.0111,11.0103 27.00124,17.0432 40.29317,16.69 13.29162,0.3532 29.28176,-5.6797 40.29301,-16.69 11.01111,-11.0114 17.04332,-27.0019 16.68999,-40.2935 z"
         stroke="#000000"
         stroke-width="0.473475"
         fill="none"
         id="path1"
         style="fill:#e5e5e5;fill-opacity:1;stroke:none" /><path
         d="m 1257.3324,1326.0919 c 0.3532,-13.2916 -5.6798,-29.2819 -16.69,-40.2931 -11.0114,-11.0113 -27.0017,-17.0433 -40.2933,-16.69 -13.2918,-0.3533 -29.282,5.6787 -40.2932,16.69 -11.0112,11.0112 -17.0433,27.0015 -16.6901,40.2931 -0.3532,13.2916 5.6789,29.2821 16.6901,40.2935 11.0112,11.0103 27.0014,17.0432 40.2932,16.69 13.2916,0.3532 29.2819,-5.6797 40.2933,-16.69 11.0102,-11.0114 17.0432,-27.0019 16.69,-40.2935 z"
         stroke="#000000"
         stroke-width="0.473475"
         fill="none"
         id="path2"
         style="fill:#e5e5e5;fill-opacity:1;stroke:none" /><path
         d="m 555.09138,251.11641 c 0.35348,-13.29163 -5.67873,-29.28207 -16.68984,-40.29313 -11.01125,-11.01126 -27.00139,-17.04334 -40.29331,-16.69 -13.29163,-0.35334 -29.28177,5.67874 -40.29302,16.69 -11.0111,11.01106 -17.04332,27.0015 -16.68999,40.29313 -0.35333,13.29163 5.67889,29.28185 16.68999,40.29312 11.01125,11.01125 27.00139,17.04332 40.29302,16.68999 13.29192,0.35333 29.28206,-5.67874 40.29331,-16.68999 11.01111,-11.01127 17.04332,-27.00149 16.68984,-40.29312 z"
         stroke="#000000"
         stroke-width="0.473475"
         fill="none"
         id="path3"
         style="fill:#e5e5e5;fill-opacity:1;stroke:none" /><path
         d="m 1405.1513,438.68474 c 0.3532,-13.29162 -5.6798,-29.28187 -16.69,-40.29312 -11.0123,-11.01127 -27.0019,-17.04334 -40.2947,-16.69 -13.2909,-0.35334 -29.2805,5.67873 -40.2926,16.69 -11.0105,11.01125 -17.0432,27.0015 -16.6901,40.29312 -0.3531,13.29164 5.6796,29.28207 16.6901,40.29333 11.0121,11.01105 27.0017,17.04333 40.2926,16.68978 13.2928,0.35355 29.2824,-5.67873 40.2947,-16.68978 11.0102,-11.01126 17.0432,-27.00169 16.69,-40.29333 z"
         stroke="#000000"
         stroke-width="0.473475"
         fill="none"
         id="path4"
         style="fill:#e5e5e5;fill-opacity:1;stroke:none" /></g><g
       id="g4"
       inkscape:label="purple"
       style="fill:#d9aff5;fill-opacity:1;stroke:none"><path
         d="m 1325.0472,532.85953 c -102.1292,212.2875 -143.8441,462.71775 -116.0431,696.64817 -15.2789,-1.4162 -31.3225,1.0115 -45.4984,6.8847 -29.2491,-243.34584 14.1805,-504.06906 120.7319,-724.79427 11.5055,10.15132 25.8972,17.64839 40.8096,21.2614 z"
         stroke="#000000"
         stroke-width="0.473475"
         fill="none"
         id="path5"
         style="fill:#d9aff5;fill-opacity:1;stroke:none" /><path
         d="m 469.64632,343.81671 c -72.27359,130.92651 -123.93992,278.31202 -149.2908,430.09275 -25.35089,151.78073 -24.38648,307.95664 1.41569,455.26424 -15.33349,-0.5545 -31.21369,2.7712 -45.03619,9.4316 -26.94014,-152.7641 -28.03801,-314.80606 -1.73736,-472.27164 26.30034,-157.46579 79.99891,-310.35524 155.12223,-446.07254 10.90767,10.7907 24.84515,19.09683 39.52643,23.55559 z"
         stroke="#000000"
         stroke-width="0.473475"
         fill="none"
         id="path6"
         style="fill:#d9aff5;fill-opacity:1;stroke:none" /><path
         d="M 1251.2206,440.83925 585.14698,293.86804 c 6.80251,-13.7432 10.29615,-29.5766 9.90879,-44.90616 L 1261.128,395.93309 c -6.8021,13.74321 -10.2959,29.57661 -9.9074,44.90616 z"
         stroke="#000000"
         stroke-width="0.473475"
         fill="none"
         id="path7"
         style="fill:#d9aff5;fill-opacity:1;stroke:none" /><path
         d="m 412.76836,1303.0988 h 693.37484 c -3.6813,14.886 -3.6813,31.1002 0,45.9862 H 412.76836 c 3.68142,-14.886 3.68142,-31.1002 0,-45.9862 z"
         stroke="#000000"
         stroke-width="0.473475"
         fill="none"
         id="path8"
         style="fill:#d9aff5;fill-opacity:1;stroke:none" /></g></g></svg>
