<?xml version="1.0" encoding="UTF-8" standalone="no"?>
<svg
   height="1600"
   viewBox="0 0 1600 1600"
   width="1600"
   version="1.1"
   id="svg2"
   sodipodi:docname="ops.transform.shrinkflatten.svg"
   inkscape:version="1.3.2 (091e20e, 2023-11-25, custom)"
   xml:space="preserve"
   xmlns:inkscape="http://www.inkscape.org/namespaces/inkscape"
   xmlns:sodipodi="http://sodipodi.sourceforge.net/DTD/sodipodi-0.dtd"
   xmlns="http://www.w3.org/2000/svg"
   xmlns:svg="http://www.w3.org/2000/svg"><defs
     id="defs2" /><sodipodi:namedview
     pagecolor="#303030"
     showgrid="true"
     id="namedview1"
     bordercolor="#000000"
     borderopacity="0.25"
     inkscape:showpageshadow="2"
     inkscape:pageopacity="0.0"
     inkscape:pagecheckerboard="0"
     inkscape:deskcolor="#d1d1d1"
     inkscape:zoom="0.40162176"
     inkscape:cx="840.34291"
     inkscape:cy="939.93911"
     inkscape:window-width="1920"
     inkscape:window-height="1009"
     inkscape:window-x="1912"
     inkscape:window-y="-8"
     inkscape:window-maximized="1"
     inkscape:current-layer="svg2"><inkscape:grid
       id="grid5"
       units="px"
       spacingx="50"
       spacingy="50"
       color="#4772b3"
       opacity="0.2"
       visible="true"
       originx="0"
       originy="0"
       empspacing="2" /></sodipodi:namedview><g
     id="g3"
     transform="matrix(1.187976,0,0,1.187976,-193.27682,-107.48506)"><g
       id="g1"
       inkscape:label="purple"
       style="fill:#d9aff5;fill-opacity:1"
       transform="matrix(1.1428571,0,0,1.1428571,-114.28571,-114.28571)"><path
         d="m 1013.3633,778.47209 v 43.0557 h -32.5744 v 75.7654 l -137.1211,-97.2933 137.1211,-97.2924 v 75.7646 z"
         stroke-width="0.669008"
         id="path3"
         style="fill:#d9aff5;fill-opacity:1"
         sodipodi:nodetypes="cccccccc" /><path
         d="m 824.7056,459.42821 h -49.41201 v -49.43914 h -86.9514 L 799.99959,252.62276 911.6565,409.98907 h -86.9509 z"
         stroke-width="0.669008"
         id="path4"
         style="fill:#d9aff5;fill-opacity:1" /><path
         d="m 522.66209,824.70609 v -49.4124 h -49.4389 v -86.951 l -157.3665,111.6572 157.3665,111.6575 v -86.9513 z"
         stroke-width="0.669008"
         id="path5"
         style="fill:#d9aff5;fill-opacity:1" /><path
         d="m 824.7056,1077.3373 h -49.41201 v 49.4397 h -86.9514 l 111.6574,157.3674 111.65691,-157.3674 h -86.9509 z"
         stroke-width="0.669008"
         id="path6"
         style="fill:#d9aff5;fill-opacity:1" /><path
         d="m 821.5272,1013.3633 h -43.05541 v -32.57511 h -75.7647 l 97.2925,-137.1202 97.29251,137.1202 h -75.7649 z"
         stroke-width="0.669008"
         id="path7"
         style="fill:#d9aff5;fill-opacity:1"
         sodipodi:nodetypes="cccccccc" /><path
         d="m 821.5272,586.63477 h -43.05541 v 32.57542 h -75.7647 l 97.2925,137.1213 97.29251,-137.1213 h -75.7649 z"
         stroke-width="0.669008"
         id="path8"
         style="fill:#d9aff5;fill-opacity:1"
         sodipodi:nodetypes="cccccccc" /><path
         d="m 1140.5703,775.29369 v 49.4124 h 49.4397 v 86.9513 L 1347.3773,799.99989 1190.01,688.34269 v 86.951 z"
         stroke-width="0.669008"
         id="path9"
         style="fill:#d9aff5;fill-opacity:1" /><path
         d="m 586.63477,778.47209 v 43.0557 h 32.57512 v 75.7654 l 137.1214,-97.2933 -137.1214,-97.2924 v 75.7646 z"
         stroke-width="0.669008"
         id="path10"
         style="fill:#d9aff5;fill-opacity:1"
         sodipodi:nodetypes="cccccccc" /></g><g
       id="g2"
       inkscape:label="gray"
       style="fill:#e5e5e5;fill-opacity:1"
       transform="matrix(1.1428571,0,0,1.1428571,-114.28571,-114.28571)"><path
         id="path1"
         d="m 617.88281,491.41406 -43.24219,43.24219 h 45.23633 l 11.25586,-11.25586 h 422.84769 l -31.2481,31.24805 H 554.64844 V 1045.3496 H 1045.3516 V 577.26758 l 31.248,-31.24805 v 422.84961 l -11.2558,11.25195 v 45.23631 l 43.2402,-43.24021 V 491.41406 Z m -31.24804,95.22071 H 1013.3633 V 1013.3633 H 586.63477 Z"
         style="fill:#e5e5e5;fill-opacity:1" /></g></g></svg>
