<?xml version="1.0" encoding="UTF-8" standalone="no"?>
<!DOCTYPE svg PUBLIC "-//W3C//DTD SVG 1.1//EN" "http://www.w3.org/Graphics/SVG/1.1/DTD/svg11.dtd">
<svg xmlns="http://www.w3.org/2000/svg" xmlns:xlink="http://www.w3.org/1999/xlink" xmlns:serif="http://www.serif.com/" width="100%" height="100%" viewBox="0 0 1600 1600" version="1.1" xml:space="preserve" style="fill-rule:evenodd;clip-rule:evenodd;stroke-linejoin:round;stroke-miterlimit:2;">
    <g id="polybuild_hover" transform="matrix(1.25018,0,0,1.25018,-200.143,-195.812)">
        <g id="White">
            <circle cx="682.541" cy="292.959" r="84.347" style="fill:rgb(229,229,229);"/>
            <circle cx="1251.89" cy="487.18" r="80.74" style="fill:rgb(229,229,229);"/>
            <circle cx="1264.09" cy="1247.97" r="80.74" style="fill:rgb(229,229,229);"/>
            <g transform="matrix(0.9811,0,0,0.9811,5.34358,22.061)">
                <circle cx="363.464" cy="1247.97" r="80.74" style="fill:rgb(229,229,229);"/>
            </g>
            <circle cx="361.938" cy="764.717" r="79.214" style="fill:rgb(229,229,229);"/>
        </g>
        <g id="Green">
            <path d="M1143.79,449.737C1126.98,535.463 1161.44,587.606 1251.89,601.119L1267.2,1130.73C1198.5,1144.26 1156.12,1182.46 1144.23,1249.26L490.319,1249.26C477.604,1175.35 437.184,1134.8 366.462,1130.73L366.462,876.357C497.682,868.145 520.838,714.395 411.743,655.279L598.639,374.713C673.253,432.751 738.74,422.331 794.413,338.31L1143.79,449.737Z" style="fill:rgb(117,255,175);"/>
        </g>
    </g>
</svg>
