<?xml version="1.0" encoding="UTF-8" standalone="no"?>
<svg
   height="1600"
   viewBox="0 0 1600 1600"
   width="1600"
   version="1.1"
   id="svg2"
   sodipodi:docname="ops.transform.tilt.svg"
   inkscape:version="1.3.2 (091e20e, 2023-11-25, custom)"
   xml:space="preserve"
   xmlns:inkscape="http://www.inkscape.org/namespaces/inkscape"
   xmlns:sodipodi="http://sodipodi.sourceforge.net/DTD/sodipodi-0.dtd"
   xmlns="http://www.w3.org/2000/svg"
   xmlns:svg="http://www.w3.org/2000/svg"><defs
     id="defs2" /><sodipodi:namedview
     pagecolor="#303030"
     showgrid="true"
     id="namedview1"
     bordercolor="#000000"
     borderopacity="0.25"
     inkscape:showpageshadow="2"
     inkscape:pageopacity="0.0"
     inkscape:pagecheckerboard="0"
     inkscape:deskcolor="#d1d1d1"
     inkscape:zoom="0.26209808"
     inkscape:cx="1528.0539"
     inkscape:cy="1398.3315"
     inkscape:window-width="1920"
     inkscape:window-height="1009"
     inkscape:window-x="1912"
     inkscape:window-y="-8"
     inkscape:window-maximized="1"
     inkscape:current-layer="svg2"><inkscape:grid
       id="grid5"
       units="px"
       spacingx="50"
       spacingy="50"
       color="#4772b3"
       opacity="0.2"
       visible="true"
       originx="0"
       originy="0"
       empspacing="2" /></sodipodi:namedview><g
     id="g5"
     transform="matrix(1.0282464,0,0,1.0282464,-22.663226,-22.914524)"><g
       id="g1"
       inkscape:label="gray"
       style="fill:#e5e5e5;fill-opacity:1"
       transform="matrix(1.1428571,0,0,1.1428571,-114.28571,-114.28571)"><path
         d="m 1258.2887,374.22914 c 8.8118,-7.18934 8.8118,-25.32861 0,-32.51796 -7.1892,-8.81163 -25.3286,-8.81163 -32.5179,0 L 341.71131,1225.7696 c -8.8116,7.1905 -8.8116,25.3284 0,32.5189 7.1894,8.8111 25.3285,8.8111 32.518,0 z"
         stroke="#000000"
         stroke-width="0.439001"
         fill="none"
         id="path28"
         style="fill:#e5e5e5;fill-opacity:1;stroke:#eeeeee;stroke-opacity:1" /><path
         d="m 274.76401,1395.2161 c -37.11123,0.9856 -70.96712,-32.8625 -69.98057,-69.9802 -0.9873,-37.1115 32.86296,-70.9677 69.98057,-69.982 37.11752,-0.9857 70.96796,32.8694 69.981,69.982 0.98725,37.1149 -32.86721,70.9658 -69.981,69.9802 z"
         stroke="#000000"
         stroke-width="0.439001"
         fill="none"
         id="path29"
         style="fill:#e5e5e5;fill-opacity:1;stroke:#eeeeee;stroke-opacity:1"
         sodipodi:nodetypes="ccccc" /><path
         d="m 1395.2159,274.76417 c 0.9895,-37.11316 -32.8645,-70.96742 -69.9802,-69.98088 -37.116,-0.98655 -70.9676,32.86775 -69.9806,69.98088 -0.9872,37.11457 32.8668,70.9676 69.9806,69.98067 37.1149,0.98695 70.9697,-32.86716 69.9802,-69.98067 z"
         stroke="#000000"
         stroke-width="0.439001"
         fill="none"
         id="path30"
         style="fill:#e5e5e5;fill-opacity:1;stroke:#eeeeee;stroke-opacity:1"
         sodipodi:nodetypes="ccccc" /></g><g
       id="g4"
       inkscape:label="purple"
       style="fill:#d9aff5;fill-opacity:1"
       transform="matrix(1.1428571,0,0,1.1428571,-114.28571,-114.28571)"><g
         id="g3"
         inkscape:label="lines"
         style="fill:#d9aff5;fill-opacity:1"><path
           d="m 577.56581,877.35591 c -5.7468,-4.6888 -5.7468,-16.5185 0,-21.2074 4.6888,-5.7468 16.5186,-5.7468 21.2074,0 l 45.6762,45.6763 c 5.7467,4.6889 5.7467,16.5187 0,21.2075 -4.6886,5.7467 -16.5186,5.7467 -21.2074,0 z"
           stroke-width="0.439001"
           id="path1"
           style="fill:#d9aff5;fill-opacity:1" /><path
           d="m 503.66571,900.33261 c -4.689,-5.7467 -16.5186,-5.7467 -21.2074,0 -5.7467,4.6886 -5.7467,16.5186 0,21.2074 l 57.8172,57.8173 c 4.6888,5.7467 16.5188,5.7467 21.2075,0 5.7466,-4.6888 5.7466,-16.5188 0,-21.2074 z"
           stroke-width="0.439001"
           id="path3"
           style="fill:#d9aff5;fill-opacity:1" /><path
           d="m 590.05191,1265.3015 c 5.7465,4.6883 5.7465,16.5193 0,21.2074 -4.689,5.7472 -16.5188,5.7472 -21.2076,0 l -68.4129,-68.4125 c -5.7467,-4.6901 -5.7467,-16.5192 0,-21.2074 4.6886,-5.7472 16.5185,-5.7472 21.2073,0 z"
           stroke-width="0.439001"
           id="path4"
           style="fill:#d9aff5;fill-opacity:1" /><path
           d="m 648.59751,1184.5549 c 5.7467,4.6899 5.7467,16.5192 0,21.2073 -4.6889,5.7474 -16.5186,5.7474 -21.2075,0 l -66.2088,-66.2078 c -5.7467,-4.6887 -5.7467,-16.5186 0,-21.2074 4.6889,-5.7468 16.5185,-5.7468 21.2073,0 z"
           stroke-width="0.439001"
           id="path5"
           style="fill:#d9aff5;fill-opacity:1" /><path
           d="m 751.56161,869.64551 c -4.6886,-5.7467 -16.5186,-5.7467 -21.2072,0 -5.7467,4.6889 -5.7467,16.5186 0,21.2074 l 29.7238,29.7242 c 4.689,5.7466 16.5188,5.7466 21.2076,0 5.7467,-4.6886 5.7467,-16.5186 0,-21.2074 z"
           stroke-width="0.439001"
           id="path6"
           style="fill:#d9aff5;fill-opacity:1" /><path
           d="m 700.63021,818.71411 c -4.6888,-5.7467 -16.5186,-5.7467 -21.2074,0 -5.7468,4.6886 -5.7468,16.5186 0,21.2072 l 24.0687,24.069 21.2075,-21.2073 z"
           stroke-width="0.439001"
           id="path7"
           style="fill:#d9aff5;fill-opacity:1" /><path
           d="m 722.64391,1022.4341 c 4.6888,5.7466 16.5186,5.7466 21.2075,0 5.7467,-4.6889 5.7467,-16.5187 0,-21.2075 l -45.6765,-45.67619 c -4.6888,-5.7468 -16.5186,-5.7468 -21.2075,0 -5.7467,4.6886 -5.7467,16.5186 0,21.2072 z"
           stroke-width="0.439001"
           id="path8"
           style="fill:#d9aff5;fill-opacity:1" /><path
           d="m 334.69821,1009.9481 c -4.6888,-5.7467 -16.5185,-5.7467 -21.2075,0 -5.7466,4.6888 -5.7466,16.5187 0,21.2074 l 68.413,68.4129 c 4.6889,5.7468 16.5186,5.7468 21.2074,0 5.7468,-4.6889 5.7468,-16.5186 0,-21.2072 z"
           stroke-width="0.439001"
           id="path9"
           style="fill:#d9aff5;fill-opacity:1" /><path
           d="m 415.44401,951.40241 c -4.6887,-5.7466 -16.5186,-5.7466 -21.2073,0 -5.7469,4.6888 -5.7469,16.5186 0,21.2074 l 66.2089,66.20889 c 4.6886,5.7466 16.5185,5.7466 21.2072,0 5.7468,-4.6889 5.7468,-16.5188 0,-21.2075 z"
           stroke-width="0.439001"
           id="path10"
           style="fill:#d9aff5;fill-opacity:1" /><path
           d="m 328.29151,1142.8327 c 5.7466,4.6889 5.7466,16.5184 0,21.2082 -4.689,5.7454 -16.5186,5.7454 -21.2076,0 l -65.8861,-65.887 c -5.7467,-4.6886 -5.7467,-16.5186 0,-21.2073 4.6887,-5.7466 16.5187,-5.7466 21.2074,0 z"
           stroke-width="0.439001"
           id="path11"
           style="fill:#d9aff5;fill-opacity:1" /><path
           d="m 899.36981,781.28541 c 4.6889,5.7469 16.5186,5.7469 21.2075,0 5.7465,-4.6885 5.7465,-16.5185 0,-21.2071 l -24.0688,-24.0691 -21.2075,21.2074 z"
           stroke-width="0.439001"
           id="path13"
           style="fill:#d9aff5;fill-opacity:1" /><path
           d="m 457.16701,1271.7091 c -4.6887,-5.7472 -16.5186,-5.7472 -21.2074,0 -5.7468,4.6881 -5.7468,16.5174 0,21.2074 l 65.8862,65.8846 c 4.6887,5.7471 16.5186,5.7471 21.2073,0 5.7468,-4.6881 5.7468,-16.5174 0,-21.2074 z"
           stroke-width="0.439001"
           id="path14"
           style="fill:#d9aff5;fill-opacity:1" /><path
           d="m 699.66721,1096.3341 c 5.7467,4.6887 5.7467,16.5186 0,21.2073 -4.6888,5.7467 -16.5187,5.7467 -21.2074,0 l -57.8173,-57.8173 c -5.7466,-4.6887 -5.7466,-16.5186 0,-21.2074 4.6888,-5.7467 16.5185,-5.7467 21.2075,0 z"
           stroke-width="0.439001"
           id="path15"
           style="fill:#d9aff5;fill-opacity:1" /><path
           d="m 1009.9483,334.69818 c -5.7465,-4.68888 -5.7465,-16.51862 0,-21.20751 4.6888,-5.74668 16.5186,-5.74668 21.2075,0 l 68.4128,68.41291 c 5.7468,4.68887 5.7468,16.51862 0,21.20751 -4.6888,5.74672 -16.5185,5.74672 -21.2072,0 z"
           stroke-width="0.439001"
           id="path16"
           style="fill:#d9aff5;fill-opacity:1" /><path
           d="m 951.40261,415.44391 c -5.7468,-4.6887 -5.7468,-16.51868 0,-21.20738 4.6888,-5.74669 16.5186,-5.74669 21.2076,0 l 66.20859,66.20878 c 5.7468,4.6888 5.7468,16.5186 0,21.2075 -4.6888,5.7465 -16.5185,5.7465 -21.2072,0 z"
           stroke-width="0.439001"
           id="path17"
           style="fill:#d9aff5;fill-opacity:1" /><path
           d="m 1142.8331,328.29135 c 4.6888,5.74667 16.5184,5.74667 21.2073,0 5.7467,-4.68869 5.7467,-16.51862 0,-21.20733 l -65.8862,-65.88628 c -4.6887,-5.7467 -16.5187,-5.7467 -21.2073,0 -5.7466,4.68869 -5.7466,16.51862 0,21.20733 z"
           stroke-width="0.439001"
           id="path18"
           style="fill:#d9aff5;fill-opacity:1" /><path
           d="m 900.33291,503.66551 c -5.7467,-4.6887 -5.7467,-16.5186 0,-21.2073 4.6887,-5.7467 16.5186,-5.7467 21.2074,0 l 57.8173,57.8172 c 5.7466,4.689 5.7466,16.5188 0,21.2075 -4.6889,5.7466 -16.5185,5.7466 -21.2074,0 z"
           stroke-width="0.439001"
           id="path19"
           style="fill:#d9aff5;fill-opacity:1" /><path
           d="m 877.35621,577.56551 c -4.6889,-5.7466 -16.5185,-5.7466 -21.2075,0 -5.7466,4.689 -5.7466,16.5186 0,21.2075 l 45.6764,45.6763 c 4.6889,5.7466 16.5187,5.7466 21.2075,0 5.7465,-4.6887 5.7465,-16.5185 0,-21.2074 z"
           stroke-width="0.439001"
           id="path20"
           style="fill:#d9aff5;fill-opacity:1" /><path
           d="m 1265.3018,590.05171 c 4.6889,5.7465 16.5185,5.7465 21.2075,0 5.7465,-4.6889 5.7465,-16.5187 0,-21.2075 l -68.4131,-68.413 c -4.6887,-5.7467 -16.5185,-5.7467 -21.2074,0 -5.7467,4.6886 -5.7467,16.5186 0,21.2073 z"
           stroke-width="0.439001"
           id="path21"
           style="fill:#d9aff5;fill-opacity:1" /><path
           d="m 1184.556,648.59721 c 4.6887,5.7467 16.5186,5.7467 21.2074,0 5.7468,-4.6886 5.7468,-16.5186 0,-21.2072 l -66.2088,-66.209 c -4.689,-5.7467 -16.5187,-5.7467 -21.2075,0 -5.7466,4.6886 -5.7466,16.5186 0,21.2073 z"
           stroke-width="0.439001"
           id="path22"
           style="fill:#d9aff5;fill-opacity:1" /><path
           d="m 1271.7088,457.16671 c -5.7469,-4.6885 -5.7469,-16.5187 0,-21.2072 4.6885,-5.7468 16.5185,-5.7468 21.2071,0 l 65.8863,65.8862 c 5.7468,4.6887 5.7468,16.5186 0,21.2073 -4.6888,5.7467 -16.5186,5.7467 -21.2073,0 z"
           stroke-width="0.439001"
           id="path23"
           style="fill:#d9aff5;fill-opacity:1" /><path
           d="m 1096.3343,699.66701 c 4.6887,5.7467 16.5187,5.7467 21.2073,0 5.7468,-4.6887 5.7468,-16.5187 0,-21.2073 l -57.8171,-57.8173 c -4.689,-5.7467 -16.5186,-5.7467 -21.2077,0 -5.7464,4.6886 -5.7464,16.5186 0,21.2074 z"
           stroke-width="0.439001"
           id="path24"
           style="fill:#d9aff5;fill-opacity:1" /><path
           d="m 1022.4342,722.64371 c 5.7468,4.6887 5.7468,16.5185 0,21.2074 -4.6887,5.7467 -16.5186,5.7467 -21.2073,0 l -45.67649,-45.6764 c -5.7465,-4.6888 -5.7465,-16.5186 0,-21.2075 4.6889,-5.7466 16.5188,-5.7466 21.2075,0 z"
           stroke-width="0.439001"
           id="path25"
           style="fill:#d9aff5;fill-opacity:1" /><path
           d="m 810.60381,789.39611 c -4.6889,-5.7468 -16.5186,-5.7468 -21.2076,0 -5.7466,4.6889 -5.7466,16.5186 0,21.2074 4.689,5.7468 16.5187,5.7468 21.2076,0 5.7467,-4.6888 5.7467,-16.5185 0,-21.2074 z"
           stroke-width="0.439001"
           id="path26"
           style="fill:#d9aff5;fill-opacity:1" /><path
           d="m 848.43841,730.35421 c 4.6888,5.7467 16.5187,5.7467 21.2074,0 5.7465,-4.689 5.7465,-16.5188 0,-21.2074 l -29.7242,-29.7243 c -4.6886,-5.7467 -16.5186,-5.7467 -21.2074,0 -5.7465,4.6888 -5.7465,16.5186 0,21.2076 z"
           stroke-width="0.439001"
           id="path27"
           style="fill:#d9aff5;fill-opacity:1" /></g><g
         id="g2"
         inkscape:label="arrow"
         style="fill:#d9aff5;fill-opacity:1"><path
           d="m 1007.5049,1107.6082 33.9317,33.9316 c 139.4575,-137.9354 87.3649,-328.50852 78.1653,-358.03989 l -41.9832,11.2494 c 8.1933,27.24811 51.2704,192.74796 -70.1138,312.85889 z"
           stroke-width="0.439001"
           id="path2"
           style="fill:#d9aff5;fill-opacity:1"
           sodipodi:nodetypes="ccccc" /><path
           d="m 458.45981,558.56331 c 137.93604,-139.45783 328.50885,-87.36493 358.0401,-78.1653 l -11.2494,41.9831 c -27.24755,-8.19305 -192.74862,-51.27031 -312.8588,70.1139 l 60.7946,60.7944 -189.8137,34.2927 34.2928,-189.8135 z"
           stroke-width="0.439001"
           id="path12"
           style="fill:#d9aff5;fill-opacity:1"
           sodipodi:nodetypes="cccccccc" /></g></g></g></svg>
