<?xml version="1.0" encoding="UTF-8" standalone="no"?>
<svg
   height="1600"
   viewBox="0 0 1600 1600"
   width="1600"
   version="1.1"
   id="svg2"
   sodipodi:docname="ops.sculpt.line_project.svg"
   inkscape:version="1.3.2 (091e20e, 2023-11-25, custom)"
   xml:space="preserve"
   xmlns:inkscape="http://www.inkscape.org/namespaces/inkscape"
   xmlns:sodipodi="http://sodipodi.sourceforge.net/DTD/sodipodi-0.dtd"
   xmlns="http://www.w3.org/2000/svg"
   xmlns:svg="http://www.w3.org/2000/svg"><defs
     id="defs2" /><sodipodi:namedview
     pagecolor="#303030"
     showgrid="true"
     id="namedview1"
     bordercolor="#000000"
     borderopacity="0.25"
     inkscape:showpageshadow="2"
     inkscape:pageopacity="0.0"
     inkscape:pagecheckerboard="0"
     inkscape:deskcolor="#d1d1d1"
     inkscape:zoom="1.28"
     inkscape:cx="1207.4219"
     inkscape:cy="1410.5469"
     inkscape:window-width="1920"
     inkscape:window-height="1009"
     inkscape:window-x="1912"
     inkscape:window-y="-8"
     inkscape:window-maximized="1"
     inkscape:current-layer="layer2"
     showguides="true"><inkscape:grid
       id="grid5"
       units="px"
       spacingx="50"
       spacingy="50"
       color="#4772b3"
       opacity="0.2"
       visible="true"
       originx="0"
       originy="0"
       empspacing="2" /></sodipodi:namedview><g
     inkscape:groupmode="layer"
     id="layer2"
     inkscape:label="icon"><g
       id="g1"
       transform="matrix(1.2836875,0,0,1.2851219,-33.356282,-304.9919)"><path
         id="path1"
         style="opacity:1;fill:#9b9b9b;fill-opacity:1;stroke:none;stroke-width:53.2051;stroke-miterlimit:1000"
         d="m 213.25977,526.81641 c -70.63162,94.47672 -109.0306,209.1519 -109.53321,327.11132 1.9e-4,145.92651 57.96935,285.87617 161.15498,389.06177 103.18562,103.1857 243.13531,161.1548 389.06182,161.155 117.51506,-0.4999 231.78304,-38.6115 326.07031,-108.7539 z"
         sodipodi:nodetypes="ccsccc" /><path
         style="fill:#ffffff;stroke-miterlimit:1000"
         d="m 281.30859,425.11914 c -9.57491,22.11068 -27.41414,39.91883 -49.55078,49.44336 l 799.57229,801.4727 c 10.361,-21.5744 27.9584,-39.1268 49.5605,-49.4375 z"
         id="path7" /><path
         style="fill:#f9f9f9;stroke-miterlimit:1000"
         d="m 263.98798,388.09604 a 69.053398,69.053398 0 0 1 -69.05339,69.0534 69.053398,69.053398 0 0 1 -69.0534,-69.0534 69.053398,69.053398 0 0 1 69.0534,-69.0534 69.053398,69.053398 0 0 1 69.05339,69.0534 z"
         id="path6" /><path
         style="fill:#f9f9f9;stroke-miterlimit:1000"
         d="m 1194.2753,1320.5931 a 69.053398,69.053398 0 0 1 -69.0534,69.0534 69.053398,69.053398 0 0 1 -69.0534,-69.0534 69.053398,69.053398 0 0 1 69.0534,-69.0534 69.053398,69.053398 0 0 1 69.0534,69.0534 z"
         id="path5" /><path
         style="fill:#ffffff;stroke:none;stroke-width:100;stroke-miterlimit:1000"
         d="m 788.28125,361.71875 -76.5625,425 431.25005,-75 L 1003.125,571.875 1185.1563,314.84375 933.40419,502.99096 Z"
         id="path2"
         sodipodi:nodetypes="ccccccc" /></g></g></svg>
