<?xml version="1.0" encoding="UTF-8" standalone="no"?>
<svg
   height="1520"
   viewBox="0 0 1600 1520"
   width="1600"
   version="1.1"
   id="svg2"
   sodipodi:docname="ops.gpencil.edit_mirror.svg"
   inkscape:version="1.3.2 (091e20e, 2023-11-25, custom)"
   xml:space="preserve"
   xmlns:inkscape="http://www.inkscape.org/namespaces/inkscape"
   xmlns:sodipodi="http://sodipodi.sourceforge.net/DTD/sodipodi-0.dtd"
   xmlns="http://www.w3.org/2000/svg"
   xmlns:svg="http://www.w3.org/2000/svg"><defs
     id="defs2" /><sodipodi:namedview
     pagecolor="#303030"
     showgrid="true"
     id="namedview1"
     bordercolor="#000000"
     borderopacity="0.25"
     inkscape:showpageshadow="2"
     inkscape:pageopacity="0.0"
     inkscape:pagecheckerboard="0"
     inkscape:deskcolor="#d1d1d1"
     inkscape:zoom="0.2540625"
     inkscape:cx="704.55105"
     inkscape:cy="907.25707"
     inkscape:window-width="1920"
     inkscape:window-height="1009"
     inkscape:window-x="1912"
     inkscape:window-y="-8"
     inkscape:window-maximized="1"
     inkscape:current-layer="svg2"><inkscape:grid
       id="grid5"
       units="px"
       spacingx="50"
       spacingy="50"
       color="#4772b3"
       opacity="0.2"
       visible="true"
       originx="0"
       originy="0"
       empspacing="2" /></sodipodi:namedview><g
     id="g5"
     transform="matrix(1.0501139,0,0,1.0501139,-38.1557,-87.77808)"><g
       id="g4"
       inkscape:label="white"
       style="fill:#ffffff;fill-opacity:1;stroke:none"><path
         d="m 375.9633,1325.9466 c 5.29238,17.5594 5.29238,37.4176 0,54.9792 h 181.93392 c -5.29213,-17.5616 -5.29213,-37.4198 0,-54.9792 z"
         stroke="#000000"
         stroke-width="0.584497"
         fill="none"
         id="path1"
         style="fill:#ffffff;fill-opacity:1;stroke:none;stroke-opacity:1" /><path
         d="m 351.51379,290.91288 c -5.29212,-17.56073 -5.29212,-37.41922 0,-54.97992 h -68.48916 c 5.29239,17.5607 5.29239,37.41919 0,54.97992 z"
         stroke="#000000"
         stroke-width="0.584497"
         fill="none"
         id="path5"
         style="fill:#ffffff;fill-opacity:1;stroke:none;stroke-opacity:1" /><path
         d="m 225.32893,353.73748 c -17.04782,6.76483 -36.83451,8.45206 -54.78124,4.67085 l 77.13922,904.71217 c 17.04759,-6.7629 36.83427,-8.4507 54.78125,-4.671 z"
         stroke="#000000"
         stroke-width="0.584497"
         fill="none"
         id="path6"
         style="fill:#ffffff;fill-opacity:1;stroke:none;stroke-opacity:1" /><path
         d="m 488.80896,349.67182 c -16.26971,8.46666 -35.78143,12.16093 -54.02019,10.22819 l 171.78586,907.28769 c 16.26971,-8.4679 35.78144,-12.1624 54.02043,-10.2286 z"
         stroke="#000000"
         stroke-width="0.584497"
         fill="none"
         id="path7"
         style="fill:#ffffff;fill-opacity:1;stroke:none;stroke-opacity:1" /></g><g
       id="g1"
       inkscape:label="green"
       style="fill:#75ffaf;fill-opacity:1;stroke:none"><path
         d="m 1224.0377,1325.9466 c -5.2923,17.5594 -5.2923,37.4176 0,54.9792 h -181.9338 c 5.2922,-17.5616 5.2922,-37.4198 0,-54.9792 z"
         stroke="#000000"
         stroke-width="0.584497"
         fill="none"
         id="path12"
         style="fill:#75ffaf;fill-opacity:1;stroke:none;stroke-opacity:1" /><path
         d="m 1248.4872,290.91288 c 5.2924,-17.56073 5.2924,-37.41922 0,-54.97992 h 68.4892 c -5.2923,17.5607 -5.2923,37.41919 0,54.97992 z"
         stroke="#000000"
         stroke-width="0.584497"
         fill="none"
         id="path13"
         style="fill:#75ffaf;fill-opacity:1;stroke:none;stroke-opacity:1" /><path
         d="m 1374.6722,353.73748 c 17.0476,6.76483 36.8343,8.45206 54.7813,4.67085 l -77.1394,904.71217 c -17.0476,-6.7629 -36.8343,-8.4507 -54.7812,-4.671 z"
         stroke="#000000"
         stroke-width="0.584497"
         fill="none"
         id="path14"
         style="fill:#75ffaf;fill-opacity:1;stroke:none;stroke-opacity:1" /><path
         d="m 1111.1923,349.67182 c 16.2697,8.46666 35.7814,12.16093 54.0201,10.22819 L 993.42639,1267.1877 c -16.26965,-8.4679 -35.78143,-12.1624 -54.02012,-10.2286 z"
         stroke="#000000"
         stroke-width="0.584497"
         fill="none"
         id="path15"
         style="fill:#75ffaf;fill-opacity:1;stroke:none;stroke-opacity:1" /><path
         d="m 1006.0968,1353.4351 c 0.3535,-13.29 -5.6783,-29.2785 -16.68882,-40.289 -11.01047,-11.0104 -26.99956,-17.0428 -40.29029,-16.6897 -13.29073,-0.3531 -29.28001,5.6793 -40.29047,16.6897 -11.01047,11.0105 -17.0421,26.999 -16.68885,40.289 -0.35325,13.2924 5.67838,29.2807 16.68885,40.2912 11.01046,11.0104 26.99974,17.043 40.29047,16.6899 13.29073,0.3531 29.27982,-5.6795 40.29029,-16.6899 11.01052,-11.0105 17.04232,-26.9988 16.68882,-40.2912 z"
         stroke="#000000"
         stroke-width="0.584497"
         fill="none"
         id="path16"
         style="fill:#75ffaf;fill-opacity:1;stroke:none;stroke-opacity:1" /><path
         d="m 1374.0029,1353.4351 c 0.3535,-13.29 -5.6783,-29.2785 -16.6888,-40.289 -11.0104,-11.0104 -26.9995,-17.0428 -40.2902,-16.6897 -13.2908,-0.3531 -29.2799,5.6793 -40.2903,16.6897 -11.0106,11.0105 -17.0424,26.999 -16.6889,40.289 -0.3535,13.2924 5.6783,29.2807 16.6889,40.2912 11.0104,11.0104 26.9995,17.043 40.2903,16.6899 13.2907,0.3531 29.2798,-5.6795 40.2902,-16.6899 11.0105,-11.0105 17.0423,-26.9988 16.6888,-40.2912 z"
         stroke="#000000"
         stroke-width="0.584497"
         fill="none"
         id="path17"
         style="fill:#75ffaf;fill-opacity:1;stroke:none;stroke-opacity:1" /><path
         d="m 1212.4803,263.42302 c 0.3531,-13.29094 -5.6784,-29.28009 -16.6888,-40.29053 -11.0105,-11.01046 -26.9998,-17.04199 -40.2905,-16.68884 -13.2909,-0.35315 -29.28,5.67838 -40.2905,16.68884 -11.0102,11.01044 -17.042,26.99959 -16.6888,40.29053 -0.3532,13.29073 5.6786,29.27988 16.6888,40.29034 11.0105,11.01046 26.9996,17.04195 40.2905,16.68884 13.2907,0.35311 29.28,-5.67838 40.2905,-16.68884 11.0104,-11.01046 17.0419,-26.99961 16.6888,-40.29034 z"
         stroke="#000000"
         stroke-width="0.584497"
         fill="none"
         id="path18"
         style="fill:#75ffaf;fill-opacity:1;stroke:none;stroke-opacity:1" /><path
         d="m 1466.9416,263.42302 c 0.3535,-13.29094 -5.6784,-29.28009 -16.6888,-40.29053 -11.0105,-11.01046 -26.9995,-17.04199 -40.2903,-16.68884 -13.2907,-0.35315 -29.2798,5.67838 -40.2902,16.68884 -11.0106,11.01044 -17.0424,26.99959 -16.689,40.29053 -0.3534,13.29073 5.6784,29.27988 16.689,40.29034 11.0104,11.01046 26.9995,17.04195 40.2902,16.68884 13.2908,0.35311 29.2798,-5.67838 40.2903,-16.68884 11.0104,-11.01046 17.0423,-26.99961 16.6888,-40.29034 z"
         stroke="#000000"
         stroke-width="0.584497"
         fill="none"
         id="path19"
         style="fill:#75ffaf;fill-opacity:1;stroke:none;stroke-opacity:1" /></g><g
       id="g3"
       inkscape:label="gray"
       style="fill:#e5e5e5;fill-opacity:1;stroke:none"><path
         d="m 593.90443,1353.4351 c -0.35337,-13.29 5.67815,-29.2785 16.68861,-40.289 11.01047,-11.0104 26.99962,-17.0428 40.29034,-16.6897 13.29099,-0.3531 29.28015,5.6793 40.2906,16.6897 11.01024,11.0105 17.04198,26.999 16.68862,40.289 0.35336,13.2924 -5.67838,29.2807 -16.68862,40.2912 -11.01045,11.0104 -26.99961,17.043 -40.2906,16.6899 -13.29072,0.3531 -29.27987,-5.6795 -40.29034,-16.6899 -11.01046,-11.0105 -17.04198,-26.9988 -16.68861,-40.2912 z"
         stroke="#000000"
         stroke-width="0.584497"
         fill="none"
         id="path8"
         style="fill:#e5e5e5;fill-opacity:1;stroke:none;stroke-opacity:1" /><path
         d="m 133.05927,263.42302 c -0.35338,-13.29094 5.67839,-29.28009 16.68886,-40.29053 11.01046,-11.01046 26.99961,-17.04199 40.29034,-16.68884 13.29098,-0.35315 29.28013,5.67838 40.29036,16.68884 11.01046,11.01044 17.04222,26.99959 16.68883,40.29053 0.35339,13.29073 -5.67837,29.27988 -16.68883,40.29034 -11.01023,11.01046 -26.99938,17.04195 -40.29036,16.68884 -13.29073,0.35311 -29.27988,-5.67838 -40.29034,-16.68884 -11.01047,-11.01046 -17.04224,-26.99961 -16.68886,-40.29034 z"
         stroke="#000000"
         stroke-width="0.584497"
         fill="none"
         id="path11"
         style="fill:#e5e5e5;fill-opacity:1;stroke:none;stroke-opacity:1" /><path
         d="m 225.99795,1353.4351 c -0.35339,-13.29 5.67838,-29.2785 16.68884,-40.289 11.01047,-11.0104 26.99962,-17.0428 40.29035,-16.6897 13.29097,-0.3531 29.28014,5.6793 40.29034,16.6897 11.01047,11.0105 17.04223,26.999 16.68886,40.289 0.35337,13.2924 -5.67839,29.2807 -16.68886,40.2912 -11.0102,11.0104 -26.99937,17.043 -40.29034,16.6899 -13.29073,0.3531 -29.27988,-5.6795 -40.29035,-16.6899 -11.01046,-11.0105 -17.04223,-26.9988 -16.68884,-40.2912 z"
         stroke="#000000"
         stroke-width="0.584497"
         fill="none"
         id="path20"
         style="fill:#e5e5e5;fill-opacity:1;stroke:none;stroke-opacity:1" /><path
         d="m 387.521,263.42302 c -0.35338,-13.29094 5.67815,-29.28009 16.68861,-40.29053 11.01046,-11.01046 26.99961,-17.04199 40.29058,-16.68884 13.2905,-0.35315 29.27965,5.67838 40.29011,16.68884 11.01046,11.01044 17.04223,26.99959 16.68885,40.29053 0.35338,13.29073 -5.67839,29.27988 -16.68885,40.29034 -11.01046,11.01046 -26.99961,17.04195 -40.29011,16.68884 -13.29097,0.35311 -29.28012,-5.67838 -40.29058,-16.68884 C 393.19915,292.7029 387.16762,276.71375 387.521,263.42302 Z"
         stroke="#000000"
         stroke-width="0.584497"
         fill="none"
         id="path21"
         style="fill:#e5e5e5;fill-opacity:1;stroke:none;stroke-opacity:1" /></g><g
       id="g2"
       inkscape:label="black"
       style="display:inline;fill:#000000;fill-opacity:1;stroke:none"><path
         d="m 827.49061,322.32445 c 1.37114,13.52695 -13.96314,28.86121 -27.49012,27.48984 -13.52695,1.37137 -28.86124,-13.96289 -27.48986,-27.48984 V 208.30989 c -1.37138,-13.52694 13.96291,-28.86121 27.48986,-27.49009 13.52698,-1.37112 28.86126,13.96315 27.49012,27.49009 z"
         stroke="#000000"
         stroke-width="0.584497"
         fill="none"
         id="path2"
         style="fill:#000000;fill-opacity:1;stroke:none;stroke-opacity:1" /><path
         d="m 827.49061,594.20003 c 1.37114,13.52696 -13.96314,28.86122 -27.49012,27.49009 -13.52695,1.37113 -28.86124,-13.96313 -27.48986,-27.49009 V 480.18549 c -1.37138,-13.52697 13.96291,-28.86123 27.48986,-27.4901 13.52698,-1.37113 28.86126,13.96313 27.49012,27.4901 z"
         stroke="#000000"
         stroke-width="0.584497"
         fill="none"
         id="path3"
         style="fill:#000000;fill-opacity:1;stroke:none;stroke-opacity:1" /><path
         d="m 827.49061,1409.8268 c 1.37114,13.5262 -13.96314,28.8619 -27.49012,27.4909 -13.52695,1.371 -28.86124,-13.9647 -27.48986,-27.4909 v -114.0134 c -1.37138,-13.5287 13.96291,-28.8618 27.48986,-27.4908 13.52698,-1.371 28.86126,13.9621 27.49012,27.4908 z"
         stroke="#000000"
         stroke-width="0.584497"
         fill="none"
         id="path4"
         style="fill:#000000;fill-opacity:1;stroke:none;stroke-opacity:1" /><path
         d="m 827.49061,866.07558 c 1.37114,13.52708 -13.96314,28.86134 -27.49012,27.49016 -13.52695,1.37118 -28.86124,-13.96308 -27.48986,-27.49016 V 752.06116 c -1.37138,-13.52708 13.96291,-28.86131 27.48986,-27.48994 13.52698,-1.37137 28.86126,13.96286 27.49012,27.48994 z"
         stroke="#000000"
         stroke-width="0.584497"
         fill="none"
         id="path9"
         style="fill:#000000;fill-opacity:1;stroke:none;stroke-opacity:1" /><path
         d="m 827.49061,1137.9512 c 1.37114,13.5269 -13.96314,28.8615 -27.49012,27.4901 -13.52695,1.3714 -28.86124,-13.9632 -27.48986,-27.4901 v -114.0143 c -1.37138,-13.5272 13.96291,-28.86149 27.48986,-27.4901 13.52698,-1.37139 28.86126,13.9629 27.49012,27.4901 z"
         stroke="#000000"
         stroke-width="0.584497"
         fill="none"
         id="path10"
         style="fill:#000000;fill-opacity:1;stroke:none;stroke-opacity:1" /></g></g></svg>
