<?xml version="1.0" encoding="UTF-8" standalone="no"?>
<svg
   height="1600"
   viewBox="0 0 1600 1600"
   width="1600"
   version="1.1"
   id="svg2"
   sodipodi:docname="ops.sculpt.lasso_mask.svg"
   inkscape:version="1.3.2 (091e20e, 2023-11-25, custom)"
   xml:space="preserve"
   xmlns:inkscape="http://www.inkscape.org/namespaces/inkscape"
   xmlns:sodipodi="http://sodipodi.sourceforge.net/DTD/sodipodi-0.dtd"
   xmlns="http://www.w3.org/2000/svg"
   xmlns:svg="http://www.w3.org/2000/svg"><defs
     id="defs2" /><sodipodi:namedview
     pagecolor="#303030"
     showgrid="true"
     id="namedview1"
     bordercolor="#000000"
     borderopacity="0.25"
     inkscape:showpageshadow="2"
     inkscape:pageopacity="0.0"
     inkscape:pagecheckerboard="0"
     inkscape:deskcolor="#d1d1d1"
     inkscape:zoom="0.90509668"
     inkscape:cx="1297.099"
     inkscape:cy="1222.5213"
     inkscape:window-width="1920"
     inkscape:window-height="1009"
     inkscape:window-x="1912"
     inkscape:window-y="-8"
     inkscape:window-maximized="1"
     inkscape:current-layer="layer2"
     showguides="true"><inkscape:grid
       id="grid5"
       units="px"
       spacingx="50"
       spacingy="50"
       color="#4772b3"
       opacity="0.2"
       visible="true"
       originx="0"
       originy="0"
       empspacing="2" /></sodipodi:namedview><g
     inkscape:groupmode="layer"
     id="layer2"
     inkscape:label="icon"><g
       id="g1"
       transform="matrix(1.1687514,0,0,1.1707629,-20.770154,-142.68369)"><path
         style="opacity:1;fill:#9b9b9b;fill-opacity:1;stroke:none;stroke-width:53.2051;stroke-miterlimit:1000"
         d="m 151.95312,629.36914 a 550.21747,550.21747 0 0 0 -48.22656,224.55859 550.21747,550.21747 0 0 0 550.2168,550.21677 550.21747,550.21747 0 0 0 236.42383,-54.0097 C 837.06605,1323.184 791.20359,1276.4621 766.85938,1212.3828 726.95325,1107.3411 694.99298,1039.7881 655.38867,994.05078 615.39707,947.86613 565.3424,915.80869 465.96289,882.78906 346.16927,842.98669 248.86967,781.47497 188.99805,698.375 173.53933,676.91879 161.10154,653.68074 151.95312,629.36914 Z"
         id="path8" /><path
         style="fill:#ffffff;fill-opacity:1;stroke:none;stroke-width:47.8556;stroke-miterlimit:1000"
         d="m 467.5625,353.75781 c -86.87259,31.70519 -132.15154,72.7677 -160.70312,125.94727 -25.53969,47.56969 -21.35695,78.89991 11.95703,125.13867 32.31514,44.85241 101.00496,94.01373 197.59765,126.10742 115.17472,38.26771 198.32764,87.21739 259.93164,158.36133 61.36849,70.87193 98.54036,156.8941 140.08399,266.2461 13.26333,34.912 29.63256,47.4275 57.52343,56.9219 68.46488,23.3063 112.88628,-13.0889 149.32668,-71.4732 52.7348,-86.0165 61.2298,-185.41298 61.2683,-287.44089 C 1184.5351,663.67562 1085.1358,497.55752 937.89309,394.56424 825.20542,315.74153 633.00551,297.34355 467.5625,353.75781 Z"
         id="path1"
         sodipodi:nodetypes="sssssssscss" /><g
         id="path2"><path
           style="fill:#ffffff;stroke-miterlimit:1000"
           d="m 824.4707,207.21484 c -165.98453,-1.01355 -293.63697,17.00182 -391.1914,52.60547 -104.05806,37.97723 -174.04006,97.17685 -214.52539,172.58399 -41.63609,77.55049 -30.8401,161.823 18.92578,230.89648 49.76587,69.07349 135.95275,125.58502 247.20312,162.54883 105.1419,34.93423 167.9764,73.61898 215.86524,128.92383 47.88883,55.30486 81.64156,129.54216 122.19922,236.29886 22.88213,60.2308 67.63193,98.6773 118.80859,116.082 51.17665,17.4047 108.23534,15.3206 161.27544,0.3398 53.04,-14.9807 102.4288,-42.9152 138.3203,-80.7207 35.8914,-37.8054 58.417,-87.1165 51.832,-140.4511 -21.8965,-177.34898 -21.9252,-309.3352 4,-499.08402 13.6512,-99.91482 -0.5345,-195.64985 -69.0391,-265.42187 -68.5046,-69.77203 -185.868,-110.31798 -369.96286,-114.14454 -11.40879,-0.23714 -22.6453,-0.38946 -33.71094,-0.45703 z m -32.20117,50.06446 c 20.91633,-0.20594 42.53549,-0.0815 64.87305,0.38281 177.14622,3.68212 280.22872,43.07066 335.32422,99.18555 55.0955,56.11489 67.6639,132.21897 55.1758,223.62109 -26.3537,192.88507 -26.3541,331.58995 -4.0821,511.98045 4.4572,36.1002 -10.049,69.9651 -38.4687,99.9004 -28.4197,29.9353 -70.6192,54.3086 -115.6504,67.0274 -45.0312,12.7187 -92.52653,13.7258 -131.58788,0.4414 -39.06136,-13.2844 -70.23466,-39.3079 -88.16407,-86.502 C 828.624,1065.2231 793.21934,985.18195 738.54687,922.04297 683.87441,858.90399 610.74501,814.98084 500.64844,778.40039 396.66034,743.84952 319.39457,691.18236 278.24805,634.07227 237.10153,576.96218 229.52531,518.04379 262.80664,456.05469 297.23872,391.92222 355.07649,341.58578 450.41992,306.78906 533.84543,276.34193 645.85526,258.72087 792.26953,257.2793 Z"
           id="path3" /></g></g></g></svg>
