<?xml version="1.0" encoding="UTF-8" standalone="no"?>
<svg
   height="1600"
   viewBox="0 0 1490 1600"
   width="1490"
   version="1.1"
   id="svg2"
   sodipodi:docname="ops.gpencil.stroke_cutter.svg"
   inkscape:version="1.3.2 (091e20e, 2023-11-25, custom)"
   xml:space="preserve"
   xmlns:inkscape="http://www.inkscape.org/namespaces/inkscape"
   xmlns:sodipodi="http://sodipodi.sourceforge.net/DTD/sodipodi-0.dtd"
   xmlns="http://www.w3.org/2000/svg"
   xmlns:svg="http://www.w3.org/2000/svg"><defs
     id="defs2" /><sodipodi:namedview
     pagecolor="#303030"
     showgrid="true"
     id="namedview1"
     bordercolor="#000000"
     borderopacity="0.25"
     inkscape:showpageshadow="2"
     inkscape:pageopacity="0.0"
     inkscape:pagecheckerboard="0"
     inkscape:deskcolor="#d1d1d1"
     inkscape:zoom="0.49530704"
     inkscape:cx="695.52817"
     inkscape:cy="881.27154"
     inkscape:window-width="1920"
     inkscape:window-height="1009"
     inkscape:window-x="1912"
     inkscape:window-y="-8"
     inkscape:window-maximized="1"
     inkscape:current-layer="svg2"><inkscape:grid
       id="grid5"
       units="px"
       spacingx="50"
       spacingy="50"
       color="#4772b3"
       opacity="0.2"
       visible="true"
       originx="0"
       originy="0"
       empspacing="2" /></sodipodi:namedview><g
     id="g3"
     transform="matrix(1.198751,0,0,1.198751,-19.925935,-298.07563)"><g
       id="g2"
       style="fill:#e5e5e5;fill-opacity:1;stroke:none"
       inkscape:label="gray"><path
         id="path1"
         style="fill:#e5e5e5;fill-opacity:1;stroke:none;stroke-opacity:1"
         d="m 937.73242,331.5957 c -13.98275,-0.38765 -27.77927,1.8529 -39.80664,6.36524 -19.40112,6.78548 -38.55426,20.93892 -51.54492,39.42383 -12.99067,18.48465 -19.81936,41.30069 -19.63086,61.85351 -0.27349,20.5518 6.4608,43.39535 19.375,61.9336 12.91417,18.53823 32.0097,32.77109 51.38281,39.63671 l -12.77148,22.11914 -345.71875,17.9043 c -18.60961,0.74286 -39.02083,8.0695 -55.0918,20.85352 -16.0707,12.78436 -27.80189,31.02627 -32.71094,48.99218 H 834.07422 L 642.64453,982.24219 c 18.01341,4.73166 39.67629,3.69389 58.7832,-3.83203 19.10717,-7.52557 35.65932,-21.53819 45.60743,-37.28321 L 935.39844,650.67773 h 25.54101 c -3.74076,20.21002 -0.96093,43.86328 8.63672,64.31641 9.59742,20.45294 26.01422,37.70685 43.94923,47.74609 17.7049,10.43964 40.8771,15.93351 63.3808,13.92579 22.5033,-2.00775 44.337,-11.51886 59.9141,-24.92774 15.8745,-13.05598 28.9778,-32.94261 34.8027,-54.77148 5.8249,-21.82926 4.3727,-45.6011 -2.8867,-64.83008 -6.8258,-19.38696 -21.0197,-38.51029 -39.5312,-51.46289 -18.5117,-12.95224 -41.3422,-19.73282 -61.8946,-19.50195 h -78.20698 l 39.10348,-67.73047 c 10.4761,-17.68343 16.018,-40.84583 14.0567,-63.35352 -1.9614,-22.50767 -11.4257,-44.3603 -24.8028,-59.96484 -13.0225,-15.90145 -32.88215,-29.04426 -54.69918,-34.91407 -8.18147,-2.20134 -16.63965,-3.38068 -25.0293,-3.61328 z m -3.3164,57.94922 c 9.32438,-0.0213 18.45034,2.43866 25.28515,6.63086 10.25158,5.56099 19.75382,17.15634 23.28906,30.34961 3.53523,13.19355 1.10362,27.98424 -4.99414,37.92578 -5.56074,10.25156 -17.15608,19.75384 -30.34961,23.28906 -13.1933,3.53523 -27.98399,1.10362 -37.92578,-4.99414 -10.25157,-5.56074 -19.75381,-17.1563 -23.28906,-30.34961 -3.53523,-13.19352 -1.10361,-27.98424 4.99414,-37.92578 5.56075,-10.25156 17.15607,-19.75383 30.34961,-23.28906 4.12291,-1.10475 8.40227,-1.62704 12.64063,-1.63672 z m 132.89448,229.60547 c 11.6586,-0.30997 25.6858,4.98026 35.3438,14.63867 9.6584,9.65823 14.9485,23.68508 14.6387,35.34375 0.3098,11.65849 -4.9803,25.68357 -14.6387,35.3418 -9.658,9.65823 -23.6852,14.94864 -35.3438,14.63867 -11.6583,0.30997 -25.6839,-4.98044 -35.3417,-14.63867 -9.6584,-9.65823 -14.9484,-23.68331 -14.6387,-35.3418 -0.3097,-11.65867 4.9803,-25.68552 14.6387,-35.34375 9.6578,-9.65841 23.6834,-14.94864 35.3417,-14.63867 z" /><path
         d="M 440.9445,1159.0551 H 100.25579 v 69.9745 h 270.71447 v 270.7147 h 69.97424 z"
         stroke="#000000"
         stroke-width="0.584497"
         fill="none"
         id="path2"
         style="fill:#e5e5e5;fill-opacity:1;stroke:none;stroke-opacity:1" /></g><g
       id="g1"
       inkscape:label="red"
       style="fill:#f56b5b;fill-opacity:1"><path
         d="m 440.9445,896.75533 c 0.217,-8.16104 -3.48676,-17.97893 -10.24745,-24.73972 -6.76091,-6.76099 -16.57875,-10.4645 -24.73955,-10.2475 -8.16127,-0.217 -17.97912,3.48651 -24.73978,10.2475 -6.76093,6.76079 -10.46445,16.57868 -10.24746,24.73972 v 224.31337 h 69.97424 z"
         stroke="#000000"
         stroke-width="0.584497"
         fill="none"
         id="path3"
         style="fill:#f56b5b;fill-opacity:1;stroke:#ffffff;stroke-opacity:1" /><path
         d="m 703.24442,1159.0548 c 8.16103,-0.2167 17.97888,3.4869 24.73955,10.2476 6.76092,6.7608 10.46468,16.5789 10.24768,24.7396 0.217,8.161 -3.48676,17.9789 -10.24768,24.7399 -6.76067,6.7608 -16.57852,10.4643 -24.73955,10.2473 H 478.9307 v -69.9744 z"
         stroke="#000000"
         stroke-width="0.584497"
         fill="none"
         id="path4"
         style="fill:#f56b5b;fill-opacity:1;stroke:#ffffff;stroke-opacity:1" /></g></g></svg>
