<?xml version="1.0" encoding="UTF-8" standalone="no"?>
<svg
   height="1600"
   viewBox="0 0 1505 1600"
   width="1505"
   version="1.1"
   id="svg2"
   sodipodi:docname="ops.transform.edge_slide.svg"
   inkscape:version="1.3.2 (091e20e, 2023-11-25, custom)"
   xml:space="preserve"
   xmlns:inkscape="http://www.inkscape.org/namespaces/inkscape"
   xmlns:sodipodi="http://sodipodi.sourceforge.net/DTD/sodipodi-0.dtd"
   xmlns="http://www.w3.org/2000/svg"
   xmlns:svg="http://www.w3.org/2000/svg"><defs
     id="defs2" /><sodipodi:namedview
     pagecolor="#303030"
     showgrid="true"
     id="namedview1"
     bordercolor="#000000"
     borderopacity="0.25"
     inkscape:showpageshadow="2"
     inkscape:pageopacity="0.0"
     inkscape:pagecheckerboard="0"
     inkscape:deskcolor="#d1d1d1"
     inkscape:zoom="0.15338233"
     inkscape:cx="1062.7039"
     inkscape:cy="1082.2629"
     inkscape:window-width="1920"
     inkscape:window-height="1080"
     inkscape:window-x="1920"
     inkscape:window-y="0"
     inkscape:window-maximized="1"
     inkscape:current-layer="svg2"><inkscape:grid
       id="grid5"
       units="px"
       spacingx="50"
       spacingy="50"
       color="#4772b3"
       opacity="0.2"
       visible="true"
       originx="0"
       originy="0"
       empspacing="2" /></sodipodi:namedview><g
     id="g3"
     transform="matrix(1.1393009,0,0,1.1393009,-69.768055,19.360577)"><g
       id="g2"
       inkscape:label="purple"
       style="fill:#d9aff5;fill-opacity:1"
       transform="matrix(1.1428571,0,0,1.1428571,-114.28571,-114.28571)"><path
         d="m 472.54095,299.0381 v -49.4124 h -84.0782 V 162.67468 L 231.09611,274.33192 388.46275,385.98909 V 299.0381 Z"
         stroke-width="0.669008"
         id="path1"
         inkscape:label="arrow"
         style="fill-opacity:1" /><path
         d="m 540.50469,599.03239 232.4589,-232.45872 h -63.42 l -214.02,214.01992 v 657.07981 h 44.9811 z"
         stroke-width="0.669008"
         id="path5"
         inkscape:label="edge_slide"
         style="fill-opacity:1" /></g><g
       id="g1"
       inkscape:label="gray"
       style="fill:#e5e5e5;fill-opacity:1"
       transform="matrix(1.1428571,0,0,1.1428571,-114.28571,-114.28571)"><path
         d="m 399.50279,614.27739 h 45.73201 v -34.9855 h -31.24045 l 177.73294,-177.7327 h 18.5076 l 34.9855,-34.98552 h -67.9847 L 364.51756,579.29189 v 658.38151 h 81.02695 v -34.9835 h -46.04172 z"
         stroke-width="0.669008"
         id="path2"
         style="display:inline;fill:#e5e5e5;fill-opacity:1" /><path
         id="path3"
         style="display:inline;fill:#e5e5e5;fill-opacity:1"
         d="m 843.62891,366.57422 -34.98438,34.98437 H 1172.627 L 994.89258,579.29102 H 608.94922 v 34.98632 h 375.69726 v 588.41216 h -394.1621 v 34.9843 H 1016.4277 L 1232.3496,1021.75 V 366.57422 Z m 353.73629,59.72266 v 580.96092 l -177.7324,177.7344 V 604.03125 Z" /></g></g></svg>
