<?xml version="1.0" encoding="UTF-8" standalone="no"?>
<svg
   height="1600"
   viewBox="0 0 1600 1600"
   width="1600"
   version="1.1"
   id="svg2"
   sodipodi:docname="ops.sculpt.border_mask.svg"
   inkscape:version="1.3.2 (091e20e, 2023-11-25, custom)"
   xml:space="preserve"
   xmlns:inkscape="http://www.inkscape.org/namespaces/inkscape"
   xmlns:sodipodi="http://sodipodi.sourceforge.net/DTD/sodipodi-0.dtd"
   xmlns="http://www.w3.org/2000/svg"
   xmlns:svg="http://www.w3.org/2000/svg"><defs
     id="defs2" /><sodipodi:namedview
     pagecolor="#303030"
     showgrid="true"
     id="namedview1"
     bordercolor="#000000"
     borderopacity="0.25"
     inkscape:showpageshadow="2"
     inkscape:pageopacity="0.0"
     inkscape:pagecheckerboard="0"
     inkscape:deskcolor="#d1d1d1"
     inkscape:zoom="0.90509668"
     inkscape:cx="1397.6407"
     inkscape:cy="1403.7174"
     inkscape:window-width="1920"
     inkscape:window-height="1009"
     inkscape:window-x="1912"
     inkscape:window-y="-8"
     inkscape:window-maximized="1"
     inkscape:current-layer="layer2"
     showguides="true"><inkscape:grid
       id="grid5"
       units="px"
       spacingx="50"
       spacingy="50"
       color="#4772b3"
       opacity="0.2"
       visible="true"
       originx="0"
       originy="0"
       empspacing="2" /></sodipodi:namedview><g
     inkscape:groupmode="layer"
     id="layer2"
     inkscape:label="icon"><g
       id="g1"
       transform="matrix(1.1656898,0,0,1.1601623,-20.879299,-128.4202)"><g
         id="rect1"><path
           style="fill:#f9f9f9;stroke-miterlimit:1000"
           d="M 385.32227,196.93555 V 1121.7715 H 1304.998 V 196.93555 Z m 50,50 H 1254.998 V 1071.7715 H 435.32227 Z"
           id="path2" /></g><rect
         style="fill:none;fill-opacity:0.56124;stroke:#f9f9f9;stroke-width:50;stroke-linecap:butt;stroke-linejoin:miter;stroke-miterlimit:1000;stroke-dasharray:none"
         id="rect4"
         width="869.67578"
         height="874.83704"
         x="410.32181"
         y="221.93506" /><g
         id="g3"
         transform="matrix(0.97637794,0,0,0.97637794,2.4502354,33.168791)"><path
           style="opacity:1;fill:#9b9b9b;fill-opacity:1;stroke:none;stroke-width:54.2735;stroke-miterlimit:1000"
           d="M 335.32227,390.3457 A 561.26599,561.26599 0 0 0 103.72656,842.87891 561.26599,561.26599 0 0 0 664.99219,1404.1445 561.26599,561.26599 0 0 0 1118.1074,1171.7715 H 335.32227 Z"
           id="path3" /><path
           id="circle1"
           style="opacity:1;fill:#f9f9f9;fill-opacity:1;stroke:none;stroke-width:54.2735;stroke-miterlimit:1000"
           d="m 664.99219,281.61328 a 561.26599,561.26599 0 0 0 -254.66992,62.4668 v 752.69142 h 753.89253 a 561.26599,561.26599 0 0 0 62.043,-253.89259 561.26599,561.26599 0 0 0 -561.26561,-561.26563 z" /></g></g></g></svg>
