<?xml version="1.0" encoding="UTF-8" standalone="no"?>
<!DOCTYPE svg PUBLIC "-//W3C//DTD SVG 1.1//EN" "http://www.w3.org/Graphics/SVG/1.1/DTD/svg11.dtd">
<svg xmlns="http://www.w3.org/2000/svg" xmlns:xlink="http://www.w3.org/1999/xlink" xmlns:serif="http://www.serif.com/" width="100%" height="100%" viewBox="0 0 1600 1600" version="1.1" xml:space="preserve" style="fill-rule:evenodd;clip-rule:evenodd;stroke-linecap:round;stroke-linejoin:round;stroke-miterlimit:1.5;">
    <g id="Done">
    </g>
    <g id="knife_tool" transform="matrix(1.31257,0,0,1.31257,-249.165,-251.408)">
        <g id="Green">
            <g transform="matrix(0.9659,0,0,0.94885,30.3293,16.7418)">
                <circle cx="889.421" cy="327.307" r="83.319" style="fill:rgb(117,255,175);"/>
            </g>
            <g transform="matrix(1,0,0,1,3.55148,-3.99541)">
                <circle cx="547.19" cy="569.503" r="80.352" style="fill:rgb(117,255,175);"/>
            </g>
            <circle cx="866.478" cy="1279.72" r="80.69" style="fill:rgb(117,255,175);"/>
            <path d="M840.059,366.884L598.274,524.57" style="fill:none;stroke:rgb(117,255,175);stroke-width:28.35px;"/>
            <path d="M568.198,619.826L840.059,1228.3" style="fill:none;stroke:rgb(117,255,175);stroke-width:28.35px;"/>
        </g>
        <g id="White">
            <path d="M773.741,305.812L773.923,342.725L548.587,342.601L333.722,549.918L442.93,549.918L442.93,587.652L319.961,587.652L319.961,1264.21L754.572,1264.21L754.572,1300.61L281.338,1300.61L281.338,549.918L537.488,305.812" style="fill:rgb(229,229,229);"/>
            <path d="M1002.26,305.812L1002.03,342.601L1247.51,342.601L1027.94,549.54L664.271,549.54L664.271,587.498L1021.35,587.498L1021.35,1262.79L976.118,1262.79L976.118,1300.61L1060.22,1300.61L1312.97,1056.18L1312.97,305.812L1002.26,305.812ZM1273.4,375.72L1273.95,1049.66L1060.22,1256.09L1060.22,582.642L1273.4,375.72Z" style="fill:rgb(229,229,229);"/>
        </g>
    </g>
</svg>
