<?xml version="1.0" encoding="UTF-8" standalone="no"?>
<svg
   height="1600"
   viewBox="0 0 1600 1600"
   width="1600"
   version="1.1"
   id="svg2"
   sodipodi:docname="ops.sculpt.lasso_hide.svg"
   inkscape:version="1.3.2 (091e20e, 2023-11-25, custom)"
   xml:space="preserve"
   xmlns:inkscape="http://www.inkscape.org/namespaces/inkscape"
   xmlns:sodipodi="http://sodipodi.sourceforge.net/DTD/sodipodi-0.dtd"
   xmlns="http://www.w3.org/2000/svg"
   xmlns:svg="http://www.w3.org/2000/svg"><defs
     id="defs2" /><sodipodi:namedview
     pagecolor="#303030"
     showgrid="true"
     id="namedview1"
     bordercolor="#000000"
     borderopacity="0.25"
     inkscape:showpageshadow="2"
     inkscape:pageopacity="0.0"
     inkscape:pagecheckerboard="0"
     inkscape:deskcolor="#d1d1d1"
     inkscape:zoom="0.45254834"
     inkscape:cx="746.88154"
     inkscape:cy="575.62911"
     inkscape:window-width="1920"
     inkscape:window-height="1009"
     inkscape:window-x="1912"
     inkscape:window-y="-8"
     inkscape:window-maximized="1"
     inkscape:current-layer="layer2"
     showguides="true"><inkscape:grid
       id="grid5"
       units="px"
       spacingx="50"
       spacingy="50"
       color="#4772b3"
       opacity="0.2"
       visible="true"
       originx="0"
       originy="0"
       empspacing="2" /></sodipodi:namedview><g
     inkscape:groupmode="layer"
     id="layer2"
     inkscape:label="icon"><g
       id="g1"
       transform="matrix(1.1640998,0,0,1.1680348,-18.053143,-139.93361)"><path
         style="opacity:1;fill:#9b9b9b;fill-opacity:1;stroke:none;stroke-width:53.2051;stroke-miterlimit:1000"
         d="m 151.95312,629.36914 a 550.21747,550.21747 0 0 0 -48.22656,224.55859 550.21747,550.21747 0 0 0 550.2168,550.21677 550.21747,550.21747 0 0 0 236.42383,-54.0097 C 837.06605,1323.184 791.20359,1276.4621 766.85938,1212.3828 726.95325,1107.3411 694.99298,1039.7881 655.38867,994.05078 615.39707,947.86613 565.3424,915.80869 465.96289,882.78906 346.16927,842.98669 248.86967,781.47497 188.99805,698.375 173.53933,676.91879 161.10154,653.68074 151.95312,629.36914 Z"
         id="path8" /><path
         style="fill:none;stroke:#ffffff;stroke-width:50;stroke-miterlimit:1000;stroke-dasharray:none"
         d="m 492.76504,802.12426 c 215.23847,71.51468 271.93028,165.22005 353.55339,380.06994 81.6231,214.8499 444.13857,86.0619 422.05427,-92.8078 -22.0843,-178.86973 -22.099,-314.2162 4.0404,-505.53314 26.1394,-191.31694 -53.51,-343.67797 -414.7511,-351.18664 -361.24113,-7.50867 -541.96485,72.02375 -616.88227,211.56335 -74.91742,139.5396 36.74684,286.37961 251.98531,357.89429 z"
         id="path5" /></g></g></svg>
