<?xml version="1.0" encoding="UTF-8" standalone="no"?>
<svg
   viewBox="0 0 1600 1400"
   version="1.1"
   id="svg2"
   sodipodi:docname="ops.sequencer.blade.svg"
   width="1600"
   height="1400"
   inkscape:version="1.3.2 (091e20e, 2023-11-25, custom)"
   xmlns:inkscape="http://www.inkscape.org/namespaces/inkscape"
   xmlns:sodipodi="http://sodipodi.sourceforge.net/DTD/sodipodi-0.dtd"
   xmlns="http://www.w3.org/2000/svg"
   xmlns:svg="http://www.w3.org/2000/svg">
  <sodipodi:namedview
     id="namedview2"
     pagecolor="#494949"
     bordercolor="#000000"
     borderopacity="0.25"
     inkscape:showpageshadow="2"
     inkscape:pageopacity="0.0"
     inkscape:pagecheckerboard="0"
     inkscape:deskcolor="#d1d1d1"
     showgrid="true"
     inkscape:zoom="0.22016049"
     inkscape:cx="1467.1116"
     inkscape:cy="992.45784"
     inkscape:window-width="1920"
     inkscape:window-height="1009"
     inkscape:window-x="1912"
     inkscape:window-y="-8"
     inkscape:window-maximized="1"
     inkscape:current-layer="svg2">
    <inkscape:grid
       id="grid2"
       units="px"
       originx="0"
       originy="0"
       spacingx="50.000001"
       spacingy="50.000001"
       empcolor="#0099e5"
       empopacity="0.30196078"
       color="#0099e5"
       opacity="0.14901961"
       empspacing="2"
       dotted="false"
       gridanglex="30"
       gridanglez="30"
       visible="true" />
  </sodipodi:namedview>
  <defs
     id="defs1">
    <style
       id="style1">.cls-1{fill:#e5e5e5;}</style>
  </defs>
  <g
     id="Ebene_2"
     data-name="Ebene 2"
     transform="matrix(1.3052649,0,0,1.3052649,100.73005,100.19083)">
    <g
       id="Ebene_1-2"
       data-name="Ebene 1"
       style="fill:#ffffff">
      <path
         class="cls-1"
         d="M 0,381.64417 C 82.74847,344.2454 788.908,14.42945 819.3865,0 c 30.773,55.65644 66.99387,123.3865 19.05823,145.899 -56.98159,28.71166 -686.3455,323.9007 -727.278,342.45285 C 65.04294,508.30675 39.53374,491.411 0,381.64417 Z"
         id="path1"
         style="fill:#ffffff" />
      <path
         class="cls-1"
         d="m 987.97545,355.14108 c 0,0 -78.184,44.0614 -95.11657,3.53375 -28.63794,-58.08587 52.63806,-71.3374 59.19018,-80.09814 -7.8772,-18.07361 -66.3772,-142.72089 -66.3772,-142.72089 0,0 -13.00317,25.7024 -33.74548,44.73316 -13.61963,9.05517 -134.87115,64.71167 -134.87115,64.71167 0,0 -583.80371,272.09814 -601.69323,278.72393 -14.72394,1.91407 -30.58978,7.45282 -55.326,-3.73736 0,0 61.14191,124.47351 71.59589,140.81708 11.92639,-3.53376 69.34973,-45.20246 94.82208,4.71167 14.42944,51.23925 -35.19019,54.62579 -62.42944,71.85278 9.865,21.49689 86.87115,185.52148 86.87115,185.52148 L 1071.3129,542.135 Z m -370.8728,270.82492 -1.2e-4,6e-5 A 53.34031,53.34031 0 0 1 545.287,602.88125 L 496.12,507.13119 a 53.34026,53.34026 0 0 1 23.08484,-71.81555 l 6e-5,-6e-5 a 53.34033,53.34033 0 0 1 71.81556,23.08484 l 49.16705,95.75006 A 53.34036,53.34036 0 0 1 617.10265,625.966 Z"
         id="path2"
         style="fill:#ffffff" />
    </g>
  </g>
</svg>
