<?xml version="1.0" encoding="UTF-8" standalone="no"?>
<svg
   height="1475"
   viewBox="0 0 1600 1475"
   width="1600"
   version="1.1"
   id="svg2"
   sodipodi:docname="ops.curve.pen.svg"
   inkscape:version="1.3.2 (091e20e, 2023-11-25, custom)"
   xml:space="preserve"
   xmlns:inkscape="http://www.inkscape.org/namespaces/inkscape"
   xmlns:sodipodi="http://sodipodi.sourceforge.net/DTD/sodipodi-0.dtd"
   xmlns="http://www.w3.org/2000/svg"
   xmlns:svg="http://www.w3.org/2000/svg"><defs
     id="defs2"><inkscape:path-effect
       effect="offset"
       id="path-effect15"
       is_visible="true"
       lpeversion="1.2"
       linejoin_type="miter"
       unit="px"
       offset="30"
       miter_limit="4"
       attempt_force_join="false"
       update_on_knot_move="true" /><inkscape:path-effect
       effect="offset"
       id="path-effect4"
       is_visible="true"
       lpeversion="1.2"
       linejoin_type="miter"
       unit="px"
       offset="50"
       miter_limit="4"
       attempt_force_join="false"
       update_on_knot_move="true" /><inkscape:path-effect
       effect="offset"
       id="path-effect3"
       is_visible="true"
       lpeversion="1.2"
       linejoin_type="miter"
       unit="px"
       offset="40"
       miter_limit="4"
       attempt_force_join="false"
       update_on_knot_move="true" /></defs><sodipodi:namedview
     pagecolor="#303030"
     showgrid="true"
     id="namedview1"
     bordercolor="#000000"
     borderopacity="0.25"
     inkscape:showpageshadow="2"
     inkscape:pageopacity="0.0"
     inkscape:pagecheckerboard="0"
     inkscape:deskcolor="#d1d1d1"
     inkscape:zoom="0.26403493"
     inkscape:cx="888.14007"
     inkscape:cy="952.52549"
     inkscape:window-width="1920"
     inkscape:window-height="1009"
     inkscape:window-x="1912"
     inkscape:window-y="-8"
     inkscape:window-maximized="1"
     inkscape:current-layer="svg2"><inkscape:grid
       id="grid5"
       units="px"
       spacingx="50"
       spacingy="50"
       color="#4772b3"
       opacity="0.2"
       visible="true"
       originx="0"
       originy="0"
       empspacing="2" /></sodipodi:namedview><g
     id="g1"
     transform="matrix(1.1029828,0,0,1.1029828,-137.31022,-190.13151)"><g
       id="g15"
       inkscape:label="green"
       transform="matrix(1.1428571,0,0,1.1428571,-114.28571,-114.28571)"
       style="stroke:none"><path
         id="path1"
         style="color:#000000;fill:#75ffaf;stroke:none;-inkscape-stroke:none"
         d="m 350.12067,1064.5142 -59.74275,-61.9668 c -23.3918,83.7001 127.26086,207.9617 221.42286,224.0893 78.64716,13.4703 165.94688,-7.7327 254.44922,-72.5039 9.75636,-22.812 19.51311,-45.6236 29.26953,-68.4355 l -8.78711,-9.4668 c -98.7528,91.6673 -189.04923,117.4327 -266.99804,104.082 -77.94881,-13.3507 -147.62259,-79.9987 -169.61371,-115.7983 z"
         sodipodi:nodetypes="ccscccsc" /><path
         id="path13"
         style="color:#000000;fill:#75ffaf;stroke:none;-inkscape-stroke:none"
         d="m 1093.4062,900.21289 c -50.0579,0.0569 -98.41015,14.04936 -141.23823,35.36328 -3.79789,8.88004 -7.59468,17.76059 -11.39258,26.64063 l 14.38477,25.02539 c 51.48754,-29.59613 112.50954,-46.68949 171.59964,-37.50196 59.0899,9.18756 117.9199,43.49945 168.9199,124.10547 l 26.3301,-16.6602 c -0.5354,-10.2023 -1.0701,-20.4049 -1.6055,-30.6074 -54.1552,-74.8813 -120.1516,-112.975 -186.4238,-123.27927 -13.5973,-2.11415 -27.1461,-3.1012 -40.5743,-3.08594 z" /></g><g
       id="g3"
       inkscape:label="dark gray"
       style="display:inline;fill:none;fill-opacity:1;stroke:#b3b3b3;stroke-width:25;stroke-dasharray:none;stroke-opacity:1"
       transform="matrix(1.1428571,0,0,1.1428571,-114.28571,-114.28571)"><path
         d="m 1336.1066,782.17699 18.6111,354.44011"
         stroke="#000000"
         stroke-width="0.605978"
         fill="none"
         id="path3"
         style="fill:none;fill-opacity:1;stroke:#b3b3b3;stroke-width:25;stroke-dasharray:none;stroke-opacity:1" /><path
         d="M 750.74388,1298.4516 985.16238,750.37049"
         stroke="#000000"
         stroke-width="0.605978"
         fill="none"
         id="path6"
         style="fill:none;fill-opacity:1;stroke:#b3b3b3;stroke-width:25;stroke-dasharray:none;stroke-opacity:1" /></g><g
       id="g2"
       inkscape:label="light gray"
       style="display:inline;fill:#e5e5e5;fill-opacity:1;stroke:none"
       transform="matrix(1.1428571,0,0,1.1428571,-114.28571,-114.28571)"><path
         d="m 1030.1453,750.37029 c 0.2789,-10.4925 -4.4827,-23.1153 -13.1753,-31.8076 -8.6922,-8.6921 -21.31512,-13.4543 -31.80782,-13.1753 -10.4925,-0.279 -23.1152,4.4832 -31.8078,13.1753 -8.6922,8.6923 -13.454,21.3151 -13.1749,31.8076 -0.2791,10.4927 4.4827,23.1155 13.1749,31.8078 8.6926,8.6925 21.3153,13.4543 31.8078,13.1751 10.4927,0.2792 23.11562,-4.4826 31.80782,-13.1751 8.6926,-8.6923 13.4542,-21.3151 13.1753,-31.8078 z"
         stroke="#000000"
         stroke-width="0.605978"
         fill="none"
         id="path2"
         style="fill:#e5e5e5;fill-opacity:1;stroke:none" /><path
         d="m 795.72678,1298.4512 c 0.2787,-10.4925 -4.4829,-23.1153 -13.1751,-31.8078 -8.6924,-8.6923 -21.3153,-13.4538 -31.8078,-13.1749 -10.4925,-0.2789 -23.1154,4.4826 -31.8079,13.1749 -8.6922,8.6925 -13.4542,21.3153 -13.1751,31.8078 -0.2791,10.4929 4.4829,23.1158 13.1751,31.8079 8.6925,8.6923 21.3154,13.4542 31.8079,13.1752 10.4925,0.279 23.1154,-4.4829 31.8078,-13.1752 8.6922,-8.6921 13.4538,-21.315 13.1751,-31.8079 z"
         stroke="#000000"
         stroke-width="0.605978"
         fill="none"
         id="path4"
         style="fill:#e5e5e5;fill-opacity:1;stroke:none" /><path
         d="m 1399.699,1136.6171 c 0.2803,-10.4925 -4.4817,-23.1155 -13.175,-31.8078 -8.6907,-8.6923 -21.3153,-13.4543 -31.8063,-13.1751 -10.4936,-0.2792 -23.1155,4.4828 -31.8088,13.1751 -8.6907,8.6923 -13.4528,21.3153 -13.1749,31.8078 -0.2779,10.4925 4.4842,23.1155 13.1749,31.8078 8.6933,8.6923 21.3152,13.4541 31.8088,13.1753 10.491,0.2788 23.1156,-4.483 31.8063,-13.1753 8.6933,-8.6923 13.4553,-21.3153 13.175,-31.8078 z"
         stroke="#000000"
         stroke-width="0.605978"
         fill="none"
         id="path5"
         style="fill:#e5e5e5;fill-opacity:1;stroke:none" /><path
         d="m 485.7614,590.51929 185.31908,-84.4466 173.1001,173.1007 -84.446,185.319 c -140.8321,31.3205 -277.53378,97.3573 -389.60766,188.20931 L 342.6751,1025.25 596.40518,771.51929 c 12.8375,6.4709 33.0185,0.4241 40.1827,-12.0395 8.8248,-11.3481 6.7836,-32.3165 -4.0641,-41.7497 -9.4333,-10.8482 -30.4017,-12.8889 -41.7501,-4.0642 -12.4632,7.1642 -18.5099,27.3452 -12.0393,40.1825 L 325.00402,1007.579 297.5522,980.12669 c 90.852,-112.0735 156.889,-248.7753 188.2092,-389.6074 z"
         stroke="#000000"
         stroke-width="0.605978"
         fill="none"
         id="path7"
         style="fill:#e5e5e5;fill-opacity:1;stroke:none" /><path
         d="m 865.38588,657.96809 -173.1002,-173.1003 116.318,-155.0822 211.86452,211.8646 z"
         stroke="#000000"
         stroke-width="0.605978"
         fill="none"
         id="path8"
         style="fill:#e5e5e5;fill-opacity:1;stroke:none" /><path
         d="m 1381.0904,782.17679 c 0.2778,-10.4923 -4.4842,-23.1151 -13.1749,-31.8076 -8.6933,-8.6921 -21.3153,-13.4543 -31.8089,-13.1751 -10.491,-0.2792 -23.1155,4.483 -31.8063,13.1751 -8.6932,8.6925 -13.4552,21.3153 -13.1775,31.8076 -0.2777,10.4929 4.4843,23.1157 13.1775,31.8078 8.6908,8.6927 21.3153,13.4543 31.8063,13.1755 10.4936,0.2788 23.1156,-4.4828 31.8089,-13.1755 8.6907,-8.6921 13.4527,-21.3149 13.1749,-31.8078 z"
         stroke="#000000"
         stroke-width="0.605978"
         fill="none"
         id="path10"
         style="fill:#e5e5e5;fill-opacity:1;stroke:none" /><path
         d="m 912.93618,1024.411 c 0.2788,-10.4927 -4.483,-23.1154 -13.1754,-31.80781 -8.6924,-8.6923 -21.3151,-13.4543 -31.8076,-13.1751 -10.4928,-0.2792 -23.1156,4.4828 -31.8078,13.1751 -8.6922,8.69241 -13.4542,21.31511 -13.1753,31.80781 -0.2789,10.4923 4.4831,23.1155 13.1753,31.8078 8.6922,8.6925 21.315,13.4541 31.8078,13.1751 10.4925,0.279 23.1152,-4.4826 31.8076,-13.1751 8.6924,-8.6923 13.4542,-21.3155 13.1754,-31.8078 z"
         stroke="#000000"
         stroke-width="0.605978"
         fill="none"
         id="path9"
         style="fill:#e5e5e5;fill-opacity:1;stroke:none" /></g></g></svg>
