<?xml version="1.0" encoding="UTF-8" standalone="no"?>
<svg
   height="1600"
   viewBox="0 0 1600 1600"
   width="1600"
   version="1.1"
   id="svg2"
   sodipodi:docname="ops.sculpt.mesh_filter.svg"
   inkscape:version="1.3.2 (091e20e, 2023-11-25, custom)"
   xml:space="preserve"
   xmlns:inkscape="http://www.inkscape.org/namespaces/inkscape"
   xmlns:sodipodi="http://sodipodi.sourceforge.net/DTD/sodipodi-0.dtd"
   xmlns="http://www.w3.org/2000/svg"
   xmlns:svg="http://www.w3.org/2000/svg"><defs
     id="defs2" /><sodipodi:namedview
     pagecolor="#303030"
     showgrid="true"
     id="namedview1"
     bordercolor="#000000"
     borderopacity="0.25"
     inkscape:showpageshadow="2"
     inkscape:pageopacity="0.0"
     inkscape:pagecheckerboard="0"
     inkscape:deskcolor="#d1d1d1"
     inkscape:zoom="0.64"
     inkscape:cx="1198.4375"
     inkscape:cy="1285.1563"
     inkscape:window-width="1920"
     inkscape:window-height="1009"
     inkscape:window-x="1912"
     inkscape:window-y="-8"
     inkscape:window-maximized="1"
     inkscape:current-layer="layer2"
     showguides="true"><inkscape:grid
       id="grid5"
       units="px"
       spacingx="50"
       spacingy="50"
       color="#4772b3"
       opacity="0.2"
       visible="true"
       originx="0"
       originy="0"
       empspacing="2" /></sodipodi:namedview><g
     inkscape:groupmode="layer"
     id="layer2"
     inkscape:label="icon"><g
       id="g1"
       transform="matrix(1.1311885,0,0,1.1198917,-18.547052,-71.925315)"><path
         style="opacity:1;fill:#9b9b9b;fill-opacity:1;stroke:none;stroke-width:53.2051;stroke-miterlimit:1000"
         d="m 335.32227,406.88867 a 550.21747,550.21747 0 0 0 -231.59571,447.03906 550.21747,550.21747 0 0 0 550.2168,550.21677 550.21747,550.21747 0 0 0 447.62114,-232.373 H 335.32227 Z"
         id="path7" /><path
         style="fill:#f9f9f9;stroke-miterlimit:1000"
         d="m 906.00586,196.93555 c 5.65255,15.70699 8.87975,32.59418 9.42969,50 H 1254.998 v 364.13476 c 17.4744,0.23456 34.4697,3.18857 50,8.91602 V 196.93555 Z"
         id="path8"
         sodipodi:nodetypes="ccccccc" /><path
         id="path5"
         style="fill:#8acbff;stroke-miterlimit:1000"
         d="m 774.26562,153.02344 c -28.34679,-0.32823 -61.45229,9.56129 -96.48828,31.22265 l -77.25586,53.73633 c -0.78186,0.54385 -1.45686,0.97976 -2.23437,1.51953 -26.91255,18.6521 -51.26148,34.90157 -73.66406,48.57227 -0.82378,0.5028 -1.73478,1.12826 -2.55469,1.625 l -11.94336,7.23633 h -0.44141 c -8.09345,4.73372 -16.25269,9.3085 -24.36132,13.69922 v 711.13673 h 748.32033 c 8.9756,-14.4176 17.3752,-27.85022 28.6484,-46.19923 10.1759,-16.56197 20.9206,-34.11517 34.584,-56.82227 64.3432,-106.93122 70.5632,-261.79563 -47.6562,-257.8125 -118.2196,3.98313 -130.0133,-58.52265 -63.2813,-178.125 C 1252.6695,363.21015 1173.0182,242.8845 1025,317.96875 876.98182,393.053 864.79608,351.40516 865.625,253.125 866.14308,191.6999 829.03092,153.65756 774.26562,153.02344 Z" /><path
         style="fill:#f9f9f9;stroke-miterlimit:1000"
         d="m 385.32227,196.93555 v 924.83595 h 845.08393 74.5918 v -82.1563 -38.0371 c -17.1802,27.9663 -30.8298,49.8481 -43.5273,70.1934 H 435.32227 V 246.93555 h 60.83789 c 22.65561,-13.7257 47.60449,-30.38059 75.81054,-50 z"
         id="path14" /></g></g></svg>
