<?xml version="1.0" encoding="UTF-8" standalone="no"?>
<svg
   height="1600"
   viewBox="0 0 1600 1600"
   width="1600"
   version="1.1"
   id="svg2"
   sodipodi:docname="ops.transform.bone_envelope.svg"
   inkscape:version="1.3.2 (091e20e, 2023-11-25, custom)"
   xml:space="preserve"
   xmlns:inkscape="http://www.inkscape.org/namespaces/inkscape"
   xmlns:sodipodi="http://sodipodi.sourceforge.net/DTD/sodipodi-0.dtd"
   xmlns="http://www.w3.org/2000/svg"
   xmlns:svg="http://www.w3.org/2000/svg"><defs
     id="defs2" /><sodipodi:namedview
     pagecolor="#303030"
     showgrid="true"
     id="namedview1"
     bordercolor="#000000"
     borderopacity="0.25"
     inkscape:showpageshadow="2"
     inkscape:pageopacity="0.0"
     inkscape:pagecheckerboard="0"
     inkscape:deskcolor="#d1d1d1"
     inkscape:zoom="0.29271244"
     inkscape:cx="1337.4901"
     inkscape:cy="1006.1069"
     inkscape:window-width="1920"
     inkscape:window-height="1009"
     inkscape:window-x="1912"
     inkscape:window-y="-8"
     inkscape:window-maximized="1"
     inkscape:current-layer="svg2"><inkscape:grid
       id="grid5"
       units="px"
       spacingx="50"
       spacingy="50"
       color="#4772b3"
       opacity="0.2"
       visible="true"
       originx="0"
       originy="0"
       empspacing="2" /></sodipodi:namedview><g
     id="g3"
     transform="matrix(1.1253183,0,0,1.1243329,-99.639888,-99.468357)"><g
       id="g2"
       inkscape:label="purple"
       style="fill:#d9aff5;fill-opacity:1;stroke:none"
       transform="matrix(1.1428571,0,0,1.1428571,-114.28571,-114.28571)"><path
         d="m 1065.5666,1065.5667 107.9631,73.0168 61.4948,-61.496 32.3293,190.2661 -190.2665,-32.3276 61.4956,-61.4965 z"
         stroke="#000000"
         stroke-width="0.355608"
         fill="none"
         id="path1"
         style="fill:#d9aff5;fill-opacity:1;stroke:none;stroke-width:0.356;stroke-dasharray:none" /><path
         id="path2"
         style="fill:#d9aff5;fill-opacity:1;stroke:none;stroke-width:0.356;stroke-dasharray:none"
         d="M 876.59961,335.99219 335.99219,876.59961 c -106.69857,106.42626 -106.70915,280.97279 0,387.41019 106.43239,106.7023 280.97967,106.6984 387.4082,0 L 1264.0078,723.40039 c 100.3798,-100.11873 112.4551,-275.2455 0,-387.4082 -106.8896,-107.16256 -281.51142,-106.16713 -387.40819,0 z m 366.20119,21.20703 c 100.1549,99.89885 89.3714,255.85007 0,344.99219 L 702.19141,1242.8008 c -94.77778,95.021 -250.2147,95.0187 -344.99024,0 -95.01976,-94.7792 -95.02508,-250.20924 0,-344.99221 L 897.80859,357.19922 c 97.31428,-97.56195 253.35401,-91.8713 344.99221,0 z"
         sodipodi:nodetypes="cccccccccccccc" /><path
         d="M 534.43399,534.43378 461.41756,426.47083 522.91317,364.9752 332.64741,332.6473 364.97515,522.91325 426.47091,461.41748 Z"
         stroke="#000000"
         stroke-width="0.355608"
         fill="none"
         id="path3"
         style="fill:#d9aff5;fill-opacity:1;stroke:none;stroke-width:0.356;stroke-dasharray:none" /></g><g
       id="g1"
       inkscape:label="grey"
       transform="matrix(1.1428571,0,0,1.1428571,-114.28571,-114.28571)"
       style="stroke:none"><path
         d="m 1034.0473,583.62699 c 26.4186,18.58886 66.4384,12.74159 86.4331,-12.63343 21.0556,-24.50047 19.0988,-64.89861 -4.2242,-87.24936 -22.3518,-23.32402 -62.75,-25.27906 -87.2494,-4.22418 -25.3741,19.9939 -31.22298,60.0144 -12.6333,86.43309 L 565.95317,1016.3737 c -26.41767,-18.58895 -66.43808,-12.7422 -86.43322,12.6331 -21.05562,24.5009 -19.09863,64.8988 4.22432,87.2494 22.34632,23.3197 62.74425,25.2833 87.24935,4.2244 25.37402,-19.9939 31.22311,-60.0147 12.63327,-86.4332 z"
         stroke="#000000"
         stroke-width="0.355608"
         fill="none"
         id="path5"
         style="fill:#e5e5e5;fill-opacity:1;stroke:none"
         sodipodi:nodetypes="ccccccccccc" /></g></g></svg>
