<?xml version="1.0" encoding="UTF-8" standalone="no"?>
<svg
   height="1600"
   viewBox="0 0 1600 1600"
   width="1600"
   version="1.1"
   id="svg2"
   sodipodi:docname="ops.curve.radius.svg"
   inkscape:version="1.3.2 (091e20e, 2023-11-25, custom)"
   xml:space="preserve"
   xmlns:inkscape="http://www.inkscape.org/namespaces/inkscape"
   xmlns:sodipodi="http://sodipodi.sourceforge.net/DTD/sodipodi-0.dtd"
   xmlns="http://www.w3.org/2000/svg"
   xmlns:svg="http://www.w3.org/2000/svg"><defs
     id="defs2" /><sodipodi:namedview
     pagecolor="#303030"
     showgrid="true"
     id="namedview1"
     bordercolor="#000000"
     borderopacity="0.25"
     inkscape:showpageshadow="2"
     inkscape:pageopacity="0.0"
     inkscape:pagecheckerboard="0"
     inkscape:deskcolor="#d1d1d1"
     inkscape:zoom="0.38192263"
     inkscape:cx="1093.1534"
     inkscape:cy="839.17521"
     inkscape:window-width="1920"
     inkscape:window-height="1009"
     inkscape:window-x="1912"
     inkscape:window-y="-8"
     inkscape:window-maximized="1"
     inkscape:current-layer="svg2"><inkscape:grid
       id="grid5"
       units="px"
       spacingx="50"
       spacingy="50"
       color="#4772b3"
       opacity="0.2"
       visible="true"
       originx="0"
       originy="0"
       empspacing="2" /></sodipodi:namedview><g
     id="g3"
     transform="matrix(1.3312756,0,0,1.3312756,-264.93637,-264.93673)"><g
       id="g2"
       inkscape:label="purple"
       style="fill:#d9aff5;fill-opacity:1;stroke:none"
       transform="matrix(1.1428571,0,0,1.1428571,-114.28571,-114.28571)"><path
         d="M 455.7546,1108.9132 C 579.4023,985.26524 508.888,762.14404 635.5151,635.51664 c 126.626,-126.6275 349.7453,-56.113 473.3962,-179.761 l 35.3315,35.3325 c -123.6468,123.6477 -53.1344,346.7685 -179.7612,473.3963 -126.6269,126.62736 -349.7471,56.11296 -473.3948,179.76096 z"
         stroke="#000000"
         stroke-width="1.02907"
         fill="none"
         id="path6"
         style="fill:#d9aff5;fill-opacity:1;stroke:none" /><path
         d="m 1051.3265,1086.2599 34.9325,-34.9323 59.4373,59.4392 61.4698,-61.4701 32.3128,190.186 -190.1847,-32.3145 61.4694,-61.4698 z"
         stroke="#000000"
         stroke-width="1.02907"
         fill="none"
         id="path7"
         style="fill:#d9aff5;fill-opacity:1;stroke:none" /><path
         d="m 513.7404,548.67374 34.9321,-34.9319 -59.439,-59.4389 61.4698,-61.4698 -190.1857,-32.3145 32.314,190.186 61.4698,-61.4701 z"
         stroke="#000000"
         stroke-width="1.02907"
         fill="none"
         id="path8"
         style="fill:#d9aff5;fill-opacity:1;stroke:none" /></g><g
       id="g1"
       inkscape:label="gray"
       style="fill:#e5e5e5;fill-opacity:1;stroke:none"
       transform="matrix(1.1428571,0,0,1.1428571,-114.28571,-114.28571)"><path
         d="m 1252.7194,382.61114 c 9.5746,-7.8117 9.5746,-27.5204 0,-35.3322 -7.8122,-9.5742 -27.5189,-9.5742 -35.3314,0 l -372.0551,372.0539 35.3356,35.3325 z"
         stroke="#000000"
         stroke-width="1.02907"
         fill="none"
         id="path1"
         style="fill:#e5e5e5;fill-opacity:1;stroke:none" /><path
         d="m 382.6104,1252.7221 c -7.8112,9.5742 -27.5211,9.5742 -35.3324,0 -9.5742,-7.8115 -9.5742,-27.5208 0,-35.3326 l 372.0539,-372.05346 35.3314,35.3325 z"
         stroke="#000000"
         stroke-width="1.02907"
         fill="none"
         id="path2"
         style="fill:#e5e5e5;fill-opacity:1;stroke:none" /><path
         d="m 847.7512,847.75114 c 11.4309,-10.842 19.7751,-29.2962 19.7751,-47.7508 0,-18.4539 -8.3442,-36.9081 -19.7751,-47.7507 -10.8438,-11.4343 -29.2986,-19.7789 -47.7533,-19.7789 -18.4544,0 -36.9091,8.3446 -47.7488,19.7789 -11.4354,10.8426 -19.7793,29.2968 -19.7793,47.7507 0,18.4546 8.3439,36.9088 19.7793,47.7508 10.8397,11.4343 29.2944,19.7795 47.7488,19.7795 18.4547,0 36.9095,-8.3452 47.7533,-19.7795 z"
         stroke="#000000"
         stroke-width="1.02907"
         fill="none"
         id="path3"
         style="fill:#e5e5e5;fill-opacity:1;stroke:none" /></g></g></svg>
