<?xml version="1.0" encoding="UTF-8" standalone="no"?>
<!DOCTYPE svg PUBLIC "-//W3C//DTD SVG 1.1//EN" "http://www.w3.org/Graphics/SVG/1.1/DTD/svg11.dtd">
<svg xmlns="http://www.w3.org/2000/svg" xmlns:xlink="http://www.w3.org/1999/xlink" xmlns:serif="http://www.serif.com/" width="100%" height="100%" viewBox="0 0 1600 1600" version="1.1" xml:space="preserve" style="fill-rule:evenodd;clip-rule:evenodd;stroke-linejoin:round;stroke-miterlimit:2;">
    <g id="rip_edge">
        <g id="Pink">
            <circle cx="174.138" cy="885.972" r="83.616" style="fill:rgb(217,175,245);"/>
            <path d="M232.789,784.703L265.64,810.895L429.008,614.676L382.839,614.676L232.789,784.703Z" style="fill:rgb(217,175,245);"/>
            <path d="M246.072,975.131L205.674,994.22L408.108,1255.25L455.609,1255.25L246.072,975.131Z" style="fill:rgb(217,175,245);"/>
        </g>
        <g id="White">
            <path d="M429.008,1296.48L1198.44,1295.06L1198.44,588.441L389.344,588.441L692.783,294.378L1509.62,294.378L1509.62,1072.86L1238.01,1333.4L442.759,1333.4L429.008,1296.48ZM1238.01,581.467L1238.01,1288.78L1467.9,1071.71L1467.9,366.531L1238.01,581.467ZM1434.09,332.437L709.303,332.437L478.599,548.651L1211.34,548.651L1434.09,332.437Z" style="fill:rgb(229,229,229);"/>
        </g>
    </g>
</svg>
