<?xml version="1.0" encoding="UTF-8" standalone="no"?>
<svg
   viewBox="0 0 1600 1600"
   version="1.1"
   id="svg4"
   sodipodi:docname="ops.sculpt.lasso_face_set.svg"
   inkscape:version="1.3.2 (091e20e, 2023-11-25, custom)"
   width="1600"
   height="1600"
   xmlns:inkscape="http://www.inkscape.org/namespaces/inkscape"
   xmlns:sodipodi="http://sodipodi.sourceforge.net/DTD/sodipodi-0.dtd"
   xmlns="http://www.w3.org/2000/svg"
   xmlns:svg="http://www.w3.org/2000/svg">
  <sodipodi:namedview
     id="namedview4"
     pagecolor="#535353"
     bordercolor="#000000"
     borderopacity="0.25"
     inkscape:showpageshadow="2"
     inkscape:pageopacity="0.0"
     inkscape:pagecheckerboard="0"
     inkscape:deskcolor="#d1d1d1"
     inkscape:zoom="0.20757327"
     inkscape:cx="1438.0464"
     inkscape:cy="705.77487"
     inkscape:window-width="1920"
     inkscape:window-height="1009"
     inkscape:window-x="1912"
     inkscape:window-y="-8"
     inkscape:window-maximized="1"
     inkscape:current-layer="svg4"
     showgrid="true">
    <inkscape:grid
       id="grid8"
       units="px"
       originx="0"
       originy="0"
       spacingx="50"
       spacingy="50"
       empcolor="#0099e5"
       empopacity="0.30196078"
       color="#0099e5"
       opacity="0.14901961"
       empspacing="2"
       dotted="false"
       gridanglex="30"
       gridanglez="30"
       visible="true" />
  </sodipodi:namedview>
  <defs
     id="defs1">
    <style
       id="style1">.cls-1{fill:none;stroke:#fff;stroke-miterlimit:10;stroke-width:35px;}.cls-2{fill:#fce062;}.cls-3{fill:#ed6c5e;}.cls-4{fill:#90c99a;}</style>
  </defs>
  <g
     id="Ebene_2"
     data-name="Ebene 2"
     transform="matrix(1.4333748,0,0,1.4290847,100.38962,100.6218)">
    <g
       id="Ebene_3"
       data-name="Ebene 3">
      <g
         id="g7"
         style="fill:#ffffff">
        <path
           style="color:#000000;fill:#ffffff;stroke-miterlimit:10;-inkscape-stroke:none"
           d="M 540.05078,-0.04882812 C 509.95035,0.22446552 477.72048,1.5969875 444.65234,4.6601562 312.37981,16.912831 166.30322,56.008149 104.48242,169.94531 l -0.5664,1.04297 -0.41993,1.10938 c -19.612162,51.84433 -27.401927,93.4988 -24.738278,128.92187 2.66365,35.42307 16.491575,64.19157 37.134768,87.09766 41.28638,45.81218 106.45115,71.06863 174.84765,110.15234 l 0.97657,0.55859 1.03711,0.42774 c 56.46835,23.27181 103.27715,32.06288 143.02343,51.97461 39.74629,19.91173 74.55312,50.17345 111.1211,121.38476 37.34659,72.72757 60.51673,132.95082 92.18945,176.47852 31.67272,43.5277 75.91332,68.68129 141.58203,62.87305 l 0.12695,-0.01 0.12891,-0.0137 c 51.33239,-5.29806 86.59439,-24.39499 111.45313,-53.81836 24.85873,-29.42337 40.03184,-67.11542 59.19726,-111.72461 l 0.44922,-1.04883 0.31055,-1.09961 c 14.4203,-51.02567 10.24797,-122.16232 6.84375,-195.28515 -3.40422,-73.12283 -6.38339,-147.88179 5.23047,-198.52344 l 0.14062,-0.61328 0.0977,-0.62305 C 969.27369,319.32079 1001.5193,209.42499 934.16211,121.2832 895.16462,70.252112 818.50418,33.64064 719.33984,11.46875 l -0.3457,-0.07617 -0.34961,-0.06445 C 701.49326,8.2169235 630.35208,-0.86870905 540.05078,-0.04882812 Z m 0.90625,35.16992212 c 88.38358,-0.533756 159.36951,8.507334 171.11328,10.597656 94.46192,21.176124 164.31784,57.60707 194.28125,96.81641 55.65007,72.82217 29.71855,162.48932 23.70899,201.32031 l 0.23632,-1.23633 c -13.49507,58.84459 -9.48254,134.84941 -6.07812,207.97656 3.38364,72.68082 5.79785,142.80358 -5.38477,183.33203 -18.96883,44.15455 -33.75317,78.60416 -53.18945,101.60938 -19.62044,23.2232 -43.30228,36.91341 -88.1582,41.57031 C 720.87276,882.09152 694.55778,865.83841 667.38867,828.5 640.20255,791.13821 616.22028,730.99124 578.0332,656.62695 539.06752,580.74642 497.01546,542.76192 451.45508,519.9375 406.13242,497.23217 359.42787,488.74478 306.9082,467.21289 236.66166,427.17813 174.46126,400.82439 141.89258,364.68555 c -16.37825,-18.17363 -26.1131,-38.10679 -28.23242,-66.29102 -2.10168,-27.94958 4.01888,-64.46616 22.14843,-112.72851 52.51435,-95.381125 184.88714,-134.372884 312.07227,-146.154301 31.90573,-2.955493 63.45935,-4.211767 93.07617,-4.390625 z"
           id="path1" />
      </g>
      <g
         id="g6"
         style="fill:#fce062;fill-opacity:1">
        <path
           class="cls-2"
           d="m 527.313,516.20437 c 0,0 75.57,59.6319 121.28775,200.09815 45.71775,140.46625 136.4908,113.96319 136.4908,113.96319 0,0 92.76073,-96.73619 95.411,-176.24539 2.65027,-79.5092 5.07975,-244.26994 -3.97546,-280.93252 C 867.47188,336.42522 761.23877,108.05713 531.98723,89.505 c -240.957,-27.82822 -330.62576,88.78527 -330.62576,88.78527 0,0 -111.97547,135.16563 41.07975,210.03679 153.05522,74.87116 236.4747,73.90594 284.87178,127.87731 z"
           id="path2"
           style="fill:#fce062;fill-opacity:1" />
      </g>
      <g
         id="g5"
         style="fill:#ed6c5e;fill-opacity:1">
        <path
           class="cls-3"
           d="m 111.1038,826.732 c 0,0 244.71165,-27.97546 300.66257,-229.69325 73.25154,45.20245 84.07362,96.66258 105.7178,133.98773 16.84631,30.30069 60.66257,151.362 133.69325,204.3681 -45.63779,19.7476 -123.86444,59.19018 -281.24117,37.39877 C 270.81805,955.26365 174.71116,897.99578 111.1038,826.732 Z"
           id="path3"
           style="fill:#ed6c5e;fill-opacity:1" />
      </g>
      <g
         id="g4"
         style="fill:#90c99a;fill-opacity:1">
        <path
           class="cls-4"
           d="m 76.06085,781.67676 c 0,0 119.84235,-6.99521 205.16065,-69.14228 42.122,-30.68226 96.67984,-84.57551 82.54487,-138.17061 C 95.757,500.44976 34.2449,350.56019 34.2449,350.56019 c 0,0 -100.71166,229.98773 43.28834,431.11657"
           id="path4"
           style="fill:#90c99a;fill-opacity:1" />
      </g>
    </g>
  </g>
</svg>
