<?xml version="1.0" encoding="UTF-8" standalone="no"?>
<svg
   height="1600"
   viewBox="0 0 1600 1600"
   width="1600"
   version="1.1"
   id="svg2"
   sodipodi:docname="ops.paint.weight_sample.svg"
   inkscape:version="1.3.2 (091e20e, 2023-11-25, custom)"
   xml:space="preserve"
   xmlns:inkscape="http://www.inkscape.org/namespaces/inkscape"
   xmlns:sodipodi="http://sodipodi.sourceforge.net/DTD/sodipodi-0.dtd"
   xmlns="http://www.w3.org/2000/svg"
   xmlns:svg="http://www.w3.org/2000/svg"><defs
     id="defs2" /><sodipodi:namedview
     pagecolor="#303030"
     showgrid="true"
     id="namedview1"
     bordercolor="#000000"
     borderopacity="0.25"
     inkscape:showpageshadow="2"
     inkscape:pageopacity="0.0"
     inkscape:pagecheckerboard="0"
     inkscape:deskcolor="#d1d1d1"
     inkscape:zoom="0.2540625"
     inkscape:cx="391.63592"
     inkscape:cy="1186.7159"
     inkscape:window-width="1920"
     inkscape:window-height="1009"
     inkscape:window-x="1912"
     inkscape:window-y="-8"
     inkscape:window-maximized="1"
     inkscape:current-layer="svg2"><inkscape:grid
       id="grid5"
       units="px"
       spacingx="50"
       spacingy="50"
       color="#4772b3"
       opacity="0.2"
       visible="true"
       originx="0"
       originy="0"
       empspacing="2" /></sodipodi:namedview><g
     id="g4"
     transform="matrix(0.64614833,0.64614833,-0.64614833,0.64614833,853.55119,-309.38949)"
     style="fill:#f9f9f9"><path
       style="fill:#f9f9f9;fill-rule:evenodd;stroke:none;stroke-width:50;stroke-dasharray:none"
       d="m 586.46986,420.1722 c -95.05761,1.0608 -97.28153,-180.41497 10e-6,-181.51485 12.7471,0.67883 49.20049,-0.98401 49.20049,-0.98401 0,0 2.31996,-121.64018 1.96802,-221.929183 5.55212,-158.345587 321.29097,-163.812307 326.69126,0.98401 0.48024,92.963603 0.98401,221.690423 0.98401,221.690423 0,0 22.05478,0.94188 52.15255,0 92.0904,2.01015 94.8058,179.47072 -2.9521,180.7696 -54.46143,1.29887 -385.06074,-0.365 -428.04424,0.98401 z"
       id="path2"
       sodipodi:nodetypes="ccccccccc" /><path
       style="fill:#f9f9f9;fill-opacity:1;fill-rule:evenodd;stroke:none;stroke-width:50;stroke-dasharray:none"
       d="m 624.70905,452.27002 h 54.9682 l 1.3916,697.19168 117.59021,338.1588 125.9398,-338.1588 V 452.27002 h 56.3598 v 697.88748 l -164.9046,422.3506 h -33.3984 L 626.10065,1148.7659 Z"
       id="path3"
       sodipodi:nodetypes="cccccccccccc" /><path
       style="fill:#f9f9f9;fill-opacity:1;fill-rule:evenodd;stroke:none;stroke-width:50;stroke-dasharray:none"
       d="M 713.40713,876.75277 886.18528,702.60351 886.59287,1133.5793 800,1394.3419 713.40713,1137.5154 Z"
       id="path4"
       sodipodi:nodetypes="cccccc" /></g><g
     id="g6"><path
       style="fill:#ffffff;fill-opacity:1;fill-rule:evenodd;stroke:none;stroke-width:50;stroke-dasharray:none;opacity:0.45"
       d="m 397.99762,992.21084 c 0,0 -72.5521,151.40656 -98.80361,221.26446 -8.68509,23.1119 1.9398,77.0606 54.27241,66.7968 70.34893,-31.8146 278.03504,-123.188 372.94881,-161.4257 85.17257,-31.2797 101.0081,83.7628 101.58681,141.9433 1.29317,130.0082 -187.77972,250.1744 -325.63441,237.9636 -97.62345,-8.6472 -329.15089,1.1219 -397.99763,-264.404 -21.485751,-82.8656 66.3757,-167.2848 134.98521,-218.4813 153.18748,-114.3086 158.64241,-23.65716 158.64241,-23.65716 z"
       id="path5"
       sodipodi:nodetypes="csccssssc" /></g></svg>
