<?xml version="1.0" encoding="UTF-8" standalone="no"?>
<svg
   height="1600"
   viewBox="0 0 1600 1600"
   width="1600"
   version="1.1"
   id="svg2"
   sodipodi:docname="ops.sculpt.face_set_edit.svg"
   inkscape:version="1.3.2 (091e20e, 2023-11-25, custom)"
   xml:space="preserve"
   xmlns:inkscape="http://www.inkscape.org/namespaces/inkscape"
   xmlns:sodipodi="http://sodipodi.sourceforge.net/DTD/sodipodi-0.dtd"
   xmlns="http://www.w3.org/2000/svg"
   xmlns:svg="http://www.w3.org/2000/svg"><defs
     id="defs2" /><sodipodi:namedview
     pagecolor="#303030"
     showgrid="true"
     id="namedview1"
     bordercolor="#000000"
     borderopacity="0.25"
     inkscape:showpageshadow="2"
     inkscape:pageopacity="0.0"
     inkscape:pagecheckerboard="0"
     inkscape:deskcolor="#d1d1d1"
     inkscape:zoom="0.2740044"
     inkscape:cx="1481.728"
     inkscape:cy="899.62059"
     inkscape:window-width="1920"
     inkscape:window-height="1009"
     inkscape:window-x="1912"
     inkscape:window-y="-8"
     inkscape:window-maximized="1"
     inkscape:current-layer="svg2"
     showguides="true"><inkscape:grid
       id="grid5"
       units="px"
       spacingx="50"
       spacingy="50"
       color="#4772b3"
       opacity="0.2"
       visible="true"
       originx="0"
       originy="0"
       empspacing="2" /></sodipodi:namedview><g
     id="g1"
     transform="matrix(1.1619928,0,0,1.169382,-16.230054,-130.17752)"><path
       style="fill:#f56b5b;fill-opacity:1;stroke:none;stroke-width:50.33;stroke-linecap:butt;stroke-linejoin:miter;stroke-miterlimit:1000;stroke-dasharray:none"
       d="m 128.14844,1011.6914 a 558.38519,551.08606 0 0 0 530.71094,382.4473 558.38519,551.08606 0 0 0 450.18942,-227.3672 H 340.32227 v -77.709 c -50.7281,0.016 -101.03435,-11.4453 -145.86329,-33.0762 -23.90661,-11.5354 -46.42613,-26.4482 -66.31054,-44.2949 z"
       id="path11" /><rect
       style="fill:none;fill-opacity:0.56124;stroke:#f9f9f9;stroke-width:50;stroke-linecap:butt;stroke-linejoin:miter;stroke-miterlimit:1000;stroke-dasharray:none"
       id="rect4"
       width="869.67578"
       height="874.83704"
       x="410.32181"
       y="221.93506" /><path
       id="ellipse4"
       style="fill:#ffe264;fill-opacity:1;stroke:none;stroke-width:50.33;stroke-linecap:butt;stroke-linejoin:miter;stroke-miterlimit:1000;stroke-dasharray:none"
       d="m 658.85938,291.9668 c -60.78463,0.42919 -121.09042,10.65092 -178.53711,30.26172 v 704.54298 h 703.41013 c 12.0662,-33.27084 21.3107,-67.54345 26.2656,-102.54298 11.0171,-77.82039 6.8146,-122.82015 0,-164.69336 -13.2137,-81.19321 -43.7642,-155.95163 -87.4492,-220.84375 l -355.42771,355.42773 -0.57421,0.50977 c -52.20155,46.1467 -95.91133,77.42798 -135.31055,93.06445 -19.69961,7.81824 -38.69746,11.79356 -57.2461,10.00781 -18.54863,-1.78575 -36.18207,-10.15841 -49.35546,-23.41992 -13.57514,-13.66593 -21.35469,-32.18123 -22.45313,-51.09961 -1.09844,-18.91837 3.47766,-38.13171 11.71094,-58.09375 16.46656,-39.92407 48.04818,-84.00859 92.32617,-134.34766 l 0.52734,-0.60156 351.33789,-351.33594 C 871.30987,323.83648 768.55109,292.12131 658.85938,291.9668 Z m 325.61523,131.15625 -323.2168,323.21484 91.4668,91.46875 323.21679,-323.2168 z M 627.26172,783.05469 c -33.32859,39.98478 -56.23325,74.63794 -67.14649,101.09765 -6.31788,15.31806 -8.51246,27.60747 -8.01757,36.13086 0.49488,8.52339 2.67517,13.3895 8.00976,18.75977 5.73633,5.77469 10.72674,8.12357 18.67383,8.88867 7.94709,0.7651 19.31689,-0.87896 34.01172,-6.71094 25.93992,-10.29483 61.11277,-33.49506 103.42383,-69.21289 z" /><path
       id="path9"
       style="fill:#75ffaf;stroke-miterlimit:1000"
       d="m 340.32227,390.51953 c -27.08181,18.56729 -52.66203,39.52766 -76.30079,62.85742 -104.71744,103.34864 -163.54684,243.51876 -163.54687,389.67578 0.41027,8.29945 1.01068,16.58868 1.80078,24.86133 15.17244,106.29792 126.71224,170.82794 238.04688,171.01954 z" /><path
       id="path16"
       style="display:inline;fill:#ffffff;stroke-miterlimit:1000"
       d="m 1086.4375,324.70312 c -2.9912,0.17153 -4.889,1.34608 -6.7324,3.18946 l -59.875,59.875 91.4668,91.4668 59.875,-59.875 c 3.1527,-3.15295 4.3384,-7.14796 -0.01,-19.73047 -4.3482,-12.58252 -15.2671,-29.21363 -28.9101,-42.99219 -13.6431,-13.77856 -30.1046,-24.77926 -42.5274,-29.10938 -6.2114,-2.16506 -10.2959,-2.99571 -13.2871,-2.82422 z m -101.96289,98.41993 -323.2168,323.21484 91.4668,91.46875 323.21679,-323.2168 z M 627.26172,783.05469 c -33.32859,39.98478 -56.23325,74.63794 -67.14649,101.09765 -6.31788,15.31806 -8.51246,27.60747 -8.01757,36.13086 0.49488,8.52339 2.67517,13.3895 8.00976,18.75977 5.73633,5.77469 10.72674,8.12357 18.67383,8.88867 7.94709,0.7651 19.31689,-0.87896 34.01172,-6.71094 25.93992,-10.29483 61.11277,-33.49506 103.42383,-69.21289 z" /></g></svg>
