<?xml version="1.0" encoding="UTF-8" standalone="no"?>
<svg
   height="1600"
   viewBox="0 0 1580 1600"
   width="1580"
   version="1.1"
   id="svg2"
   sodipodi:docname="ops.sculpt.lasso_trim.svg"
   inkscape:version="1.3.2 (091e20e, 2023-11-25, custom)"
   xml:space="preserve"
   xmlns:inkscape="http://www.inkscape.org/namespaces/inkscape"
   xmlns:sodipodi="http://sodipodi.sourceforge.net/DTD/sodipodi-0.dtd"
   xmlns:xlink="http://www.w3.org/1999/xlink"
   xmlns="http://www.w3.org/2000/svg"
   xmlns:svg="http://www.w3.org/2000/svg"><defs
     id="defs2" /><sodipodi:namedview
     pagecolor="#303030"
     showgrid="true"
     id="namedview1"
     bordercolor="#000000"
     borderopacity="0.25"
     inkscape:showpageshadow="2"
     inkscape:pageopacity="0.0"
     inkscape:pagecheckerboard="0"
     inkscape:deskcolor="#d1d1d1"
     inkscape:zoom="0.90509668"
     inkscape:cx="1276.1068"
     inkscape:cy="204.95048"
     inkscape:window-width="1920"
     inkscape:window-height="1009"
     inkscape:window-x="1912"
     inkscape:window-y="-8"
     inkscape:window-maximized="1"
     inkscape:current-layer="layer2"
     showguides="true"><inkscape:grid
       id="grid5"
       units="px"
       spacingx="50"
       spacingy="50"
       color="#4772b3"
       opacity="0.2"
       visible="true"
       originx="0"
       originy="0"
       empspacing="2" /></sodipodi:namedview><g
     inkscape:groupmode="layer"
     id="layer2"
     inkscape:label="icon"><g
       id="g1"
       transform="matrix(1.095079,0,0,1.095079,-13.433147,-38.200004)"><path
         style="opacity:1;fill:#9b9b9b;fill-opacity:1;stroke:none;stroke-width:53.2051;stroke-miterlimit:1000"
         d="m 151.95312,629.36914 a 550.21747,550.21747 0 0 0 -48.22656,224.55859 550.21747,550.21747 0 0 0 550.2168,550.21677 550.21747,550.21747 0 0 0 236.42383,-54.0097 C 837.06605,1323.184 791.20359,1276.4621 766.85938,1212.3828 726.95325,1107.3411 694.99298,1039.7881 655.38867,994.05078 615.39707,947.86613 565.3424,915.80869 465.96289,882.78906 346.16927,842.98669 248.86967,781.47497 188.99805,698.375 173.53933,676.91879 161.10154,653.68074 151.95312,629.36914 Z"
         id="path8" /><path
         id="path5"
         style="fill:#f56b5b;fill-opacity:1;stroke-miterlimit:1000"
         d="m 824.4707,207.21484 c -165.98453,-1.01355 -293.63697,17.00182 -391.1914,52.60547 -104.05806,37.97723 -174.04006,97.17685 -214.52539,172.58399 -41.63609,77.55049 -30.8401,161.823 18.92578,230.89648 49.76587,69.07349 135.95275,125.58502 247.20312,162.54883 105.1419,34.93423 167.9764,73.61898 215.86524,128.92383 47.88883,55.30486 81.64156,129.54216 122.19922,236.29886 22.88213,60.2308 67.63193,98.6773 118.80859,116.082 51.17665,17.4047 108.23524,15.3206 161.27534,0.3398 53.04,-14.9807 102.4289,-42.9152 138.3204,-80.7207 35.8914,-37.8054 58.417,-87.1165 51.832,-140.4511 -20.7016,-167.67086 -21.5606,-295.38929 0.2832,-469.11332 -16.2631,5.1952 -33.5238,8.03799 -51.3848,8.21875 -20.3686,169.96003 -19.0048,301.11786 1.4785,467.02147 4.4572,36.1002 -10.049,69.9651 -38.4687,99.9004 -28.4197,29.9353 -70.6192,54.3086 -115.6504,67.0274 -45.0312,12.7187 -92.52653,13.7258 -131.58788,0.4414 -39.06136,-13.2844 -70.23466,-39.3079 -88.16407,-86.502 C 828.624,1065.2231 793.21935,985.18195 738.54688,922.04297 683.87441,858.90399 610.74501,814.98084 500.64844,778.40039 396.66034,743.84952 319.39457,691.18236 278.24805,634.07227 237.10153,576.96218 229.52531,518.04379 262.80664,456.05469 c 34.43208,-64.13247 92.26985,-114.46891 187.61328,-149.26563 83.42551,-30.44713 195.43534,-48.06819 341.84961,-49.50976 9.11213,-0.0897 18.88153,0.12954 28.26172,0.16601 -0.45434,-17.18613 1.66043,-34.0499 6.02148,-50.20312 -0.68472,-0.005 -1.3986,-0.0232 -2.08203,-0.0273 z"
         sodipodi:nodetypes="cssssssssssccsssssssssssccc" /><g
         id="g8"
         transform="translate(2.8121395,-33.857517)"><g
           id="path4"><path
             style="fill:#f9f9f9;stroke-miterlimit:1000"
             d="M 1068.3942,440.83688 602.14562,637.50096"
             id="path5-3" /><path
             id="path6"
             style="fill:#ffffff;stroke-miterlimit:1000"
             d="m 1237.5,356.25 c -18.1677,0.002 -36.122,3.91572 -52.6426,11.47461 -19.0587,9.11505 -87.1078,56.11728 -130.0664,40.86328 L 671.89453,570.09375 C 630.91127,587.38055 580.05969,643.78102 566.25,690.96289 l 521.2695,-214.5625 c 14.2832,16.65038 24.4186,34.61656 34.5723,58.22852 20.4008,45.46181 65.5788,74.72209 115.4082,74.74609 69.8985,0 126.5625,-56.66396 126.5625,-126.5625 0,-69.89854 -56.664,-126.5625 -126.5625,-126.5625 z"
             sodipodi:nodetypes="ccccccccsc" /></g></g><use
         x="0"
         y="0"
         xlink:href="#g8"
         id="use8"
         transform="matrix(-0.20931207,-0.97784889,-0.97784889,0.20931207,1695.4899,1371.3577)" /><g
         id="path1"><path
           style="fill:#f9f9f9;stroke-miterlimit:1000"
           d="m 995.85547,125.9082 c -8.4093,0.0759 -16.93474,0.9954 -25.47852,2.82422 -68.35021,14.63061 -111.89817,81.89983 -97.26757,150.25 10.45335,48.7206 48.52117,86.77384 97.24609,97.20703 18.86788,3.73143 34.63863,8.11841 49.45903,14.48047 L 674.70703,536.23633 c -40.98326,17.2868 -91.83484,73.68727 -105.64453,120.86914 l 452.1816,-186.125 -87.41598,481.46094 c 43.24621,-23.37953 87.75448,-84.90975 96.08008,-128.60352 l 70.2539,-368.70898 c 9.425,13.24341 17.0839,27.83351 24.7422,45.64257 20.4008,45.46181 65.5788,74.7221 115.4082,74.7461 69.8985,0 126.5625,-56.66396 126.5625,-126.5625 0,-69.89854 -56.664,-126.5625 -126.5625,-126.5625 -18.1677,0.002 -36.122,3.91572 -52.6426,11.47461 -13.5952,6.50206 -52.1073,32.18665 -88.6699,40.89648 0.9706,-37.48515 17.9233,-80.27942 21.4238,-94.88476 3.9335,-17.73682 4.004,-36.11322 0.2032,-53.87891 -12.8018,-59.8064 -65.9065,-100.62326 -124.77153,-100.0918 z"
           id="path9" /></g></g></g></svg>
