<?xml version="1.0" encoding="UTF-8" standalone="no"?>
<svg
   height="1600"
   viewBox="0 0 1600 1600"
   width="1600"
   version="1.1"
   id="svg2"
   sodipodi:docname="ops.gpencil.primitive_curve.svg"
   inkscape:version="1.3.2 (091e20e, 2023-11-25, custom)"
   xml:space="preserve"
   xmlns:inkscape="http://www.inkscape.org/namespaces/inkscape"
   xmlns:sodipodi="http://sodipodi.sourceforge.net/DTD/sodipodi-0.dtd"
   xmlns="http://www.w3.org/2000/svg"
   xmlns:svg="http://www.w3.org/2000/svg"><defs
     id="defs2" /><sodipodi:namedview
     pagecolor="#303030"
     showgrid="true"
     id="namedview1"
     bordercolor="#000000"
     borderopacity="0.25"
     inkscape:showpageshadow="2"
     inkscape:pageopacity="0.0"
     inkscape:pagecheckerboard="0"
     inkscape:deskcolor="#d1d1d1"
     inkscape:zoom="0.2540625"
     inkscape:cx="1194.5879"
     inkscape:cy="513.65314"
     inkscape:window-width="1920"
     inkscape:window-height="1009"
     inkscape:window-x="1912"
     inkscape:window-y="-8"
     inkscape:window-maximized="1"
     inkscape:current-layer="g2"><inkscape:grid
       id="grid5"
       units="px"
       spacingx="50"
       spacingy="50"
       color="#4772b3"
       opacity="0.2"
       visible="true"
       originx="0"
       originy="0"
       empspacing="2" /></sodipodi:namedview><g
     id="g2"
     style="fill:#75ffaf;fill-opacity:1"><path
       style="fill:#75ffaf;fill-rule:evenodd;stroke:none;fill-opacity:1"
       d="m 249.9385,250.0615 v -150 l 100,-0.0615 0,150.000004 150,0.123 0.0615,99.8155 -150.0615,0.123 0,149.9385 H 250 V 350.0615 L 99.938501,350 V 250 Z"
       id="path1"
       sodipodi:nodetypes="ccccccccccccc" /><path
       style="fill:#75ffaf;fill-opacity:1;fill-rule:evenodd;stroke:none;stroke-width:1.08637"
       d="m 350.4521,1473.463 c 69.61163,-442.1156 403.21987,-525.18878 614.89314,-603.97203 246.93106,-91.90595 378.30346,-61.35816 459.99466,-489.58453 1.3463,-38.74269 73.2533,-39.97832 74.0026,-0.12393 -76.5833,448.75898 -282.7038,479.0415 -489.6821,551.57099 -203.38165,71.2691 -532.38013,161.2503 -589.60482,545.6334 -3.86552,34.3697 -73.36343,31.9139 -69.60348,-3.5239 z"
       id="path2"
       sodipodi:nodetypes="csccscc" /></g></svg>
