<?xml version="1.0" encoding="UTF-8" standalone="no"?>
<svg
   height="1600"
   viewBox="0 0 1600 1600"
   width="1600"
   version="1.1"
   id="svg2"
   sodipodi:docname="ops.sculpt.box_trim.svg"
   inkscape:version="1.3.2 (091e20e, 2023-11-25, custom)"
   xml:space="preserve"
   xmlns:inkscape="http://www.inkscape.org/namespaces/inkscape"
   xmlns:sodipodi="http://sodipodi.sourceforge.net/DTD/sodipodi-0.dtd"
   xmlns="http://www.w3.org/2000/svg"
   xmlns:svg="http://www.w3.org/2000/svg"><defs
     id="defs2" /><sodipodi:namedview
     pagecolor="#303030"
     showgrid="true"
     id="namedview1"
     bordercolor="#000000"
     borderopacity="0.25"
     inkscape:showpageshadow="2"
     inkscape:pageopacity="0.0"
     inkscape:pagecheckerboard="0"
     inkscape:deskcolor="#d1d1d1"
     inkscape:zoom="0.90509668"
     inkscape:cx="1219.7592"
     inkscape:cy="1377.2009"
     inkscape:window-width="1920"
     inkscape:window-height="1009"
     inkscape:window-x="1912"
     inkscape:window-y="-8"
     inkscape:window-maximized="1"
     inkscape:current-layer="layer2"
     showguides="true"><inkscape:grid
       id="grid5"
       units="px"
       spacingx="50"
       spacingy="50"
       color="#4772b3"
       opacity="0.2"
       visible="true"
       originx="0"
       originy="0"
       empspacing="2" /></sodipodi:namedview><g
     inkscape:groupmode="layer"
     id="layer2"
     inkscape:label="icon"
     transform="matrix(1.1113326,0,0,1.12519,5.2651359,-100.22774)"><g
       id="rect1" /><g
       id="g1"
       transform="translate(-18.89453,18.047537)"><path
         style="opacity:1;fill:#9b9b9b;fill-opacity:1;stroke:none;stroke-width:54.2735;stroke-miterlimit:1000"
         d="M 335.32227,390.3457 A 561.26599,561.26599 0 0 0 103.72656,842.87891 561.26599,561.26599 0 0 0 664.99219,1404.1445 561.26599,561.26599 0 0 0 1118.1074,1171.7715 H 335.32227 Z"
         id="path3" /><path
         id="rect4"
         style="fill:none;fill-opacity:0.56124;stroke:#f16a5a;stroke-width:50;stroke-linecap:round;stroke-miterlimit:1000;stroke-opacity:1"
         d="m 1279.9976,698.4375 v 398.3346 H 410.32181 V 221.93506 H 796.875"
         sodipodi:nodetypes="ccccc" /><g
         id="g8"><g
           id="path4"><path
             style="fill:#f9f9f9;stroke-miterlimit:1000"
             d="M 1068.3942,440.83688 602.14562,637.50096"
             id="path5" /><path
             id="path6"
             style="fill:#ffffff;stroke-miterlimit:1000"
             d="m 1237.5,356.25 c -18.1677,0.002 -36.122,3.91572 -52.6426,11.47461 -19.0587,9.11505 -87.1078,56.11728 -130.0664,40.86328 L 671.89453,570.09375 C 630.91127,587.38055 580.05969,643.78102 566.25,690.96289 l 521.2695,-214.5625 c 14.2832,16.65038 24.4186,34.61656 34.5723,58.22852 20.4008,45.46181 65.5788,74.72209 115.4082,74.74609 69.8985,0 126.5625,-56.66396 126.5625,-126.5625 0,-69.89854 -56.664,-126.5625 -126.5625,-126.5625 z"
             sodipodi:nodetypes="ccccccccsc" /></g></g><g
         id="use8"
         transform="matrix(-0.20931207,-0.97784889,-0.97784889,0.20931207,1725.1967,1395.3786)"><g
           id="g2"><path
             style="fill:#f9f9f9;stroke-miterlimit:1000"
             d="M 1068.3942,440.83688 602.14562,637.50096"
             id="path1" /><path
             id="path2"
             style="fill:#ffffff;stroke-miterlimit:1000"
             d="m 1237.5,356.25 c -18.1677,0.002 -36.122,3.91572 -52.6426,11.47461 -19.0587,9.11505 -87.1078,56.11728 -130.0664,40.86328 L 671.89453,570.09375 C 630.91127,587.38055 580.05969,643.78102 566.25,690.96289 l 521.2695,-214.5625 c 14.2832,16.65038 24.4186,34.61656 34.5723,58.22852 20.4008,45.46181 65.5788,74.72209 115.4082,74.74609 69.8985,0 126.5625,-56.66396 126.5625,-126.5625 0,-69.89854 -56.664,-126.5625 -126.5625,-126.5625 z"
             sodipodi:nodetypes="ccccccccsc" /></g></g></g></g></svg>
