<?xml version="1.0" encoding="UTF-8" standalone="no"?>
<!DOCTYPE svg PUBLIC "-//W3C//DTD SVG 1.1//EN" "http://www.w3.org/Graphics/SVG/1.1/DTD/svg11.dtd">
<svg xmlns="http://www.w3.org/2000/svg" xmlns:xlink="http://www.w3.org/1999/xlink" xmlns:serif="http://www.serif.com/" width="100%" height="100%" viewBox="0 0 1600 1600" version="1.1" xml:space="preserve" style="fill-rule:evenodd;clip-rule:evenodd;stroke-linejoin:round;stroke-miterlimit:2;">
    <g id="spin">
        <g id="Green">
            <path d="M714.533,274.514L714.533,826.722L315.393,431.745C425.419,327.075 562.799,280.699 714.533,274.514Z" style="fill:rgb(117,255,175);"/>
            <path d="M690.426,894.353L279.891,1282.9C176.137,1171.76 120.416,1042.49 114.698,894.353L690.426,894.353Z" style="fill:rgb(117,255,175);"/>
            <g transform="matrix(0.699586,-0.707179,0.713837,0.706172,-401.252,765.327)">
                <path d="M690.426,894.353L279.891,1282.9C176.137,1171.76 119.683,1035.62 113.965,887.48L690.426,894.353Z" style="fill:rgb(117,255,175);"/>
            </g>
            <g transform="matrix(0.000223059,-0.98127,1.03137,0.000234449,-166.492,1585.92)">
                <path d="M690.426,894.353L279.891,1282.9C176.137,1171.76 120.416,1042.49 114.698,894.353L690.426,894.353Z" style="fill:rgb(117,255,175);"/>
            </g>
            <g transform="matrix(-0.732344,-0.697243,0.74823,-0.711395,609.123,2001.15)">
                <path d="M690.426,894.353L279.891,1282.9C176.137,1171.76 120.416,1042.49 114.698,894.353L690.426,894.353Z" style="fill:rgb(117,255,175);"/>
            </g>
            <g transform="matrix(-1.00833,0.00952908,0.0115091,-1.00989,1463.83,1750.39)">
                <path d="M690.426,894.353L279.891,1282.9C176.137,1171.76 120.416,1042.49 114.698,894.353L690.426,894.353Z" style="fill:rgb(117,255,175);"/>
            </g>
            <path d="M690.426,850.017L280.48,460.88C174.894,574.701 114.848,702.902 114.698,850.017L690.426,850.017Z" style="fill:rgb(117,255,175);"/>
        </g>
        <g id="White">
            <path d="M315.393,389.039C356.509,357.909 399.373,331.15 444.188,309.269C573.107,193.657 712.73,134.243 863.845,135.163L863.845,727.539L917.256,674.128L917.256,87.302C658.434,77.021 457.682,177.352 315.393,389.039Z" style="fill:rgb(229,229,229);"/>
            <path d="M1223.13,440.009L1253.32,474.192L1349.21,389.4C1457.25,551.747 1473.44,722.031 1394.2,900.563C1392.96,953.404 1383.95,1005.84 1364.72,1057.73C1547.27,806.978 1527.57,556.335 1364.72,315.989L1223.13,440.009Z" style="fill:rgb(229,229,229);"/>
        </g>
    </g>
</svg>
