<?xml version="1.0" encoding="UTF-8" standalone="no"?>
<svg
   height="1450"
   viewBox="0 0 1600 1450"
   width="1600"
   version="1.1"
   id="svg2"
   sodipodi:docname="ops.curve.draw.svg"
   inkscape:version="1.3.2 (091e20e, 2023-11-25, custom)"
   xml:space="preserve"
   xmlns:inkscape="http://www.inkscape.org/namespaces/inkscape"
   xmlns:sodipodi="http://sodipodi.sourceforge.net/DTD/sodipodi-0.dtd"
   xmlns="http://www.w3.org/2000/svg"
   xmlns:svg="http://www.w3.org/2000/svg"><defs
     id="defs2"><inkscape:path-effect
       effect="offset"
       id="path-effect15"
       is_visible="true"
       lpeversion="1.2"
       linejoin_type="miter"
       unit="px"
       offset="30"
       miter_limit="4"
       attempt_force_join="false"
       update_on_knot_move="true" /><inkscape:path-effect
       effect="offset"
       id="path-effect4"
       is_visible="true"
       lpeversion="1.2"
       linejoin_type="miter"
       unit="px"
       offset="50"
       miter_limit="4"
       attempt_force_join="false"
       update_on_knot_move="true" /><inkscape:path-effect
       effect="offset"
       id="path-effect3"
       is_visible="true"
       lpeversion="1.2"
       linejoin_type="miter"
       unit="px"
       offset="40"
       miter_limit="4"
       attempt_force_join="false"
       update_on_knot_move="true" /></defs><sodipodi:namedview
     pagecolor="#303030"
     showgrid="true"
     id="namedview1"
     bordercolor="#000000"
     borderopacity="0.25"
     inkscape:showpageshadow="2"
     inkscape:pageopacity="0.0"
     inkscape:pagecheckerboard="0"
     inkscape:deskcolor="#d1d1d1"
     inkscape:zoom="0.29062705"
     inkscape:cx="1285.1522"
     inkscape:cy="951.39114"
     inkscape:window-width="1920"
     inkscape:window-height="1009"
     inkscape:window-x="1912"
     inkscape:window-y="-8"
     inkscape:window-maximized="1"
     inkscape:current-layer="svg2"><inkscape:grid
       id="grid5"
       units="px"
       spacingx="50"
       spacingy="50"
       color="#4772b3"
       opacity="0.2"
       visible="true"
       originx="0"
       originy="0"
       empspacing="2" /></sodipodi:namedview><g
     id="g1"
     transform="matrix(1.0888906,0,0,1.0888906,-116.46021,-205.32696)"><g
       id="g4"
       inkscape:label="green"
       style="fill:#75ffaf;fill-opacity:1;stroke:none"><path
         id="path1"
         style="color:#000000;fill:#75ffaf;fill-opacity:1;stroke:none;stroke-width:1.14285;-inkscape-stroke:none"
         d="m 260.89651,1153.8324 c 53.82825,64.9024 143.87165,122.472 209.73295,133.7524 89.88246,15.3946 189.65357,-8.8374 290.7991,-82.8615 11.15013,-26.0709 22.3007,-52.1413 33.45089,-78.2121 L 784.83704,1115.692 C 671.9767,1220.4547 568.7808,1249.9008 479.69643,1234.6429 409.3646,1222.5968 344.92748,1172.5844 308.54782,1131.9291 Z"
         sodipodi:nodetypes="cscccscc" /><path
         id="path13"
         style="color:#000000;fill:#75ffaf;fill-opacity:1;stroke:none;stroke-width:1.14285;-inkscape-stroke:none"
         d="m 1135.3214,914.529 c -57.2091,0.065 -112.4688,16.0565 -161.4152,40.4152 -4.3404,10.1486 -8.6796,20.2978 -13.02,30.4465 l 16.4397,28.6004 c 58.8429,-33.8242 128.5823,-53.3594 196.1139,-42.8594 67.5313,10.5001 134.7656,49.7137 193.0513,141.8348 l 30.0915,-19.0402 c -0.6118,-11.6597 -1.2229,-23.3199 -1.8348,-34.9799 -61.8917,-85.5786 -137.3161,-129.1143 -213.0559,-140.8906 -15.5397,-2.4161 -31.024,-3.5442 -46.3705,-3.5268 z" /></g><g
       id="g3"
       inkscape:label="dark gray"
       style="display:inline;fill:none;fill-opacity:1;stroke:#b3b3b3;stroke-width:25;stroke-dasharray:none;stroke-opacity:1"
       transform="matrix(1.1428571,0,0,1.1428572,-114.28571,-114.28572)"><path
         d="m 1336.1066,782.17699 18.6111,354.44011"
         stroke="#000000"
         stroke-width="0.605978"
         fill="none"
         id="path3"
         style="fill:none;fill-opacity:1;stroke:#b3b3b3;stroke-width:25;stroke-dasharray:none;stroke-opacity:1" /><path
         d="M 750.74388,1298.4516 985.16238,750.37049"
         stroke="#000000"
         stroke-width="0.605978"
         fill="none"
         id="path6"
         style="fill:none;fill-opacity:1;stroke:#b3b3b3;stroke-width:25;stroke-dasharray:none;stroke-opacity:1" /></g><g
       id="g2"
       inkscape:label="light gray"
       style="display:inline;fill:#e5e5e5;fill-opacity:1;stroke:none"
       transform="matrix(1.1428571,0,0,1.1428572,-114.28571,-114.28572)"><path
         d="m 1030.1453,750.37029 c 0.2789,-10.4925 -4.4827,-23.1153 -13.1753,-31.8076 -8.6922,-8.6921 -21.31512,-13.4543 -31.80782,-13.1753 -10.4925,-0.279 -23.1152,4.4832 -31.8078,13.1753 -8.6922,8.6923 -13.454,21.3151 -13.1749,31.8076 -0.2791,10.4927 4.4827,23.1155 13.1749,31.8078 8.6926,8.6925 21.3153,13.4543 31.8078,13.1751 10.4927,0.2792 23.11562,-4.4826 31.80782,-13.1751 8.6926,-8.6923 13.4542,-21.3151 13.1753,-31.8078 z"
         stroke="#000000"
         stroke-width="0.605978"
         fill="none"
         id="path2"
         style="fill:#e5e5e5;fill-opacity:1;stroke:none" /><path
         d="m 795.72678,1298.4512 c 0.2787,-10.4925 -4.4829,-23.1153 -13.1751,-31.8078 -8.6924,-8.6923 -21.3153,-13.4538 -31.8078,-13.1749 -10.4925,-0.2789 -23.1154,4.4826 -31.8079,13.1749 -8.6922,8.6925 -13.4542,21.3153 -13.1751,31.8078 -0.2791,10.4929 4.4829,23.1158 13.1751,31.8079 8.6925,8.6923 21.3154,13.4542 31.8079,13.1752 10.4925,0.279 23.1154,-4.4829 31.8078,-13.1752 8.6922,-8.6921 13.4538,-21.315 13.1751,-31.8079 z"
         stroke="#000000"
         stroke-width="0.605978"
         fill="none"
         id="path4"
         style="fill:#e5e5e5;fill-opacity:1;stroke:none" /><path
         d="m 1399.699,1136.6171 c 0.2803,-10.4925 -4.4817,-23.1155 -13.175,-31.8078 -8.6907,-8.6923 -21.3153,-13.4543 -31.8063,-13.1751 -10.4936,-0.2792 -23.1155,4.4828 -31.8088,13.1751 -8.6907,8.6923 -13.4528,21.3153 -13.1749,31.8078 -0.2779,10.4925 4.4842,23.1155 13.1749,31.8078 8.6933,8.6923 21.3152,13.4541 31.8088,13.1753 10.491,0.2788 23.1156,-4.483 31.8063,-13.1753 8.6933,-8.6923 13.4553,-21.3153 13.175,-31.8078 z"
         stroke="#000000"
         stroke-width="0.605978"
         fill="none"
         id="path5"
         style="fill:#e5e5e5;fill-opacity:1;stroke:none" /><path
         d="m 1381.0904,782.17679 c 0.2778,-10.4923 -4.4842,-23.1151 -13.1749,-31.8076 -8.6933,-8.6921 -21.3153,-13.4543 -31.8089,-13.1751 -10.491,-0.2792 -23.1155,4.483 -31.8063,13.1751 -8.6932,8.6925 -13.4552,21.3153 -13.1775,31.8076 -0.2777,10.4929 4.4843,23.1157 13.1775,31.8078 8.6908,8.6927 21.3153,13.4543 31.8063,13.1755 10.4936,0.2788 23.1156,-4.4828 31.8089,-13.1755 8.6907,-8.6921 13.4527,-21.3149 13.1749,-31.8078 z"
         stroke="#000000"
         stroke-width="0.605978"
         fill="none"
         id="path10"
         style="fill:#e5e5e5;fill-opacity:1;stroke:none" /><path
         d="m 912.93618,1024.411 c 0.2788,-10.4927 -4.483,-23.1154 -13.1754,-31.80781 -8.6924,-8.6923 -21.3151,-13.4543 -31.8076,-13.1751 -10.4928,-0.2792 -23.1156,4.4828 -31.8078,13.1751 -8.6922,8.69241 -13.4542,21.31511 -13.1753,31.80781 -0.2789,10.4923 4.4831,23.1155 13.1753,31.8078 8.6922,8.6925 21.315,13.4541 31.8078,13.1751 10.4925,0.279 23.1152,-4.4826 31.8076,-13.1751 8.6924,-8.6923 13.4542,-21.3155 13.1754,-31.8078 z"
         stroke="#000000"
         stroke-width="0.605978"
         fill="none"
         id="path9"
         style="fill:#e5e5e5;fill-opacity:1;stroke:none" /><path
         fill="#ffffff"
         d="m 781,419.00003 -456,450 L 456,1000 912,550.00003 Z"
         id="path1-3"
         style="fill:#e5e5e5;fill-opacity:1;stroke:none;stroke-width:100"
         transform="matrix(0.87500003,0,0,0.87499996,100,100)" /><path
         fill="#ffffff"
         d="m 806,389.00003 108,-108 a 200,200 0 0 1 137,126 l -113,112 z"
         id="path2-9"
         style="fill:#e5e5e5;fill-opacity:1;stroke:none;stroke-width:100"
         transform="matrix(0.87500003,0,0,0.87499996,100,100)" /><path
         fill="#ffffff"
         d="M 294,900.00003 425,1031 261,1126 a 50,50 0 0 1 -62,-51 z"
         id="path3-7"
         style="fill:#e5e5e5;fill-opacity:1;stroke:none;stroke-width:100"
         transform="matrix(0.87500003,0,0,0.87499996,100,100)" /></g></g></svg>
