<?xml version="1.0" encoding="UTF-8" standalone="no"?>
<!DOCTYPE svg PUBLIC "-//W3C//DTD SVG 1.1//EN" "http://www.w3.org/Graphics/SVG/1.1/DTD/svg11.dtd">
<svg xmlns="http://www.w3.org/2000/svg" xmlns:xlink="http://www.w3.org/1999/xlink" xmlns:serif="http://www.serif.com/" width="100%" height="100%" viewBox="0 0 1600 1600" version="1.1" xml:space="preserve" style="fill-rule:evenodd;clip-rule:evenodd;stroke-linejoin:round;stroke-miterlimit:2;">
    <g id="loopcut_slide">
        <g id="White">
            <path d="M449.392,135.521L104.055,464.579L104.055,1466.76L497.67,1466.76L497.67,1419.04L156.95,1419.04L156.95,513.411L504.884,513.411L504.884,464.579L174.708,464.579L463.265,184.9L769.024,184.9L818.412,135.521L449.392,135.521Z" style="fill:rgb(229,229,229);"/>
            <path d="M1132.51,135.521L1081.37,184.9L1401.57,184.9L1106.08,463.478L766.847,463.478L766.847,514.051L1097.28,514.051L1097.28,1419.53L748.947,1419.53L748.947,1467.83L1148.99,1467.83L1489.94,1142.24L1489.94,137.063L1132.51,135.521ZM1435.72,229.897L1435.43,1133.67L1148.99,1410.12L1148.99,504.923L1435.72,229.897Z" style="fill:rgb(229,229,229);"/>
        </g>
        <g id="Green">
            <path d="M653.416,1467.83L575.227,1467.83L575.227,463.582L930.918,135.521L1026.81,135.521L653.416,480.281L653.416,1467.83Z" style="fill:rgb(117,255,175);"/>
        </g>
    </g>
</svg>
