<?xml version="1.0" encoding="UTF-8" standalone="no"?>
<svg
   height="1600"
   viewBox="0 0 1600 1600"
   width="1600"
   version="1.1"
   id="svg2"
   sodipodi:docname="ops.transform.tosphere.svg"
   inkscape:version="1.3.2 (091e20e, 2023-11-25, custom)"
   xml:space="preserve"
   xmlns:inkscape="http://www.inkscape.org/namespaces/inkscape"
   xmlns:sodipodi="http://sodipodi.sourceforge.net/DTD/sodipodi-0.dtd"
   xmlns="http://www.w3.org/2000/svg"
   xmlns:svg="http://www.w3.org/2000/svg"><defs
     id="defs2" /><sodipodi:namedview
     pagecolor="#303030"
     showgrid="true"
     id="namedview1"
     bordercolor="#000000"
     borderopacity="0.25"
     inkscape:showpageshadow="2"
     inkscape:pageopacity="0.0"
     inkscape:pagecheckerboard="0"
     inkscape:deskcolor="#d1d1d1"
     inkscape:zoom="0.27674122"
     inkscape:cx="785.93279"
     inkscape:cy="876.2699"
     inkscape:window-width="1920"
     inkscape:window-height="1009"
     inkscape:window-x="1912"
     inkscape:window-y="-8"
     inkscape:window-maximized="1"
     inkscape:current-layer="svg2"><inkscape:grid
       id="grid5"
       units="px"
       spacingx="50"
       spacingy="50"
       color="#4772b3"
       opacity="0.2"
       visible="true"
       originx="0"
       originy="0"
       empspacing="2" /></sodipodi:namedview><g
     id="g3"
     transform="matrix(1.1765616,0,0,1.1765616,-140.99424,-140.99424)"><g
       id="g2"
       inkscape:label="gray"
       style="fill:#e5e5e5;fill-opacity:1;stroke:none"><path
         d="m 1243.1046,461.598 33.402,-25.5091 c -32.1947,-42.2012 -70.3937,-80.4004 -112.595,-112.59465 l -25.5091,33.40185 c 39.2431,29.9376 74.7643,65.4588 104.7021,104.7019 z"
         stroke="#000000"
         stroke-width="0.542115"
         fill="none"
         id="path1"
         style="fill:#e5e5e5;fill-opacity:1;stroke:none" /><path
         d="m 869.08031,1353.2502 5.2075,41.7052 c 52.67372,-6.5482 104.91562,-20.3017 153.98669,-40.5362 l -16.0013,-38.8631 c -45.63127,18.8161 -94.21127,31.6041 -143.19289,37.6941 z"
         stroke="#000000"
         stroke-width="0.542115"
         fill="none"
         id="path2"
         style="fill:#e5e5e5;fill-opacity:1;stroke:none" /><path
         d="m 1016.8,286.33193 16.3428,-38.72127 C 984.25123,226.94542 932.13263,212.73431 879.51831,205.72227 l -5.5738,41.65732 c 48.92602,6.52058 97.39132,19.73536 142.85549,38.95234 z"
         stroke="#000000"
         stroke-width="0.542115"
         fill="none"
         id="path3"
         style="fill:#e5e5e5;fill-opacity:1;stroke:none" /><path
         d="m 1313.6694,1016.8004 38.7208,16.3424 c 20.666,-48.89151 34.8763,-101.01011 41.8875,-153.6245 l -41.6571,-5.5738 c -6.5212,48.92619 -19.7352,97.39139 -38.9512,142.8559 z"
         stroke="#000000"
         stroke-width="0.542115"
         fill="none"
         id="path4"
         style="fill:#e5e5e5;fill-opacity:1;stroke:none" /><path
         d="m 1352.9413,728.4878 41.682,-5.391 c -6.7808,-52.6447 -20.7631,-104.8251 -41.2144,-153.8072 l -38.7909,16.1721 c 19.0149,45.5486 32.0167,94.0714 38.3233,143.0261 z"
         stroke="#000000"
         stroke-width="0.542115"
         fill="none"
         id="path5"
         style="fill:#e5e5e5;fill-opacity:1;stroke:none" /><path
         d="m 583.20051,1313.6688 -16.3426,38.721 c 48.8912,20.6655 101.0099,34.8767 153.6241,41.8878 l 5.5742,-41.6564 c -48.9264,-6.5208 -97.3913,-19.7357 -142.8557,-38.9524 z"
         stroke="#000000"
         stroke-width="0.542115"
         fill="none"
         id="path6"
         style="fill:#e5e5e5;fill-opacity:1;stroke:none" /><path
         d="m 730.92011,246.75053 -5.2075,-41.70486 c -52.6738,6.549 -104.9155,20.30098 -153.9868,40.5357 l 16.0015,38.86327 c 45.6315,-18.81618 94.2112,-31.60435 143.1928,-37.69411 z"
         stroke="#000000"
         stroke-width="0.542115"
         fill="none"
         id="path7"
         style="fill:#e5e5e5;fill-opacity:1;stroke:none" /><path
         d="m 355.41182,1136.4505 -33.51369,25.362 c 32.00842,42.3425 70.03906,80.7089 112.09832,113.0889 l 25.65596,-33.2894 c -39.11109,-30.1101 -74.47588,-65.7872 -104.24059,-105.1615 z"
         stroke="#000000"
         stroke-width="0.542115"
         fill="none"
         id="path8"
         style="fill:#e5e5e5;fill-opacity:1;stroke:none" /><path
         d="m 246.75052,869.0806 -41.70486,5.2074 c 6.54879,52.67379 20.30094,104.91529 40.53547,153.9867 l 38.86349,-16.0012 c -18.81621,-45.63171 -31.60431,-94.21141 -37.6941,-143.1929 z"
         stroke="#000000"
         stroke-width="0.542115"
         fill="none"
         id="path9"
         style="fill:#e5e5e5;fill-opacity:1;stroke:none" /><path
         d="m 286.33187,583.2003 -38.7212,-16.3424 c -20.66551,48.8913 -34.87664,101.0099 -41.88871,153.6243 l 41.65743,5.5741 c 6.52054,-48.9262 19.73554,-97.3914 38.95248,-142.856 z"
         stroke="#000000"
         stroke-width="0.542115"
         fill="none"
         id="path10"
         style="fill:#e5e5e5;fill-opacity:1;stroke:none" /><path
         d="m 463.55021,355.4118 -25.362,-33.51342 C 395.84563,353.9068 357.47909,391.9372 325.09933,433.9965 l 33.2894,25.6559 c 30.10986,-39.1111 65.78704,-74.4756 105.16148,-104.2406 z"
         stroke="#000000"
         stroke-width="0.542115"
         fill="none"
         id="path11"
         style="fill:#e5e5e5;fill-opacity:1;stroke:none" /><path
         d="m 1136.4502,1244.5888 25.3621,33.5135 c 42.3425,-32.0083 80.7091,-70.0392 113.0887,-112.0982 l -33.2892,-25.6557 c -30.1099,39.1109 -65.7871,74.4755 -105.1616,104.2404 z"
         stroke="#000000"
         stroke-width="0.542115"
         fill="none"
         id="path12"
         style="fill:#e5e5e5;fill-opacity:1;stroke:none" /></g><g
       id="g1"
       style="fill:#d9aff5;fill-opacity:1"
       inkscape:label="purple"><path
         d="M 556.30191,771.968 V 674.9006 L 376.56863,800.0004 556.30191,925.10029 V 828.0328 h 92.5407 V 771.968 Z"
         stroke="#000000"
         stroke-width="0.542115"
         fill="none"
         id="path13"
         inkscape:label="arrow_left"
         style="fill:#d9aff5;fill-opacity:1;stroke:none;stroke-width:0.542;stroke-dasharray:none" /><path
         d="m 828.03271,556.3022 h 97.06742 l -125.09972,-179.7334 -125.1,179.7334 h 97.0676 v 92.5408 h 56.0647 z"
         stroke="#000000"
         stroke-width="0.542115"
         fill="none"
         id="path14"
         inkscape:label="arrow_up"
         style="fill:#d9aff5;fill-opacity:1;stroke:none;stroke-width:0.542;stroke-dasharray:none" /><path
         d="m 771.96801,1043.6987 h -97.0676 l 125.1,179.7334 125.09972,-179.7334 h -97.06742 v -92.54101 h -56.0647 z"
         stroke="#000000"
         stroke-width="0.542115"
         fill="none"
         id="path15"
         inkscape:label="arrow_down"
         style="fill:#d9aff5;fill-opacity:1;stroke:none;stroke-width:0.542;stroke-dasharray:none" /><path
         d="m 1043.6986,828.0328 v 97.06749 L 1223.432,800.0004 1043.6986,674.9006 v 97.0674 h -92.54087 v 56.0648 z"
         stroke="#000000"
         stroke-width="0.542115"
         fill="none"
         id="path17"
         inkscape:label="arrow_right"
         style="fill:#d9aff5;fill-opacity:1;stroke:none;stroke-width:0.542;stroke-dasharray:none" /></g></g></svg>
