<?xml version="1.0" encoding="UTF-8" standalone="no"?>
<svg
   height="1580"
   viewBox="0 0 1600 1580"
   width="1600"
   version="1.1"
   id="svg2"
   sodipodi:docname="ops.gpencil.edit_shear.svg"
   inkscape:version="1.3.2 (091e20e, 2023-11-25, custom)"
   xml:space="preserve"
   xmlns:inkscape="http://www.inkscape.org/namespaces/inkscape"
   xmlns:sodipodi="http://sodipodi.sourceforge.net/DTD/sodipodi-0.dtd"
   xmlns="http://www.w3.org/2000/svg"
   xmlns:svg="http://www.w3.org/2000/svg"><defs
     id="defs2" /><sodipodi:namedview
     pagecolor="#303030"
     showgrid="true"
     id="namedview1"
     bordercolor="#000000"
     borderopacity="0.25"
     inkscape:showpageshadow="2"
     inkscape:pageopacity="0.0"
     inkscape:pagecheckerboard="0"
     inkscape:deskcolor="#d1d1d1"
     inkscape:zoom="0.2540625"
     inkscape:cx="649.44649"
     inkscape:cy="797.04797"
     inkscape:window-width="1920"
     inkscape:window-height="1009"
     inkscape:window-x="1912"
     inkscape:window-y="-8"
     inkscape:window-maximized="1"
     inkscape:current-layer="svg2"><inkscape:grid
       id="grid5"
       units="px"
       spacingx="50"
       spacingy="50"
       color="#4772b3"
       opacity="0.2"
       visible="true"
       originx="0"
       originy="0"
       empspacing="2" /></sodipodi:namedview><g
     id="g3"
     transform="matrix(1.1290656,0,0,1.1290656,-75.259146,-115.03793)"><g
       id="g2"
       inkscape:label="purple"
       style="fill:#d9aff5;fill-opacity:1;stroke:none"><path
         d="m 254.17853,1264.938 c -13.26801,-6.2419 -28.36603,-9.433 -43.02499,-9.0935 L 405.84368,334.71077 c 13.268,6.24181 28.36566,9.4333 43.02498,9.0937 z"
         stroke="#000000"
         stroke-width="0.890695"
         fill="none"
         id="path5"
         style="fill:#d9aff5;fill-opacity:1;stroke:none" /><path
         d="m 1244.0897,224.89063 c -3.3624,14.27227 -3.3624,29.70411 0,43.97582 H 541.30084 c 3.36349,-14.27171 3.36349,-29.70355 0,-43.97582 z"
         stroke="#000000"
         stroke-width="0.890695"
         fill="none"
         id="path6"
         style="fill:#d9aff5;fill-opacity:1;stroke:none" /><path
         d="m 1145.8053,1264.938 c -13.2676,-6.2419 -28.3648,-9.433 -43.0242,-9.0935 L 1297.472,334.71077 c 13.2676,6.24181 28.3649,9.4333 43.0243,9.0937 z"
         stroke="#000000"
         stroke-width="0.890695"
         fill="none"
         id="path7"
         style="fill:#d9aff5;fill-opacity:1;stroke:none" /><path
         d="m 307.56041,1374.7578 c 3.36349,-14.272 3.36349,-29.7035 0,-43.9755 h 702.78889 c -3.3624,14.272 -3.3624,29.7035 0,43.9755 z"
         stroke="#000000"
         stroke-width="0.890695"
         fill="none"
         id="path8"
         style="fill:#d9aff5;fill-opacity:1;stroke:none" /></g><g
       id="g1"
       inkscape:label="gray"
       style="fill:#e5e5e5;fill-opacity:1;stroke:none"><path
         d="m 270.10895,1352.7702 c 0.3533,-13.2883 -5.67706,-29.2746 -16.68569,-40.2828 -11.00822,-11.0081 -26.99432,-17.039 -40.28237,-16.6858 -13.28842,-0.3532 -29.27452,5.6777 -40.28275,16.6858 -11.00826,11.0082 -17.03898,26.9945 -16.68568,40.2828 -0.3533,13.2881 5.67742,29.2741 16.68568,40.2825 11.00823,11.0084 26.99433,17.039 40.28275,16.6855 13.28805,0.3535 29.27415,-5.6771 40.28237,-16.6855 11.00863,-11.0084 17.03899,-26.9944 16.68569,-40.2825 z"
         stroke="#000000"
         stroke-width="0.890695"
         fill="none"
         id="path1"
         style="fill:#e5e5e5;fill-opacity:1;stroke:none" /><path
         d="m 1161.7376,1352.7702 c 0.3526,-13.2883 -5.6782,-29.2746 -16.6856,-40.2828 -11.0112,-11.0081 -26.9955,-17.039 -40.2817,-16.6858 -13.2898,-0.3532 -29.2779,5.6777 -40.2853,16.6858 -11.0076,11.0082 -17.0383,26.9945 -16.6857,40.2828 -0.3526,13.2881 5.6781,29.2741 16.6857,40.2825 11.0074,11.0084 26.9955,17.039 40.2853,16.6855 13.2862,0.3535 29.2705,-5.6771 40.2817,-16.6855 11.0074,-11.0084 17.0382,-26.9944 16.6856,-40.2825 z"
         stroke="#000000"
         stroke-width="0.890695"
         fill="none"
         id="path2"
         style="fill:#e5e5e5;fill-opacity:1;stroke:none" /><path
         d="m 503.84938,246.87854 c 0.3533,-13.28805 -5.67706,-29.27406 -16.68569,-40.28221 -11.00822,-11.00871 -26.99434,-17.03899 -40.28239,-16.68578 -13.2884,-0.35321 -29.2745,5.67707 -40.28276,16.68578 -11.00823,11.00815 -17.03898,26.99416 -16.68565,40.28221 -0.35333,13.28861 5.67742,29.27463 16.68565,40.28278 11.00826,11.00844 26.99436,17.03899 40.28276,16.68578 13.28805,0.35321 29.27417,-5.67734 40.28239,-16.68578 11.00863,-11.00815 17.03899,-26.99417 16.68569,-40.28278 z"
         stroke="#000000"
         stroke-width="0.890695"
         fill="none"
         id="path3"
         style="fill:#e5e5e5;fill-opacity:1;stroke:none" /><path
         d="m 1395.478,246.87854 c 0.3526,-13.28805 -5.6781,-29.27406 -16.6857,-40.28221 -11.0074,-11.00871 -26.9953,-17.03899 -40.2853,-16.68578 -13.2862,-0.35321 -29.2704,5.67707 -40.2816,16.68578 -11.0075,11.00815 -17.0383,26.99416 -16.6857,40.28221 -0.3526,13.28861 5.6782,29.27463 16.6857,40.28278 11.0112,11.00844 26.9954,17.03899 40.2816,16.68578 13.29,0.35321 29.2779,-5.67734 40.2853,-16.68578 11.0076,-11.00815 17.0383,-26.99417 16.6857,-40.28278 z"
         stroke="#000000"
         stroke-width="0.890695"
         fill="none"
         id="path4"
         style="fill:#e5e5e5;fill-opacity:1;stroke:none" /></g></g></svg>
