<?xml version="1.0" encoding="UTF-8" standalone="no"?>
<svg
   height="1600"
   viewBox="0 0 1600 1600"
   width="1600"
   version="1.1"
   id="svg2"
   sodipodi:docname="ops.paint.weight_sample_group.svg"
   inkscape:version="1.3.2 (091e20e, 2023-11-25, custom)"
   xml:space="preserve"
   xmlns:inkscape="http://www.inkscape.org/namespaces/inkscape"
   xmlns:sodipodi="http://sodipodi.sourceforge.net/DTD/sodipodi-0.dtd"
   xmlns="http://www.w3.org/2000/svg"
   xmlns:svg="http://www.w3.org/2000/svg"><defs
     id="defs2" /><sodipodi:namedview
     pagecolor="#303030"
     showgrid="true"
     id="namedview1"
     bordercolor="#000000"
     borderopacity="0.25"
     inkscape:showpageshadow="2"
     inkscape:pageopacity="0.0"
     inkscape:pagecheckerboard="0"
     inkscape:deskcolor="#d1d1d1"
     inkscape:zoom="0.2540625"
     inkscape:cx="391.63592"
     inkscape:cy="1186.7159"
     inkscape:window-width="1920"
     inkscape:window-height="1009"
     inkscape:window-x="1912"
     inkscape:window-y="-8"
     inkscape:window-maximized="1"
     inkscape:current-layer="svg2"><inkscape:grid
       id="grid5"
       units="px"
       spacingx="50"
       spacingy="50"
       color="#4772b3"
       opacity="0.2"
       visible="true"
       originx="0"
       originy="0"
       empspacing="2" /></sodipodi:namedview><g
     id="g4"
     transform="matrix(0.64614833,0.64614833,-0.64614833,0.64614833,853.55119,-309.38949)"
     style="fill:#f9f9f9"><path
       style="fill:#f9f9f9;fill-rule:evenodd;stroke:none;stroke-width:50;stroke-dasharray:none"
       d="m 586.46986,420.1722 c -95.05761,1.0608 -97.28153,-180.41497 10e-6,-181.51485 12.7471,0.67883 49.20049,-0.98401 49.20049,-0.98401 0,0 2.31996,-121.64018 1.96802,-221.929183 5.55212,-158.345587 321.29097,-163.812307 326.69126,0.98401 0.48024,92.963603 0.98401,221.690423 0.98401,221.690423 0,0 22.05478,0.94188 52.15255,0 92.0904,2.01015 94.8058,179.47072 -2.9521,180.7696 -54.46143,1.29887 -385.06074,-0.365 -428.04424,0.98401 z"
       id="path2"
       sodipodi:nodetypes="ccccccccc" /><path
       style="fill:#f9f9f9;fill-opacity:1;fill-rule:evenodd;stroke:none;stroke-width:50;stroke-dasharray:none"
       d="m 624.70905,452.27002 h 54.9682 l 1.3916,697.19168 117.59021,338.1588 125.9398,-338.1588 V 452.27002 h 56.3598 v 697.88748 l -164.9046,422.3506 h -33.3984 L 626.10065,1148.7659 Z"
       id="path3"
       sodipodi:nodetypes="cccccccccccc" /><path
       style="fill:#f9f9f9;fill-opacity:1;fill-rule:evenodd;stroke:none;stroke-width:50;stroke-dasharray:none"
       d="M 713.40713,876.75277 886.18528,702.60351 886.59287,1133.5793 800,1394.3419 713.40713,1137.5154 Z"
       id="path4"
       sodipodi:nodetypes="cccccc" /></g><path
     style="opacity:0.45;fill:#ffffff;fill-opacity:1;fill-rule:evenodd;stroke:none;stroke-width:50;stroke-dasharray:none"
     id="path6"
     sodipodi:type="arc"
     sodipodi:cx="226.32227"
     sodipodi:cy="915.12915"
     sodipodi:rx="88.560883"
     sodipodi:ry="88.560883"
     sodipodi:start="6.0889385"
     sodipodi:end="6.0786774"
     sodipodi:arc-type="slice"
     d="m 313.21761,898.03446 a 88.560883,88.560883 0 0 1 -69.5778,103.94594 88.560883,88.560883 0 0 1 -104.12404,-69.31096 88.560883,88.560883 0 0 1 69.04359,-104.30151 88.560883,88.560883 0 0 1 104.47827,68.7758 l -86.71536,17.98542 z" /><path
     style="opacity:0.45;fill:#ffffff;fill-opacity:1;fill-rule:evenodd;stroke:none;stroke-width:50;stroke-dasharray:none"
     id="path6-1"
     sodipodi:type="arc"
     sodipodi:cx="193.03197"
     sodipodi:cy="1412.8107"
     sodipodi:rx="88.560883"
     sodipodi:ry="88.560883"
     sodipodi:start="6.0889385"
     sodipodi:end="6.0786774"
     sodipodi:arc-type="slice"
     d="m 279.92731,1395.716 a 88.560883,88.560883 0 0 1 -69.5778,103.9459 88.560883,88.560883 0 0 1 -104.12404,-69.3109 88.560883,88.560883 0 0 1 69.04359,-104.3015 88.560883,88.560883 0 0 1 104.47827,68.7758 l -86.71536,17.9854 z" /><g
     id="g6"
     transform="translate(47.232472)"><path
       style="opacity:0.45;fill:#ffffff;fill-opacity:1;fill-rule:evenodd;stroke:none;stroke-width:50;stroke-dasharray:none"
       id="path6-3"
       sodipodi:type="arc"
       sodipodi:cx="598.40344"
       sodipodi:cy="1381.3925"
       sodipodi:rx="88.560883"
       sodipodi:ry="88.560883"
       sodipodi:start="6.0889385"
       sodipodi:end="6.0786774"
       sodipodi:arc-type="slice"
       d="m 685.29879,1364.2978 a 88.560883,88.560883 0 0 1 -69.5778,103.9459 88.560883,88.560883 0 0 1 -104.12405,-69.311 88.560883,88.560883 0 0 1 69.04359,-104.3015 88.560883,88.560883 0 0 1 104.47828,68.7758 l -86.71537,17.9855 z" /></g></svg>
