<?xml version="1.0" encoding="UTF-8" standalone="no"?>
<svg
   width="1520"
   height="1600"
   viewBox="0 0 1520 1600"
   version="1.1"
   xml:space="preserve"
   style="clip-rule:evenodd;fill-rule:evenodd;stroke-linejoin:round;stroke-miterlimit:2"
   id="svg1"
   sodipodi:docname="ops.paint.weight_fill.svg"
   inkscape:version="1.3.2 (091e20e, 2023-11-25, custom)"
   xmlns:inkscape="http://www.inkscape.org/namespaces/inkscape"
   xmlns:sodipodi="http://sodipodi.sourceforge.net/DTD/sodipodi-0.dtd"
   xmlns="http://www.w3.org/2000/svg"
   xmlns:svg="http://www.w3.org/2000/svg"><defs
   id="defs1" /><sodipodi:namedview
   id="namedview1"
   pagecolor="#3a3a3a"
   bordercolor="#000000"
   borderopacity="0.25"
   inkscape:showpageshadow="2"
   inkscape:pageopacity="0.0"
   inkscape:pagecheckerboard="0"
   inkscape:deskcolor="#d1d1d1"
   showgrid="true"
   inkscape:zoom="0.2540625"
   inkscape:cx="1598.032"
   inkscape:cy="899.38499"
   inkscape:window-width="1920"
   inkscape:window-height="1009"
   inkscape:window-x="1912"
   inkscape:window-y="-8"
   inkscape:window-maximized="1"
   inkscape:current-layer="svg1"><inkscape:grid
     id="grid1"
     units="px"
     originx="0"
     originy="0"
     spacingx="50"
     spacingy="50"
     empcolor="#0099e5"
     empopacity="0.30196078"
     color="#0099e5"
     opacity="0.14901961"
     empspacing="2"
     dotted="false"
     gridanglex="30"
     gridanglez="30"
     visible="true" /></sodipodi:namedview>
    <g
   id="brush.gpencil_draw.fill-svg"
   transform="matrix(1.6033553,0,0,1.6033553,-495.49976,-422.6689)">
        <path
   id="Drop"
   d="m 521.491,799.638 c -35.615,46.1 -158.671,182.653 -149.521,246.302 -0.529,72.93 67.722,153 147.203,153 69.083,0 144.418,-48.23 148.941,-156.48 3.53,-74.052 -114.885,-203.809 -146.623,-242.822 z"
   style="fill:#909090" />
        <path
   id="Fill"
   d="M 706.424,767.012 H 1111.75 L 908.789,969.971 Z"
   style="fill:#e5e5e5" />
        <path
   d="m 947.659,487.206 v -85.684 c 0,0 -5.9,-34.335 -45.729,-34.335 -39.829,0 -44.665,29.777 -44.665,29.777 z M 911.353,1002.96 1156.79,757.525 854.559,455.296 v 175.6 c 0,0 -5.861,21.443 -21.443,21.443 -15.582,0 -21.733,-21.733 -21.733,-21.733 V 483.114 l -216.312,216.312 25.934,10.867 z m -18.694,43.44 h 37.09 L 1199.4,776.758 V 739.297 L 984.829,524.729 V 388.422 c 0,0 -20.125,-62.092 -84.381,-62.683 -73.745,-0.677 -89.759,83.824 -89.759,83.824 v 18.175 L 520.828,717.599 c -1.724,18.413 6.879,29.453 22.98,32.472 l 9.829,-9.829 c 0,0 7.418,-6.591 16.573,-6.388 9.886,0.219 17.195,9.523 17.195,9.523 z"
   style="fill:#e5e5e5"
   id="path1" />
    </g>
</svg>
