<?xml version="1.0" encoding="UTF-8" standalone="no"?>
<svg
   height="1600"
   viewBox="0 0 1600 1600"
   width="1600"
   version="1.1"
   id="svg2"
   sodipodi:docname="ops.generic.select_box.svg"
   inkscape:version="1.3.2 (091e20e, 2023-11-25, custom)"
   xml:space="preserve"
   xmlns:inkscape="http://www.inkscape.org/namespaces/inkscape"
   xmlns:sodipodi="http://sodipodi.sourceforge.net/DTD/sodipodi-0.dtd"
   xmlns="http://www.w3.org/2000/svg"
   xmlns:svg="http://www.w3.org/2000/svg"><defs
     id="defs2" /><sodipodi:namedview
     pagecolor="#303030"
     showgrid="true"
     id="namedview1"
     bordercolor="#000000"
     borderopacity="0.25"
     inkscape:showpageshadow="2"
     inkscape:pageopacity="0.0"
     inkscape:pagecheckerboard="0"
     inkscape:deskcolor="#d1d1d1"
     inkscape:zoom="0.35929863"
     inkscape:cx="876.70805"
     inkscape:cy="765.38004"
     inkscape:window-width="1350"
     inkscape:window-height="1032"
     inkscape:window-x="2127"
     inkscape:window-y="0"
     inkscape:window-maximized="0"
     inkscape:current-layer="g1667"
     showguides="true"><inkscape:grid
       id="grid5"
       units="px"
       spacingx="50"
       spacingy="50"
       color="#4772b3"
       opacity="0.2"
       visible="true"
       originx="0"
       originy="0"
       empspacing="2" /><sodipodi:guide
       position="1715.1471,-287.03927"
       orientation="0,-1"
       id="guide2987"
       inkscape:locked="false" /></sodipodi:namedview><g
     id="g1667"
     transform="translate(105.76162,-150.29281)"><g
       id="g2980"
       transform="matrix(0.74076111,0,0,0.7407718,182.90718,339.68854)"><path
         style="fill:#ffaf2b;stroke:none"
         d="m 842.40845,1664.7902 c -30.48845,1.7801 -36.32722,101.3767 -1.27507,102.27 6.3659,0.1622 217.09612,1.5466 257.67952,0.1815 37.6757,-1.2672 47.3081,-102.0784 0.1748,-102.4515 -3.4186,-0.027 -242.46042,-0.8243 -256.57925,0 z"
         id="path2752"
         sodipodi:nodetypes="sssss" /><path
         style="fill:#ffaf2b;stroke:none"
         d="m 375.39217,1664.6309 c -54.4558,0.7808 -42.73527,103.4596 -4.22967,102.6108 12.99492,-0.2865 228.35681,-0.8364 263.24595,-0.8773 38.85005,-0.045 40.25981,-104.182 -4.75407,-103.6616 -80.52765,0.9309 -175.17719,0.7941 -254.26221,1.9281 z"
         id="path2748"
         sodipodi:nodetypes="sssss" /><path
         style="fill:#ffaf2b;stroke:none"
         d="m -81.416776,1664.7902 c -41.621094,0.3885 -42.432614,100.7939 -1.970867,101.5742 6.366766,0.1228 244.688343,-0.6954 257.679543,-0.5143 26.49438,0.3693 50.3667,-100.3359 -2.31707,-101.9144 -47.18828,-1.4139 -240.140164,0.7308 -253.391606,0.8545 z"
         id="path2743"
         sodipodi:nodetypes="sssss" /><path
         style="fill:#ffaf2b;stroke:none"
         d="m 1534.2919,1663.015 -220.4146,1.3916 c -58.4094,0.3688 -52.4422,103.4314 0.5312,102.9464 83.6023,-0.7654 165.1898,-3.761 245.3333,-0.221 47.2763,2.0882 71.9217,-9.3381 72.5288,-52.8128 0.8643,-61.8907 0.5975,-175.7716 0.9798,-263.246 0.2766,-51.8016 -99.6255,-46.7575 -100.066,1.3334 -0.6642,72.5143 1.1075,140.0146 1.1075,210.6084 z"
         id="path2640"
         sodipodi:nodetypes="cssssssc" /><path
         style="fill:#ffaf2b;stroke:none"
         d="m -254.32788,1323.3203 c -0.0771,73.9651 1.56018,158.6371 0.69105,233.6655 -0.55476,47.8897 94.28882,47.973 93.86215,0 -0.65227,-73.3386 1.50928,-156.0782 -0.41818,-229.9041 -1.17942,-45.1743 -94.09283,-44.2548 -94.13502,-3.7614 z"
         id="path2597"
         sodipodi:nodetypes="sssss" /><path
         style="fill:#ffaf2b;stroke:none"
         d="m 1533.0543,1003.1315 c 0.4407,74.1804 1.2127,141.6803 1.7581,214.9546 0.3581,48.1119 99.5096,38.6567 99.5349,-0.3123 0.043,-66.6412 0.3484,-142.0803 -0.034,-218.12133 -0.1992,-39.56316 -101.5343,-42.9467 -101.2585,3.47903 z"
         id="path2420"
         sodipodi:nodetypes="sssss" /><path
         style="fill:#ffaf2b;stroke:none"
         d="m -254.32788,866.6216 c 1.59521,72.68968 -1.59918,168.2354 0.69105,231.6975 1.45273,40.2549 94.28872,39.1172 94.84616,-0.984 1.0194,-73.3344 -0.19696,-156.61305 -0.41818,-230.88805 -0.13749,-46.16011 -95.92127,-36.38176 -95.11903,0.17455 z"
         id="path2372"
         sodipodi:nodetypes="sssss" /><path
         style="fill:#ffaf2b;stroke:none"
         d="m 1532.3585,530.31912 c 0.3395,77.31966 0.022,158.93518 0.7394,229.21681 0.5214,51.09022 98.8407,49.32409 100.5643,4.75407 2.052,-53.06463 -0.5736,-229.65739 -0.4835,-236.69581 0.5043,-39.37808 -101.0174,-42.17559 -100.8202,2.72493 z"
         id="path2218"
         sodipodi:nodetypes="sssss" /><path
         style="fill:#ffaf2b;stroke:none"
         d="m -255.31189,393.35237 c 0.99372,44.15622 1.40305,213.39119 1.67506,235.63342 0.42923,35.09735 94.28874,40.10104 94.84616,0.98401 1.05181,-73.8111 1.67918,-180.99486 0.56583,-235.80812 -1.03729,-51.0686 -98.19995,-50.26107 -97.08705,-0.80931 z"
         id="path2169"
         sodipodi:nodetypes="sssss" /><path
         style="fill:#e5e5e5;stroke:none"
         d="m 420.39541,419.04656 v 945.12254 c 257.62915,-258.6414 20.47415,-21.2134 269.97812,-269.7578 378.72787,-1.3224 37.48136,0.5081 404.31037,-0.4312 C 923.66097,917.61252 432.38271,430.58989 420.39541,419.04656 Z"
         id="path2166"
         sodipodi:nodetypes="ccccc" /><path
         style="fill:#ffaf2b;stroke:none"
         d="m 1532.3585,75.827244 c 0.1055,73.458076 2.3683,149.729446 2.4539,214.954606 0.063,47.76703 98.6515,42.3238 98.8391,2.47088 0.2949,-62.66098 1.1839,-146.95166 1.4023,-220.962753 0.1163,-39.42107 -102.7626,-43.350808 -102.6953,3.537267 z"
         id="path2017"
         sodipodi:nodetypes="sssss" /><path
         style="fill:#ffaf2b;stroke:none"
         d="m 1236.3793,-119.55606 c -38.3283,-0.27316 -42.1627,93.252831 -1.9708,93.920415 6.2346,0.103557 241.8578,-0.938487 254.6666,-0.514323 43.0675,1.42618 58.1125,-91.581672 -4,-92.014492 -38.179,-0.26605 -235.1676,-1.29519 -248.6958,-1.3916 z"
         id="path1689"
         sodipodi:nodetypes="sssss" /><path
         style="fill:#ffaf2b;stroke:none"
         d="m 767.04598,-119.55606 c -45.10025,-0.3076 -40.34521,94.531891 -1.97086,93.920415 6.3672,-0.101458 252.34218,-0.686856 265.33338,-0.514323 41.9365,0.55695 35.4798,-93.728992 -4,-92.014492 -3.4155,0.14832 -245.21997,-1.29514 -259.36252,-1.3916 z"
         id="path1685"
         sodipodi:nodetypes="sssss" /><path
         style="fill:#ffaf2b;stroke:none"
         d="m 305.5961,-120.25186 c -43.65787,-0.31265 -43.43724,93.202653 -3.52729,93.649085 36.90274,0.412794 253.01204,-0.06987 259.0063,0.452807 37.28719,3.251283 41.31298,-92.957342 -4,-92.014492 -3.52218,0.0733 -237.9508,-1.99052 -251.47901,-2.0874 z"
         id="path1681"
         sodipodi:nodetypes="sssss" /><path
         style="fill:#ffaf2b;stroke:none"
         d="m -158.09834,-25.331569 c 74.8632,-1.100275 155.2187157,-0.05938 233.840102,0.699993 50.943828,0.492048 34.295368,-93.218144 -1.333333,-94.098634 -45.134422,-1.11541 -292.569099,-1.29891 -299.138999,0.56575 -14.36564,4.07715 -28.19725,23.563017 -28.56325,39.371635 -2.17313,93.863979 1.27561,169.968506 -1.07246,267.778605 -1.36354,56.79906 95.0111,49.25457 97.05444,3.07995 -1.35496,-89.27392 -0.7865,-137.785634 -0.7865,-217.397299 z"
         id="path1677"
         sodipodi:nodetypes="csscsscc" /></g></g></svg>
