<?xml version="1.0" encoding="UTF-8" standalone="no"?>
<svg
   height="1600"
   viewBox="0 0 1600 1600"
   width="1600"
   version="1.1"
   id="svg2"
   sodipodi:docname="ops.mesh.primitive_cube_add_gizmo.svg"
   inkscape:version="1.3.2 (091e20e, 2023-11-25, custom)"
   xml:space="preserve"
   xmlns:inkscape="http://www.inkscape.org/namespaces/inkscape"
   xmlns:sodipodi="http://sodipodi.sourceforge.net/DTD/sodipodi-0.dtd"
   xmlns="http://www.w3.org/2000/svg"
   xmlns:svg="http://www.w3.org/2000/svg"><defs
     id="defs2" /><sodipodi:namedview
     pagecolor="#303030"
     showgrid="true"
     id="namedview1"
     bordercolor="#000000"
     borderopacity="0.25"
     inkscape:showpageshadow="2"
     inkscape:pageopacity="0.0"
     inkscape:pagecheckerboard="0"
     inkscape:deskcolor="#d1d1d1"
     inkscape:zoom="0.3234375"
     inkscape:cx="281.35266"
     inkscape:cy="851.78744"
     inkscape:window-width="1920"
     inkscape:window-height="1009"
     inkscape:window-x="1912"
     inkscape:window-y="-8"
     inkscape:window-maximized="1"
     inkscape:current-layer="svg2"
     showguides="true"><inkscape:grid
       id="grid5"
       units="px"
       spacingx="50"
       spacingy="50"
       color="#4772b3"
       opacity="0.2"
       visible="true"
       originx="0"
       originy="0"
       empspacing="2" /></sodipodi:namedview><g
     id="g1"><path
       style="opacity:1;fill:#75ffaf;fill-opacity:1;fill-rule:evenodd;stroke:none"
       d="m 250.59591,99.473186 h 99.74647 l 0.16009,153.195764 149.85294,0.0246 0.20983,96.07261 -149.94958,-0.0635 -0.20981,151.39601 -99.9397,-0.037 -0.0663,-151.2984 -150.18684,-0.0469 -0.08,-95.95087 150.23943,-0.0166 z"
       id="path7683"
       sodipodi:nodetypes="ccccccccccccc" /><path
       id="path7685"
       style="opacity:1;fill:#75ffaf;fill-opacity:1;fill-rule:evenodd;stroke:none"
       d="m 1499.75,400.0794 -846.61658,0.54588 -253.0541,250.32267 0.54528,849.34805 h 848.8021 l 250.5489,-253.055 z m -73.0744,49.37805 c -65.9035,64.55194 -147.7653,148.76665 -204.0019,200.83698 -107.4467,0.21802 -673.89489,-0.0505 -753.29908,-0.72378 C 535.55517,582.69144 641.23951,480.4219 672.61,449.10676 c 59.96952,-0.0108 695.9111,0.33982 754.0656,0.35069 z M 1200.1292,1446.923 c -107.4467,0.218 -668.22365,-1.5085 -748.78726,-0.6359 -0.65935,-113.0438 -1.52401,-644.52793 -0.91131,-747.19471 59.96952,-0.0108 691.05367,0.57756 749.20817,0.58846 z m 249.9544,-219.6699 c -66.4806,65.1457 -140.086,144.4065 -201.3259,204.4095 -0.4028,-80.5269 0.1202,-660.34377 0.1864,-731.07927 52.24,-45.61486 157.5928,-154.86097 201.1628,-197.94731 -0.6499,241.66727 -0.017,487.32185 -0.023,728.98948 z"
       sodipodi:nodetypes="ccccccccccccccccccccccc" /></g></svg>
