<?xml version="1.0" encoding="UTF-8" standalone="no"?>
<svg
   height="1600"
   viewBox="0 0 1600 1600"
   width="1600"
   version="1.1"
   id="svg2"
   sodipodi:docname="ops.transform.transform.svg"
   inkscape:version="1.3.2 (091e20e, 2023-11-25, custom)"
   xml:space="preserve"
   xmlns:inkscape="http://www.inkscape.org/namespaces/inkscape"
   xmlns:sodipodi="http://sodipodi.sourceforge.net/DTD/sodipodi-0.dtd"
   xmlns="http://www.w3.org/2000/svg"
   xmlns:svg="http://www.w3.org/2000/svg"><defs
     id="defs2" /><sodipodi:namedview
     pagecolor="#303030"
     showgrid="true"
     id="namedview1"
     bordercolor="#000000"
     borderopacity="0.25"
     inkscape:showpageshadow="2"
     inkscape:pageopacity="0.0"
     inkscape:pagecheckerboard="0"
     inkscape:deskcolor="#d1d1d1"
     inkscape:zoom="0.4574097"
     inkscape:cx="588.09422"
     inkscape:cy="827.48573"
     inkscape:window-width="1920"
     inkscape:window-height="1009"
     inkscape:window-x="1912"
     inkscape:window-y="-8"
     inkscape:window-maximized="1"
     inkscape:current-layer="svg2"
     showguides="true"><inkscape:grid
       id="grid5"
       units="px"
       spacingx="50"
       spacingy="50"
       color="#4772b3"
       opacity="0.2"
       visible="true"
       originx="0"
       originy="0"
       empspacing="2" /></sodipodi:namedview><g
     id="g7683"
     style="fill:#ffffff"><path
       style="opacity:0.8;fill:#ffffff;fill-opacity:1;fill-rule:evenodd;stroke:none"
       d="m 550.7958,546.95381 h 504.1122 l -2.1862,501.92589 h -501.926 z"
       id="path7676"
       sodipodi:nodetypes="ccccc" /><path
       style="opacity:0.8;fill:#ffffff;fill-opacity:1;fill-rule:evenodd;stroke:none"
       d="M 799.47876,84.318324 646.98965,357.59631 960.71278,358.14287 Z"
       id="path7677"
       sodipodi:nodetypes="cccc" /><path
       style="opacity:0.8;fill:#ffffff;fill-opacity:1;fill-rule:evenodd;stroke:none"
       d="m 155.74305,682.80908 75.86141,-47.87055 C 302.97887,412.33382 458.9806,286.64505 632.87032,232.22056 l 49.48273,-76.0878 c -296.81492,54.56204 -488.72823,299.34677 -526.61,526.67632 z"
       id="path7678"
       sodipodi:nodetypes="ccccc" /><path
       style="opacity:0.8;fill:#ffffff;fill-opacity:1;fill-rule:evenodd;stroke:none"
       d="m 1516.4568,799.47536 -273.7083,-151.71524 0.3411,313.72339 z"
       id="path7677-9"
       sodipodi:nodetypes="cccc" /><path
       style="opacity:0.8;fill:#ffffff;fill-opacity:1;fill-rule:evenodd;stroke:none"
       d="m 918.49687,156.45228 46.01978,75.37543 c 213.51085,65.37739 337.65775,208.05881 402.61575,398.79868 l 77.189,49.03087 C 1391.2561,396.09864 1167.5326,200.30233 918.49687,156.45228 Z"
       id="path7678-4"
       sodipodi:nodetypes="ccccc" /><path
       style="opacity:0.8;fill:#ffffff;fill-opacity:1;fill-rule:evenodd;stroke:none"
       d="m 799.98711,1515.9207 152.2636,-273.4037 -313.72348,-0.2878 z"
       id="path7677-4"
       sodipodi:nodetypes="cccc" /><path
       style="opacity:0.8;fill:#ffffff;fill-opacity:1;fill-rule:evenodd;stroke:none"
       d="m 1443.7047,914.1352 -74.2785,48.70019 C 1309.044,1170.8072 1152.3879,1312.8636 969.2677,1368.2026 l -49.03858,76.129 c 304.51068,-56.3479 491.56648,-309.8047 523.47558,-530.1964 z"
       id="path7678-0"
       sodipodi:nodetypes="ccccc" /><path
       style="opacity:0.8;fill:#ffffff;fill-opacity:1;fill-rule:evenodd;stroke:none"
       d="M 83.634661,799.99019 357.1902,951.98081 357.1648,638.25724 Z"
       id="path7677-46"
       sodipodi:nodetypes="cccc" /><path
       style="opacity:0.8;fill:#ffffff;fill-opacity:1;fill-rule:evenodd;stroke:none"
       d="m 685.27807,1443.9091 -47.99602,-74.2338 C 427.7003,1305.6352 295.52829,1159.9436 231.51572,969.92166 l -73.85975,-50.51467 c 45.04353,289.78381 307.98086,495.89701 527.6221,524.50211 z"
       id="path7678-5"
       sodipodi:nodetypes="ccccc" /></g></svg>
