<?xml version="1.0" encoding="UTF-8" standalone="no"?>
<svg
   height="1500"
   viewBox="0 0 1600 1500"
   width="1600"
   version="1.1"
   id="svg2"
   sodipodi:docname="ops.sculpt.mask_by_color.svg"
   inkscape:version="1.3.2 (091e20e, 2023-11-25, custom)"
   xml:space="preserve"
   xmlns:inkscape="http://www.inkscape.org/namespaces/inkscape"
   xmlns:sodipodi="http://sodipodi.sourceforge.net/DTD/sodipodi-0.dtd"
   xmlns="http://www.w3.org/2000/svg"
   xmlns:svg="http://www.w3.org/2000/svg"><defs
     id="defs2" /><sodipodi:namedview
     pagecolor="#303030"
     showgrid="true"
     id="namedview1"
     bordercolor="#000000"
     borderopacity="0.25"
     inkscape:showpageshadow="2"
     inkscape:pageopacity="0.0"
     inkscape:pagecheckerboard="0"
     inkscape:deskcolor="#d1d1d1"
     inkscape:zoom="0.31999999"
     inkscape:cx="1250.0001"
     inkscape:cy="1007.8125"
     inkscape:window-width="1920"
     inkscape:window-height="1009"
     inkscape:window-x="1912"
     inkscape:window-y="-8"
     inkscape:window-maximized="1"
     inkscape:current-layer="layer2"
     showguides="true"><inkscape:grid
       id="grid5"
       units="px"
       spacingx="50"
       spacingy="50"
       color="#4772b3"
       opacity="0.2"
       visible="true"
       originx="0"
       originy="0"
       empspacing="2" /></sodipodi:namedview><g
     inkscape:groupmode="layer"
     id="layer2"
     inkscape:label="icon"><g
       id="g13"
       transform="matrix(1.1765665,0,0,1.1836819,-21.352765,-259.23652)"><path
         style="opacity:1;fill:#9b9b9b;fill-opacity:1;stroke:none;stroke-width:53.2051;stroke-miterlimit:1000"
         d="M 391.94922,371.68555 A 550.21747,550.21747 0 0 0 103.72656,853.92773 550.21747,550.21747 0 0 0 606.1582,1400.7266 c -2.06259,-33.1206 -9.78598,-62.3378 -22.39258,-89.7871 -26.74751,-58.2396 -77.635,-111.0084 -146.98437,-170.7247 -94.7331,-81.5739 -146.498,-199.15419 -163.42578,-317.70699 -16.92778,-118.55279 0.19268,-238.97816 49.10547,-331.40429 19.84583,-37.50092 41.73848,-77.72856 69.48828,-119.41797 z"
         id="path12" /><path
         style="opacity:1;fill:#75ffaf;fill-opacity:1;stroke:none;stroke-width:53.2051;stroke-miterlimit:1000"
         d="m 653.94336,303.71094 a 550.21747,550.21747 0 0 0 -135.68359,18.08203 c -62.79542,69.20824 -99.38964,136.78917 -133.92774,202.05273 -40.08008,75.73577 -56.69032,183.64142 -41.67969,288.76758 15.01064,105.12616 60.85247,206.57342 139.80469,274.55862 71.77469,61.8046 131.00825,120.714 164.91992,194.5527 16.85815,36.7066 26.66992,76.6602 28.61719,120.707 A 550.21747,550.21747 0 0 0 1027.8164,1256.1973 L 793.60156,1026.2598 c -12.17414,33.2683 -44.74874,57.2231 -81.75195,56.4023 -44.34326,-0.9842 -80.7545,-37.2115 -82.91797,-80.9336 l -38.34375,33.6309 1.27734,-1.1602 c -33.76995,31.748 -88.39852,30.0632 -120.14843,-3.7051 h -0.002 c -31.74992,-33.77158 -30.06168,-88.40334 3.71094,-120.1523 l -1.25781,1.22265 33.10156,-33.38086 c -45.91047,-1.73075 -83.02077,-41.12918 -81.79687,-87.15625 1.15959,-43.67021 36.46153,-79.55569 79.30859,-82.51367 l -28.90039,-30.69922 1.16016,1.19336 c -32.87777,-32.67494 -33.04516,-87.33228 -0.36914,-120.20898 v -0.002 c 15.87774,-15.97421 37.50251,-25.00893 60.02539,-25.07813 h 0.002 c 22.52452,-0.069 44.20579,8.83412 60.18164,24.71289 l -0.86328,-0.83594 40.08594,37.97266 0.43359,-8.63477 -0.0566,1.71289 c 0.73393,-46.34705 39.99087,-84.37978 86.33789,-83.64453 l 0.002,-0.002 c 45.52751,0.72353 82.9386,38.63797 83.55078,83.91016 l 30.46485,-28.9668 -0.90235,0.88086 c 15.92633,-15.92722 37.57773,-24.89754 60.10157,-24.89844 h 0.004 c 22.52384,9e-4 44.17524,8.97122 60.10156,24.89844 32.77568,32.77605 32.77636,87.43145 0,120.20703 l 0.60938,-0.61914 -31.47852,32.5918 c 43.41922,3.17624 78.72352,40.07045 78.96682,84.23047 0.234,42.41406 -31.95723,78.46046 -72.93752,84.49023 l 212.69142,219.90629 a 550.21747,550.21747 0 0 0 60.168,-247.70317 550.21747,550.21747 0 0 0 -550.21684,-550.21679 z"
         id="path1" /><path
         style="opacity:1;fill:#ffffff;stroke:none;stroke-linecap:round;stroke-linejoin:bevel;stroke-miterlimit:1000"
         d="m 722.02539,554.99609 c -19.32792,-0.30662 -35.24471,15.11348 -35.55078,34.44141 l -5.875,117.15234 -118.9668,-112.69531 c -6.58409,-6.54408 -15.49824,-10.20444 -24.78125,-10.17578 -9.28226,0.0283 -18.17312,3.74274 -24.71679,10.32617 -13.62676,13.71045 -13.55855,35.87174 0.15234,49.49805 l 103.74219,110.20117 -104.65625,4.55274 c -19.32363,-0.5138 -35.40486,14.73494 -35.91797,34.05859 -0.51381,19.32289 14.73376,35.4038 34.05664,35.91797 l 112.78906,4.92187 -112.6289,113.57617 c -14.08407,13.24015 -14.7679,35.39091 -1.52735,49.47461 13.2405,14.08221 35.38974,14.76511 49.47266,1.52539 l 118.71875,-104.13086 2.4082,103.26563 c -0.42978,19.32585 14.88898,35.34065 34.21484,35.76955 19.32508,0.4287 35.33872,-14.8898 35.76758,-34.21486 l 4.75782,-81.65235 473.07812,464.44141 c 27.9173,27.4077 85.691,-26.5372 59.375,-60.9375 l -466.75,-482.58203 100.24414,-5.02539 c 19.33009,-0.1065 34.91373,-15.86327 34.80664,-35.19336 -0.1065,-19.32932 -15.86208,-34.91264 -35.1914,-34.80664 L 811.4082,758.92188 920.78516,645.67773 c 13.66873,-13.66841 13.66873,-35.82963 0,-49.49804 -6.56349,-6.56386 -15.46561,-10.25159 -24.74805,-10.25196 -9.28244,3.7e-4 -18.18456,3.6881 -24.74805,10.25196 L 758.94141,703.00195 756.46484,590.54688 c 0.30663,-19.32718 -15.11229,-35.24364 -34.43945,-35.55079 z"
         id="path11"
         sodipodi:nodetypes="cccccccccccccccccscccccccccccccccc" /></g></g></svg>
