<?xml version="1.0" encoding="UTF-8" standalone="no"?>
<svg
   height="1600"
   viewBox="0 0 1600 1600"
   width="1600"
   version="1.1"
   id="svg2"
   sodipodi:docname="ops.sculpt.color_filter.svg"
   inkscape:version="1.3.2 (091e20e, 2023-11-25, custom)"
   xml:space="preserve"
   xmlns:inkscape="http://www.inkscape.org/namespaces/inkscape"
   xmlns:sodipodi="http://sodipodi.sourceforge.net/DTD/sodipodi-0.dtd"
   xmlns="http://www.w3.org/2000/svg"
   xmlns:svg="http://www.w3.org/2000/svg"><defs
     id="defs2" /><sodipodi:namedview
     pagecolor="#303030"
     showgrid="true"
     id="namedview1"
     bordercolor="#000000"
     borderopacity="0.25"
     inkscape:showpageshadow="2"
     inkscape:pageopacity="0.0"
     inkscape:pagecheckerboard="0"
     inkscape:deskcolor="#d1d1d1"
     inkscape:zoom="0.22627417"
     inkscape:cx="1299.3087"
     inkscape:cy="1434.1009"
     inkscape:window-width="1920"
     inkscape:window-height="1009"
     inkscape:window-x="1912"
     inkscape:window-y="-8"
     inkscape:window-maximized="1"
     inkscape:current-layer="layer2"
     showguides="true"><inkscape:grid
       id="grid5"
       units="px"
       spacingx="50"
       spacingy="50"
       color="#4772b3"
       opacity="0.2"
       visible="true"
       originx="0"
       originy="0"
       empspacing="2" /></sodipodi:namedview><g
     inkscape:groupmode="layer"
     id="layer2"
     inkscape:label="icon"><g
       id="g1"
       transform="matrix(1.1656854,0,0,1.1597048,-20.91136,-128.11391)"><path
         style="opacity:1;fill:#9b9b9b;fill-opacity:1;stroke:none;stroke-width:53.2051;stroke-miterlimit:1000"
         d="m 335.32227,406.88867 a 550.21747,550.21747 0 0 0 -231.59571,447.03906 550.21747,550.21747 0 0 0 550.2168,550.21677 550.21747,550.21747 0 0 0 447.62114,-232.373 H 832.68359 c -4.80558,69.3261 -62.97068,124.5527 -133.46484,124.5527 -70.49416,0 -128.65926,-55.2266 -133.46484,-124.5527 H 335.32227 Z"
         id="path12" /><path
         id="path7"
         style="color:#000000;font-style:normal;font-variant:normal;font-weight:normal;font-stretch:normal;font-size:medium;line-height:normal;font-family:sans-serif;font-variant-ligatures:normal;font-variant-position:normal;font-variant-caps:normal;font-variant-numeric:normal;font-variant-alternates:normal;font-variant-east-asian:normal;font-feature-settings:normal;font-variation-settings:normal;text-indent:0;text-align:start;text-decoration-line:none;text-decoration-style:solid;text-decoration-color:#000000;letter-spacing:normal;word-spacing:normal;text-transform:none;writing-mode:lr-tb;direction:ltr;text-orientation:mixed;dominant-baseline:auto;baseline-shift:baseline;text-anchor:start;white-space:normal;shape-padding:0;shape-margin:0;inline-size:0;clip-rule:nonzero;display:inline;overflow:visible;visibility:visible;isolation:auto;mix-blend-mode:normal;color-interpolation:sRGB;color-interpolation-filters:linearRGB;solid-color:#000000;solid-opacity:1;vector-effect:none;fill:#f9f9f9;fill-opacity:1;fill-rule:nonzero;stroke:none;stroke-linecap:butt;stroke-linejoin:miter;stroke-miterlimit:1000;stroke-dasharray:none;stroke-dashoffset:0;stroke-opacity:1;-inkscape-stroke:none;color-rendering:auto;image-rendering:auto;shape-rendering:auto;text-rendering:auto;enable-background:accumulate;stop-color:#000000"
         d="m 385.32227,196.93555 v 924.83595 h 186.47656 c 6.06686,-18.85 16.28735,-35.8226 29.41797,-50 H 435.32227 V 246.93555 H 1254.998 V 1071.7715 H 797.70898 c 0.81067,0.9808 1.64448,1.9285 2.43946,2.9258 11.77307,13.5245 20.78423,29.5536 26.40625,47.0742 H 1304.998 V 196.93555 Z" /><path
         id="path14"
         style="opacity:1;fill:#75ffaf;fill-opacity:1;stroke:none;stroke-width:53.2051;stroke-miterlimit:1000"
         d="m 653.94336,303.71094 c -57.28872,0.28629 -114.18127,9.51797 -168.62109,27.36133 v 690.69923 h 196.8789 c -1e-5,20.8182 -6.64609,41.5565 -15.24218,52.6914 -8.59609,11.1349 -16.42198,18.5381 -25.98829,27.7949 -15.79458,15.2835 -25.57616,36.4468 -25.57617,60.2422 2e-5,46.5913 37.23286,83.8242 83.82422,83.8242 46.59136,0 83.8242,-37.2329 83.82422,-83.8242 -10e-6,-21.2862 -7.82252,-40.4296 -20.79492,-55.2207 -9.1185,-10.8635 -18.70812,-18.3137 -28.05665,-30.5157 -9.34853,-12.202 -15.83983,-33.4106 -15.83984,-54.9921 h 458.73634 c 17.6655,-54.20743 26.7986,-110.83114 27.0723,-167.84377 -2e-4,-145.92652 -57.9686,-285.87688 -161.1543,-389.0625 C 939.82024,361.6796 799.86988,303.71111 653.94336,303.71094 Z"
         sodipodi:nodetypes="cccczssssczcccsc" /></g></g></svg>
