<?xml version="1.0" encoding="UTF-8" standalone="no"?>
<svg
   height="1600"
   viewBox="0 0 1600 1600"
   width="1600"
   version="1.1"
   id="svg2"
   sodipodi:docname="ops.sculpt.border_face_set.svg"
   inkscape:version="1.3.2 (091e20e, 2023-11-25, custom)"
   xml:space="preserve"
   xmlns:inkscape="http://www.inkscape.org/namespaces/inkscape"
   xmlns:sodipodi="http://sodipodi.sourceforge.net/DTD/sodipodi-0.dtd"
   xmlns="http://www.w3.org/2000/svg"
   xmlns:svg="http://www.w3.org/2000/svg"><defs
     id="defs2" /><sodipodi:namedview
     pagecolor="#303030"
     showgrid="true"
     id="namedview1"
     bordercolor="#000000"
     borderopacity="0.25"
     inkscape:showpageshadow="2"
     inkscape:pageopacity="0.0"
     inkscape:pagecheckerboard="0"
     inkscape:deskcolor="#d1d1d1"
     inkscape:zoom="0.1370022"
     inkscape:cx="1317.4971"
     inkscape:cy="1616.7624"
     inkscape:window-width="1920"
     inkscape:window-height="1009"
     inkscape:window-x="1912"
     inkscape:window-y="-8"
     inkscape:window-maximized="1"
     inkscape:current-layer="layer2"><inkscape:grid
       id="grid5"
       units="px"
       spacingx="50"
       spacingy="50"
       color="#4772b3"
       opacity="0.2"
       visible="true"
       originx="0"
       originy="0"
       empspacing="2" /></sodipodi:namedview><g
     inkscape:groupmode="layer"
     id="layer2"
     inkscape:label="icon"
     transform="matrix(1.1627584,0,0,1.1693625,-16.768065,-130.24703)"><g
       id="g3"
       inkscape:label="red"><path
         style="fill:#f56b5b;fill-opacity:1;stroke:none;stroke-width:50.33;stroke-linecap:butt;stroke-linejoin:miter;stroke-miterlimit:1000;stroke-dasharray:none"
         d="m 128.14844,1011.6914 a 558.38519,551.08606 0 0 0 530.71094,382.4473 558.38519,551.08606 0 0 0 450.18942,-227.3672 H 340.32227 v -77.709 c -50.7281,0.016 -101.03435,-11.4453 -145.86329,-33.0762 -23.90661,-11.5354 -46.42613,-26.4482 -66.31054,-44.2949 z"
         id="path11" /></g><g
       id="g2"
       inkscape:label="white"><rect
         style="fill:none;fill-opacity:0.56124;stroke:#f9f9f9;stroke-width:50;stroke-linecap:butt;stroke-linejoin:miter;stroke-miterlimit:1000;stroke-dasharray:none"
         id="rect4"
         width="869.67578"
         height="874.83704"
         x="410.32181"
         y="221.93506" /></g><g
       id="g1"
       inkscape:label="yellow"><path
         id="ellipse4"
         style="fill:#ffe264;fill-opacity:1;stroke:none;stroke-width:50.33;stroke-linecap:butt;stroke-linejoin:miter;stroke-miterlimit:1000;stroke-dasharray:none"
         d="m 658.85938,291.9668 c -60.78463,0.42919 -121.09042,10.65092 -178.53711,30.26172 v 704.54298 h 703.41013 c 12.0662,-33.27082 21.3107,-67.54345 26.2656,-102.54298 11.0171,-77.82039 6.8146,-122.82015 0,-164.69336 C 1166.3235,491.17341 934.26841,292.35475 658.85938,291.9668 Z"
         sodipodi:nodetypes="ccccssc" /></g><g
       id="path7"
       inkscape:label="green"><path
         id="path9"
         style="fill:#75ffaf;stroke-miterlimit:1000"
         d="m 340.32227,390.51953 c -27.08181,18.56729 -52.66203,39.52766 -76.30079,62.85742 -104.71744,103.34864 -163.54684,243.51876 -163.54687,389.67578 0.41027,8.29945 1.01068,16.58868 1.80078,24.86133 15.17244,106.29792 126.71224,170.82794 238.04688,171.01954 z" /></g></g></svg>
