<?xml version="1.0" encoding="UTF-8" standalone="no"?>
<svg
   height="1600"
   viewBox="0 0 1500 1600"
   width="1500"
   version="1.1"
   id="svg2"
   sodipodi:docname="ops.transform.vert_slide.svg"
   inkscape:version="1.3.2 (091e20e, 2023-11-25, custom)"
   xml:space="preserve"
   xmlns:inkscape="http://www.inkscape.org/namespaces/inkscape"
   xmlns:sodipodi="http://sodipodi.sourceforge.net/DTD/sodipodi-0.dtd"
   xmlns="http://www.w3.org/2000/svg"
   xmlns:svg="http://www.w3.org/2000/svg"><defs
     id="defs2" /><sodipodi:namedview
     pagecolor="#303030"
     showgrid="true"
     id="namedview1"
     bordercolor="#000000"
     borderopacity="0.25"
     inkscape:showpageshadow="2"
     inkscape:pageopacity="0.0"
     inkscape:pagecheckerboard="0"
     inkscape:deskcolor="#d1d1d1"
     inkscape:zoom="0.17964932"
     inkscape:cx="1322.0201"
     inkscape:cy="1411.0825"
     inkscape:window-width="1920"
     inkscape:window-height="1009"
     inkscape:window-x="1912"
     inkscape:window-y="-8"
     inkscape:window-maximized="1"
     inkscape:current-layer="svg2"><inkscape:grid
       id="grid5"
       units="px"
       spacingx="50"
       spacingy="50"
       color="#4772b3"
       opacity="0.2"
       visible="true"
       originx="0"
       originy="0"
       empspacing="2" /></sodipodi:namedview><g
     id="g3"
     transform="matrix(1.1360457,0,0,1.1354377,-70.152748,18.315941)"><g
       id="g1"
       inkscape:label="purple"
       style="fill:#d9aff5;fill-opacity:1"
       transform="matrix(1.1428571,0,0,1.1428571,-114.28571,-114.28571)"><path
         d="m 627.78782,651.41883 c 22.74723,-15.75514 33.45454,-52.76124 22.63455,-78.22879 l 243.8685,-168.15555 -19.8616,-28.80459 -243.8685,168.15584 c -16.46618,-14.99868 -43.68378,-20.83535 -64.85187,-13.90758 -21.51612,5.75772 -41.12797,25.51208 -46.72987,47.06927 -6.77464,21.21784 -0.74083,48.39254 14.37646,64.74962 14.19841,17.16076 40.32786,26.75919 62.25858,22.87035 l 246.27324,576.3145 32.17355,-13.7472 z"
         stroke-width="0.541938"
         id="path1"
         style="fill:#d9aff5;fill-opacity:1" /><path
         d="M 472.51449,298.99854 V 249.58225 H 388.42945 V 162.62437 L 231.05046,274.29045 388.42945,385.95642 v -86.95788 z"
         stroke-width="0.541938"
         id="path2"
         style="fill:#d9aff5;fill-opacity:1" /></g><g
       id="g2"
       inkscape:label="gray"
       style="fill:#e5e5e5;fill-opacity:1"
       transform="matrix(1.1428571,0,0,1.1428571,-114.28571,-114.28571)"><path
         id="path3"
         d="m 969.32812,366.53906 v 34.98828 H 1172.6543 L 994.9082,579.27344 H 685.0957 v 34.98828 h 299.56446 v 588.46098 h -36.98047 v 34.9863 h 68.76371 l 215.9394,-215.9395 V 366.53906 Z m 228.06638,59.72852 v 581.00972 l -177.7461,177.7461 V 604.01562 Z"
         style="fill:#e5e5e5;fill-opacity:1" /><path
         d="m 399.47078,614.26252 h 96.35011 V 579.27439 H 413.96338 L 591.71027,401.52743 H 777.41295 V 366.5394 H 577.21773 L 364.48272,579.27439 v 658.43431 h 395.54516 v -34.9868 h -360.5571 z"
         stroke-width="0.541938"
         id="path5"
         style="fill:#e5e5e5;fill-opacity:1" /></g></g></svg>
