<?xml version="1.0" encoding="UTF-8" standalone="no"?>
<svg
   height="1600"
   viewBox="0 0 1430 1600"
   width="1430"
   version="1.1"
   id="svg2"
   sodipodi:docname="ops.view3d.ruler.svg"
   inkscape:version="1.3.2 (091e20e, 2023-11-25, custom)"
   xml:space="preserve"
   xmlns:inkscape="http://www.inkscape.org/namespaces/inkscape"
   xmlns:sodipodi="http://sodipodi.sourceforge.net/DTD/sodipodi-0.dtd"
   xmlns="http://www.w3.org/2000/svg"
   xmlns:svg="http://www.w3.org/2000/svg"><defs
     id="defs2" /><sodipodi:namedview
     pagecolor="#303030"
     showgrid="true"
     id="namedview1"
     bordercolor="#000000"
     borderopacity="0.25"
     inkscape:showpageshadow="2"
     inkscape:pageopacity="0.0"
     inkscape:pagecheckerboard="0"
     inkscape:deskcolor="#d1d1d1"
     inkscape:zoom="0.38750074"
     inkscape:cx="477.41844"
     inkscape:cy="976.77233"
     inkscape:window-width="1920"
     inkscape:window-height="1009"
     inkscape:window-x="1912"
     inkscape:window-y="-8"
     inkscape:window-maximized="1"
     inkscape:current-layer="svg2"><inkscape:grid
       id="grid5"
       units="px"
       spacingx="50"
       spacingy="50"
       color="#4772b3"
       opacity="0.2"
       visible="true"
       originx="0"
       originy="0"
       empspacing="2" /></sodipodi:namedview><path
     style="display:inline;fill:#e5e5e5;stroke:none;stroke-width:1.40581"
     d="m 100.02536,100.01817 v 80.59986 H 189.9973 V 1419.6067 h -89.97194 v 80.5998 H 1329.6418 v -208.0601 c -349.78911,0.1082 -604.86791,-1.8559 -899.71933,0 V 100.01817 Z"
     id="path3505"
     inkscape:label="ruler"
     sodipodi:nodetypes="ccccccccccc" /><path
     style="fill:#010101;stroke:none;stroke-width:1.40581"
     d="m 1239.6699,1292.1464 v 118.0881 h 22.493 v -118.0881 z"
     id="path4448" /><path
     style="fill:#010101;stroke:none;stroke-width:1.40581"
     d="m 1149.6979,1292.1464 v 118.0881 h 22.493 v -118.0881 z"
     id="path4446" /><path
     style="fill:#010101;stroke:none;stroke-width:1.40581"
     d="m 1059.726,1292.1464 v 118.0881 h 22.493 v -118.0881 z"
     id="path4444" /><path
     style="fill:#010101;stroke:none;stroke-width:1.40581"
     d="m 969.75408,1292.1464 v 155.5765 h 22.49299 v -155.5765 z"
     id="path4442" /><path
     style="fill:#010101;stroke:none;stroke-width:1.40581"
     d="m 879.78215,1292.1464 v 118.0881 h 22.49299 v -118.0881 z"
     id="path4440" /><path
     style="fill:#010101;stroke:none;stroke-width:1.40581"
     d="m 789.81021,1292.1464 v 118.0881 h 22.49299 v -118.0881 z"
     id="path4438" /><path
     style="fill:#010101;stroke:none;stroke-width:1.40581"
     d="m 699.83828,1292.1464 v 118.0881 h 22.49297 v -118.0881 z"
     id="path4436" /><path
     style="fill:#010101;stroke:none;stroke-width:1.40581"
     d="m 609.86634,1292.1464 v 118.0881 h 22.49299 v -118.0881 z"
     id="path4434" /><path
     style="fill:#010101;stroke:none;stroke-width:1.40581"
     d="m 519.8944,1292.1464 v 118.0881 h 22.49298 v -118.0881 z"
     id="path4432" /><path
     style="fill:#010101;stroke:none;stroke-width:1.40581"
     d="m 429.92247,1292.1464 v 155.5765 h 22.49299 v -155.5765 z"
     id="path4430" /><path
     style="fill:#010101;stroke:none;stroke-width:1.40581"
     d="m 249.97859,1262.1558 v 28.1162 h 179.94388 v -28.1162 z"
     id="path4388" /><path
     style="fill:#010101;stroke:none;stroke-width:1.40581"
     d="m 249.97859,722.32407 v 20.61857 h 179.94388 v -20.61857 z"
     id="path3865" /><path
     style="fill:#010101;stroke:none;stroke-width:1.40581"
     d="M 302.46223,632.35214 V 652.9707 H 429.92247 V 632.35214 Z"
     id="path3663" /><path
     style="fill:#010101;stroke:none;stroke-width:1.40581"
     d="m 302.46223,542.3802 v 20.61857 H 429.92247 V 542.3802 Z"
     id="path3539" /><path
     style="fill:#010101;stroke:none;stroke-width:1.40581"
     d="m 302.46223,452.40826 v 20.61857 h 127.46024 v -20.61857 z"
     id="path3532" /><path
     style="fill:#010101;stroke:none;stroke-width:1.40581"
     d="m 302.46223,362.43633 v 20.61856 h 127.46024 v -20.61856 z"
     id="path3525" /><path
     style="fill:#010101;stroke:none;stroke-width:1.40581"
     d="m 302.46223,272.46438 v 20.61858 h 127.46024 v -20.61858 z"
     id="path3518" /><path
     style="fill:#010101;stroke:none;stroke-width:1.40581"
     d="m 302.33548,1173.4692 v 20.6185 h 127.46024 v -20.6185 z"
     id="path3663-1"
     sodipodi:nodetypes="ccccc" /><path
     style="fill:#010101;stroke:none;stroke-width:1.40581"
     d="m 302.33548,1083.4972 v 20.6186 h 127.46024 v -20.6186 z"
     id="path3539-5"
     sodipodi:nodetypes="ccccc" /><path
     style="fill:#010101;stroke:none;stroke-width:1.40581"
     d="m 302.33548,993.52524 v 20.61856 h 127.46024 v -20.61856 z"
     id="path3532-0"
     sodipodi:nodetypes="ccccc" /><path
     style="fill:#010101;stroke:none;stroke-width:1.40581"
     d="m 302.33548,903.55331 v 20.61856 h 127.46024 v -20.61856 z"
     id="path3525-7"
     sodipodi:nodetypes="ccccc" /><path
     style="fill:#010101;stroke:none;stroke-width:1.40581"
     d="m 302.33548,813.58136 v 20.61858 h 127.46024 v -20.61858 z"
     id="path3518-1"
     sodipodi:nodetypes="ccccc" /><path
     style="fill:#010101;stroke:none;stroke-width:1.40581"
     d="m 249.97859,182.49244 v 20.61858 h 179.94388 v -20.61858 z"
     id="path3511" /><path
     style="fill:#75ffaf;stroke:none;stroke-width:1.40581"
     d="M 476.38582,699.83108 V 1245.286 H 1021.8407 C 1022.372,917.80749 754.72219,698.54843 476.38582,699.83108 Z"
     id="path3806"
     inkscape:label="inner"
     sodipodi:nodetypes="cccc" /><path
     style="fill:#75ffaf;stroke:none;stroke-width:1.40581"
     d="m 474.56104,564.87318 v 50.60922 c 367.95017,-5.88197 632.83146,292.67263 635.42686,629.8036 h 52.4835 C 1163.6692,859.42121 870.65318,563.2793 474.56104,564.87318 Z"
     id="path3546"
     inkscape:label="outer"
     sodipodi:nodetypes="ccccc" /></svg>
