<?xml version="1.0" encoding="UTF-8" standalone="no"?>
<svg
   height="1600"
   viewBox="0 0 1600 1600"
   width="1600"
   version="1.1"
   id="svg2"
   sodipodi:docname="ops.transform.resize_cage.svg"
   inkscape:version="1.3.2 (091e20e, 2023-11-25, custom)"
   xml:space="preserve"
   xmlns:inkscape="http://www.inkscape.org/namespaces/inkscape"
   xmlns:sodipodi="http://sodipodi.sourceforge.net/DTD/sodipodi-0.dtd"
   xmlns="http://www.w3.org/2000/svg"
   xmlns:svg="http://www.w3.org/2000/svg"><defs
     id="defs2" /><sodipodi:namedview
     pagecolor="#303030"
     showgrid="true"
     id="namedview1"
     bordercolor="#000000"
     borderopacity="0.25"
     inkscape:showpageshadow="2"
     inkscape:pageopacity="0.0"
     inkscape:pagecheckerboard="0"
     inkscape:deskcolor="#d1d1d1"
     inkscape:zoom="0.21446134"
     inkscape:cx="827.65499"
     inkscape:cy="790.35223"
     inkscape:window-width="1920"
     inkscape:window-height="1009"
     inkscape:window-x="1912"
     inkscape:window-y="-8"
     inkscape:window-maximized="1"
     inkscape:current-layer="svg2"><inkscape:grid
       id="grid5"
       units="px"
       spacingx="50"
       spacingy="50"
       color="#4772b3"
       opacity="0.2"
       visible="true"
       originx="0"
       originy="0"
       empspacing="2" /></sodipodi:namedview><g
     id="g6"
     transform="matrix(1.3476484,0,0,1.3476484,-306.00057,-250.23683)"><g
       id="g2"
       inkscape:label="dark gray"
       transform="matrix(1.1695366,0,0,1.1695366,-139.10799,-132.15055)"
       style="fill:#b3b3b3;fill-opacity:1"><g
         id="g4"
         style="fill:none;stroke:#b2b2b2;stroke-width:30.7814;stroke-dasharray:none;stroke-opacity:1"
         inkscape:label="lines"><path
           d="M 556.88606,1043.1143 H 1214.5326 V 385.46765 H 556.88606 Z"
           stroke="#000000"
           stroke-width="1.35717"
           fill="none"
           id="path1"
           style="fill:none;fill-opacity:1;stroke:#b2b2b2;stroke-width:30.7814;stroke-dasharray:none;stroke-opacity:1" /><path
           d="M 1084.1524,515.84743 1214.5326,385.46765"
           stroke="#000000"
           stroke-width="1.35717"
           fill="none"
           id="path4"
           style="fill:none;fill-opacity:1;stroke:#b2b2b2;stroke-width:30.7814;stroke-dasharray:none;stroke-opacity:1" /><path
           d="M 426.50552,1173.494 556.88606,1043.1143"
           stroke="#000000"
           stroke-width="1.35717"
           fill="none"
           id="path5"
           style="fill:none;fill-opacity:1;stroke:#b2b2b2;stroke-width:30.7814;stroke-dasharray:none;stroke-opacity:1" /><path
           d="M 426.50552,515.84743 556.88606,385.46765"
           stroke="#000000"
           stroke-width="1.35717"
           fill="none"
           id="path7"
           style="fill:none;fill-opacity:1;stroke:#b2b2b2;stroke-width:30.7814;stroke-dasharray:none;stroke-opacity:1" /><path
           d="m 1084.1524,1173.494 130.3802,-130.3797"
           stroke="#000000"
           stroke-width="1.35717"
           fill="none"
           id="path14"
           style="fill:none;fill-opacity:1;stroke:#b2b2b2;stroke-width:30.7814;stroke-dasharray:none;stroke-opacity:1" /></g><g
         id="g3"
         style="stroke:none"
         inkscape:label="dots"><path
           d="m 606.84324,385.46765 c 2.49209,-24.58276 -25.37513,-52.44986 -49.95718,-49.95777 -24.58288,-2.49209 -52.45053,25.37501 -49.95802,49.95777 -2.49251,24.58216 25.37514,52.44927 49.95802,49.95717 24.58205,2.4921 52.44927,-25.37501 49.95718,-49.95717 z"
           stroke="#000000"
           stroke-width="1.35717"
           fill="none"
           id="path2"
           style="fill:#b3b3b3;fill-opacity:1;stroke:none" /><path
           d="m 1264.4897,1043.1143 c 2.4922,-24.5828 -25.3747,-52.44984 -49.9571,-49.95833 -24.5824,-2.49151 -52.4498,25.37553 -49.9576,49.95833 -2.4922,24.5821 25.3752,52.4492 49.9576,49.9577 24.5824,2.4915 52.4493,-25.3756 49.9571,-49.9577 z"
           stroke="#000000"
           stroke-width="1.35717"
           fill="none"
           id="path3"
           style="fill:#b3b3b3;fill-opacity:1;stroke:none" /><path
           d="m 1264.4897,385.46765 c 2.4922,-24.58276 -25.3747,-52.44986 -49.9571,-49.95777 -24.5824,-2.49209 -52.4498,25.37501 -49.9576,49.95777 -2.4922,24.58216 25.3752,52.44927 49.9576,49.95717 24.5824,2.4921 52.4493,-25.37501 49.9571,-49.95717 z"
           stroke="#000000"
           stroke-width="1.35717"
           fill="none"
           id="path8"
           style="fill:#b3b3b3;fill-opacity:1;stroke:none" /><path
           d="m 606.84324,1043.1143 c 2.49209,-24.5828 -25.37513,-52.44984 -49.95718,-49.95833 -24.58288,-2.49151 -52.45053,25.37553 -49.95802,49.95833 -2.49251,24.5821 25.37514,52.4492 49.95802,49.9577 24.58205,2.4915 52.44927,-25.3756 49.95718,-49.9577 z"
           stroke="#000000"
           stroke-width="1.35717"
           fill="none"
           id="path13"
           style="fill:#b3b3b3;fill-opacity:1;stroke:none" /></g></g><g
       id="g1"
       inkscape:label="light gray"
       transform="matrix(1.1695366,0,0,1.1695366,-139.10799,-132.15055)"
       style="display:inline;fill:#e5e5e5;fill-opacity:1;stroke:#b2b2b2;stroke-opacity:1"><path
         d="M 426.50552,1173.494 H 1084.1524 V 515.84743 H 426.50552 Z"
         stroke="#000000"
         stroke-width="1.35717"
         fill="none"
         id="path6"
         style="fill:none;fill-opacity:1;stroke:#e5e5e5;stroke-width:30.7814;stroke-dasharray:none;stroke-opacity:1" /><g
         id="g5"
         inkscape:label="dots"
         style="stroke:none"><path
           d="m 1134.1097,1173.494 c 2.4924,-24.5827 -25.3752,-52.4497 -49.9573,-49.9576 -24.5828,-2.4921 -52.45,25.3749 -49.9579,49.9576 -2.4921,24.5829 25.3751,52.45 49.9579,49.9578 24.5821,2.4922 52.4497,-25.3749 49.9573,-49.9578 z"
           stroke="#000000"
           stroke-width="1.35717"
           fill="none"
           id="path9"
           style="fill:#e5e5e5;fill-opacity:1;stroke:none;stroke-opacity:1" /><path
           d="m 476.4627,1173.494 c 2.49251,-24.5827 -25.37515,-52.4497 -49.95718,-49.9576 -24.58204,-2.4921 -52.44969,25.3749 -49.9576,49.9576 -2.49209,24.5829 25.37556,52.45 49.9576,49.9578 24.58203,2.4922 52.44969,-25.3749 49.95718,-49.9578 z"
           stroke="#000000"
           stroke-width="1.35717"
           fill="none"
           id="path10"
           style="fill:#e5e5e5;fill-opacity:1;stroke:none;stroke-opacity:1" /><path
           d="m 476.4627,515.84743 c 2.49251,-24.58274 -25.37515,-52.44981 -49.95718,-49.95771 -24.58204,-2.4921 -52.44969,25.37497 -49.9576,49.95771 -2.49209,24.58276 25.37556,52.44982 49.9576,49.95773 24.58203,2.49209 52.44969,-25.37497 49.95718,-49.95773 z"
           stroke="#000000"
           stroke-width="1.35717"
           fill="none"
           id="path11"
           style="fill:#e5e5e5;fill-opacity:1;stroke:none;stroke-opacity:1" /><path
           d="m 1134.1097,515.84743 c 2.4924,-24.58274 -25.3752,-52.44981 -49.9573,-49.95771 -24.5828,-2.4921 -52.45,25.37497 -49.9579,49.95771 -2.4921,24.58276 25.3751,52.44982 49.9579,49.95773 24.5821,2.49209 52.4497,-25.37497 49.9573,-49.95773 z"
           stroke="#000000"
           stroke-width="1.35717"
           fill="none"
           id="path12"
           style="fill:#e5e5e5;fill-opacity:1;stroke:none;stroke-opacity:1" /></g></g></g></svg>
