<?xml version="1.0" encoding="UTF-8" standalone="no"?>
<!DOCTYPE svg PUBLIC "-//W3C//DTD SVG 1.1//EN" "http://www.w3.org/Graphics/SVG/1.1/DTD/svg11.dtd">
<svg xmlns="http://www.w3.org/2000/svg" xmlns:xlink="http://www.w3.org/1999/xlink" xmlns:serif="http://www.serif.com/" width="100%" height="100%" viewBox="0 0 1600 1600" version="1.1" xml:space="preserve" style="fill-rule:evenodd;clip-rule:evenodd;stroke-linejoin:round;stroke-miterlimit:2;">
    <g id="rip">
        <g id="Pink">
            <circle cx="174.138" cy="885.972" r="83.616" style="fill:rgb(217,175,245);"/>
            <g transform="matrix(0.984074,-0.299682,-0.155337,-0.510083,125.104,1333.12)">
                <path d="M1190.9,837.18L289.972,837.18L289.972,766.327L1180.57,766.327L1190.9,837.18Z" style="fill:rgb(217,175,245);"/>
            </g>
            <path d="M251.507,970.35L454.746,1254.75L406.885,1254.75L218.212,993.935L251.507,970.35Z" style="fill:rgb(217,175,245);"/>
        </g>
        <g id="White">
            <path d="M430.071,1295.52L1197.13,1294.78L1197.13,563.359L1434.86,331.181L708.358,331.181L476.956,549.199L1050.19,549.199L920.337,587.11L469.187,587.11L469.187,729.724L430.071,738.048L430.071,549.199L692.265,293.558L1509.66,293.558L1509.66,1072.66L1237.75,1332.37L443.661,1332.37L430.071,1295.52ZM1467.37,367.355L1237.75,582.203L1237.75,1286.95L1467.37,1071.64L1467.37,367.355Z" style="fill:rgb(229,229,229);"/>
        </g>
    </g>
</svg>
