<?xml version="1.0" encoding="UTF-8" standalone="no"?>
<svg
   height="1600"
   viewBox="0 0 1600 1600"
   width="1600"
   version="1.1"
   id="svg2"
   sodipodi:docname="ops.sculpt.line_trim.svg"
   inkscape:version="1.3.2 (091e20e, 2023-11-25, custom)"
   xml:space="preserve"
   xmlns:inkscape="http://www.inkscape.org/namespaces/inkscape"
   xmlns:sodipodi="http://sodipodi.sourceforge.net/DTD/sodipodi-0.dtd"
   xmlns="http://www.w3.org/2000/svg"
   xmlns:svg="http://www.w3.org/2000/svg"><defs
     id="defs2" /><sodipodi:namedview
     pagecolor="#303030"
     showgrid="true"
     id="namedview1"
     bordercolor="#000000"
     borderopacity="0.25"
     inkscape:showpageshadow="2"
     inkscape:pageopacity="0.0"
     inkscape:pagecheckerboard="0"
     inkscape:deskcolor="#d1d1d1"
     inkscape:zoom="0.90509668"
     inkscape:cx="1231.3602"
     inkscape:cy="1226.9408"
     inkscape:window-width="1920"
     inkscape:window-height="1009"
     inkscape:window-x="1912"
     inkscape:window-y="-8"
     inkscape:window-maximized="1"
     inkscape:current-layer="layer2"
     showguides="true"><inkscape:grid
       id="grid5"
       units="px"
       spacingx="50"
       spacingy="50"
       color="#4772b3"
       opacity="0.2"
       visible="true"
       originx="0"
       originy="0"
       empspacing="2" /></sodipodi:namedview><g
     inkscape:groupmode="layer"
     id="layer2"
     inkscape:label="icon"><g
       id="g1"
       transform="matrix(1.1181934,0,0,1.0961333,-15.984682,-40.504119)"><path
         id="path1"
         style="opacity:1;fill:#9b9b9b;fill-opacity:1;stroke:none;stroke-width:53.2051;stroke-miterlimit:1000"
         d="m 213.25977,526.81641 c -70.63162,94.47672 -109.0306,209.1519 -109.53321,327.11132 1.9e-4,145.92651 57.96935,285.87617 161.15498,389.06177 103.18562,103.1857 243.13531,161.1548 389.06182,161.155 117.51506,-0.4999 231.78304,-38.6115 326.07031,-108.7539 z"
         sodipodi:nodetypes="ccsccc" /><path
         style="fill:#f56b5b;fill-opacity:1;stroke-miterlimit:1000"
         d="m 1194.2753,1320.5931 a 69.053398,69.053398 0 0 1 -69.0534,69.0534 69.053398,69.053398 0 0 1 -69.0534,-69.0534 69.053398,69.053398 0 0 1 69.0534,-69.0534 69.053398,69.053398 0 0 1 69.0534,69.0534 z"
         id="path5" /><path
         style="fill:#f56b5b;stroke-miterlimit:1000"
         d="m 281.30859,425.11914 c -9.57491,22.11068 -27.41414,39.91883 -49.55078,49.44336 l 799.57229,801.4727 c 10.361,-21.5744 27.9584,-39.1268 49.5605,-49.4375 z"
         id="path10" /><path
         style="fill:#f56b5b;fill-opacity:1;stroke-miterlimit:1000"
         d="m 263.98798,388.09604 a 69.053398,69.053398 0 0 1 -69.05339,69.0534 69.053398,69.053398 0 0 1 -69.0534,-69.0534 69.053398,69.053398 0 0 1 69.0534,-69.0534 69.053398,69.053398 0 0 1 69.05339,69.0534 z"
         id="path6" /><path
         style="fill:#f9f9f9;stroke-miterlimit:1000"
         d="m 1015.3795,128.85779 c -8.3807,-0.69382 -16.954,-0.55839 -25.6295,0.48088 -69.4021,8.31455 -118.92315,71.31656 -110.6092,140.71866 5.95175,49.47281 40.37779,90.85003 87.94263,105.69805 18.44737,5.44244 33.75077,11.25423 47.92737,18.94579 L 658.03013,508.07622 c -42.39295,13.46394 -98.19276,64.97437 -116.2614,110.69465 L 1009.0846,474.80558 877.97728,946.247 C 923.18127,926.923 973.1341,869.72396 985.4226,826.9753 l 103.6995,-360.73308 c 8.1736,14.0503 14.4653,29.28006 20.4615,47.71521 16.1552,47.13794 58.466,80.40967 108.0848,84.99348 69.6047,6.39632 131.2162,-44.84465 137.6126,-114.44987 6.3964,-69.60532 -44.8446,-131.21676 -114.4493,-137.61307 -18.0918,-1.66254 -36.3288,0.59377 -53.4722,6.60913 -14.1329,5.23065 -54.8337,27.28328 -92.0404,32.61078 4.3972,-37.23907 25.1942,-78.30255 30.017,-92.52619 5.5396,-17.30248 7.2919,-35.59528 5.1326,-53.63426 -7.2755,-60.72697 -56.4225,-106.23221 -115.0892,-111.08964 z"
         id="path9" /></g></g></svg>
