<?xml version="1.0" encoding="UTF-8" standalone="no"?>
<svg
   height="1600"
   viewBox="0 0 1600 1600"
   width="1600"
   version="1.1"
   id="svg2"
   sodipodi:docname="ops.sculpt.line_face_set.svg"
   inkscape:version="1.3.2 (091e20e, 2023-11-25, custom)"
   xml:space="preserve"
   xmlns:inkscape="http://www.inkscape.org/namespaces/inkscape"
   xmlns:sodipodi="http://sodipodi.sourceforge.net/DTD/sodipodi-0.dtd"
   xmlns="http://www.w3.org/2000/svg"
   xmlns:svg="http://www.w3.org/2000/svg"><defs
     id="defs2" /><sodipodi:namedview
     pagecolor="#303030"
     showgrid="true"
     id="namedview1"
     bordercolor="#000000"
     borderopacity="0.25"
     inkscape:showpageshadow="2"
     inkscape:pageopacity="0.0"
     inkscape:pagecheckerboard="0"
     inkscape:deskcolor="#d1d1d1"
     inkscape:zoom="0.22627417"
     inkscape:cx="1104.8543"
     inkscape:cy="1221.9689"
     inkscape:window-width="1920"
     inkscape:window-height="1009"
     inkscape:window-x="1912"
     inkscape:window-y="-8"
     inkscape:window-maximized="1"
     inkscape:current-layer="layer2"
     showguides="true"><inkscape:grid
       id="grid5"
       units="px"
       spacingx="50"
       spacingy="50"
       color="#4772b3"
       opacity="0.2"
       visible="true"
       originx="0"
       originy="0"
       empspacing="2" /></sodipodi:namedview><g
     inkscape:groupmode="layer"
     id="layer2"
     inkscape:label="icon"><g
       id="g1"
       transform="matrix(1.2720887,0,0,1.2720887,-32.352609,-286.82424)"><path
         style="opacity:1;fill:#f56b5b;fill-opacity:1;stroke:none;stroke-width:53.2051;stroke-miterlimit:1000"
         d="m 621.75,936.27734 c -35.10609,74.97306 -86.21447,134.01166 -149.78516,178.53126 -66.61412,46.6509 -146.24251,77.7202 -235.22656,97.5937 a 550.21747,550.21747 0 0 0 417.20508,191.7422 550.21747,550.21747 0 0 0 326.06836,-108.7558 z"
         id="path11" /><path
         style="opacity:1;fill:#75ffaf;fill-opacity:1;stroke:none;stroke-width:53.2051;stroke-miterlimit:1000"
         d="M 213.26172,526.81836 A 550.21747,550.21747 0 0 0 103.72656,853.92773 550.21747,550.21747 0 0 0 203.6875,1168.252 c 93.49616,-18.5949 174.63985,-48.9108 239.5957,-94.4004 61.70519,-43.2132 109.42932,-99.82322 140.76172,-175.37113 z"
         id="path10" /><path
         style="opacity:1;fill:#ffe263;fill-opacity:1;stroke:none;stroke-width:53.2051;stroke-miterlimit:1000"
         d="M 653.94336,303.71094 A 550.21747,550.21747 0 0 0 334.42188,407.56445 L 1099.5293,1174.4863 A 550.21747,550.21747 0 0 0 1204.1602,853.92773 550.21747,550.21747 0 0 0 653.94336,303.71094 Z"
         id="path1" /><path
         id="path4"
         style="fill:#ffffff;stroke-miterlimit:1000"
         d="m 281.30859,425.11914 c -9.57491,22.11068 -27.41414,39.91883 -49.55078,49.44336 l 799.57229,801.4727 c 10.361,-21.5744 27.9584,-39.1268 49.5605,-49.4375 z"
         sodipodi:nodetypes="ccccc" /><path
         style="fill:#f9f9f9;stroke-miterlimit:1000"
         d="m 263.98798,388.09604 a 69.053398,69.053398 0 0 1 -69.05339,69.0534 69.053398,69.053398 0 0 1 -69.0534,-69.0534 69.053398,69.053398 0 0 1 69.0534,-69.0534 69.053398,69.053398 0 0 1 69.05339,69.0534 z"
         id="path6" /><path
         style="fill:#f9f9f9;stroke-miterlimit:1000"
         d="m 1194.2753,1320.5931 a 69.053398,69.053398 0 0 1 -69.0534,69.0534 69.053398,69.053398 0 0 1 -69.0534,-69.0534 69.053398,69.053398 0 0 1 69.0534,-69.0534 69.053398,69.053398 0 0 1 69.0534,69.0534 z"
         id="path5" /></g></g></svg>
