<?xml version="1.0" encoding="UTF-8" standalone="no"?>
<svg
   id="Calque_1"
   data-name="Calque 1"
   version="1.1"
   viewBox="0 0 1600 1150"
   sodipodi:docname="ops.pose.push.svg"
   width="1600"
   height="1150"
   inkscape:version="1.3.2 (091e20e, 2023-11-25, custom)"
   xmlns:inkscape="http://www.inkscape.org/namespaces/inkscape"
   xmlns:sodipodi="http://sodipodi.sourceforge.net/DTD/sodipodi-0.dtd"
   xmlns="http://www.w3.org/2000/svg"
   xmlns:svg="http://www.w3.org/2000/svg">
  <sodipodi:namedview
     id="namedview1"
     pagecolor="#474747"
     bordercolor="#000000"
     borderopacity="0.25"
     inkscape:showpageshadow="2"
     inkscape:pageopacity="0.0"
     inkscape:pagecheckerboard="0"
     inkscape:deskcolor="#d1d1d1"
     showgrid="true"
     inkscape:zoom="0.29035714"
     inkscape:cx="1227.7983"
     inkscape:cy="907.50308"
     inkscape:window-width="1920"
     inkscape:window-height="1009"
     inkscape:window-x="1912"
     inkscape:window-y="-8"
     inkscape:window-maximized="1"
     inkscape:current-layer="Calque_1">
    <inkscape:grid
       id="grid1"
       units="px"
       originx="0"
       originy="0"
       spacingx="50"
       spacingy="50"
       empcolor="#0099e5"
       empopacity="0.30196078"
       color="#0099e5"
       opacity="0.14902"
       empspacing="2"
       dotted="false"
       gridanglex="30"
       gridanglez="30"
       visible="true" />
  </sodipodi:namedview>
  <defs
     id="defs1">
    <style
       id="style1">
      .cls-1 {
        fill: #d9aff5;
      }

      .cls-1, .cls-2 {
        stroke-width: 0px;
      }

      .cls-2 {
        fill: #e5e5e5;
      }
    </style>
  </defs>
  <g
     id="g1"
     transform="matrix(1.1835653,0,0,1.1835653,-28.618702,-100.95147)">
    <g
       id="g2"
       style="fill:#d9aff5;fill-opacity:1">
      <path
         id="d9aff5"
         class="cls-1"
         d="M 700,454.28 557.87,312.15 700,170.02 842.13,312.15 Z M 809.19,710.37 700,552.14 590.81,710.37 h 81.78 v 82.67 h 49.19 v -82.67 z"
         style="fill:#d9aff5;fill-opacity:1" />
    </g>
    <g
       id="g3"
       style="fill:#ffffff">
      <path
         id="e5e5e5"
         class="cls-2"
         d="m 190,977.81 -81,-81 81,-81 81,81 z m 1101,-81 -81,-81 -81,81 81,81 z M 217.64,772.73 c 6.55,-26.29 13.67,-51.51 21.17,-74.94 2.78,-8.68 -2.01,-17.97 -10.68,-20.75 -8.68,-2.78 -17.97,2.01 -20.74,10.68 -7.72,24.13 -15.04,50.04 -21.76,77.03 -2.2,8.84 3.18,17.8 12.02,20 1.34,0.33 2.68,0.49 4,0.49 7.4,0 14.13,-5.01 16,-12.52 z M 265.49,625 c 10.3,-24.57 21.6,-47.91 33.58,-69.37 4.44,-7.96 1.6,-18.01 -6.36,-22.45 -7.96,-4.44 -18.01,-1.6 -22.45,6.36 -12.59,22.54 -24.43,47 -35.21,72.71 -3.52,8.4 0.44,18.07 8.84,21.6 2.08,0.87 4.24,1.29 6.37,1.29 6.45,0 12.58,-3.81 15.22,-10.13 z m 75.33,-133.63 c 15.41,-20.41 32.39,-39.7 50.47,-57.33 6.52,-6.36 6.66,-16.81 0.3,-23.33 -6.36,-6.52 -16.81,-6.66 -23.33,-0.3 -19.27,18.79 -37.36,39.33 -53.77,61.07 -5.49,7.27 -4.05,17.62 3.23,23.11 2.98,2.25 6.47,3.33 9.93,3.33 5,0 9.94,-2.26 13.18,-6.56 z M 449.87,384.9 c 19.97,-14.43 41.86,-28.18 65.07,-40.87 8,-4.37 10.94,-14.4 6.57,-22.39 -4.37,-8 -14.4,-10.94 -22.39,-6.57 -24.42,13.35 -47.49,27.84 -68.58,43.08 -7.39,5.34 -9.04,15.65 -3.71,23.04 3.23,4.46 8.27,6.83 13.39,6.83 3.35,0 6.73,-1.02 9.65,-3.13 z m 752.49,399.85 c 8.84,-2.2 14.23,-11.16 12.02,-20 -6.72,-27 -14.04,-52.92 -21.76,-77.03 -2.78,-8.68 -12.07,-13.46 -20.75,-10.68 -8.68,2.78 -13.46,12.07 -10.68,20.74 7.5,23.43 14.62,48.65 21.17,74.94 1.87,7.5 8.6,12.52 16,12.52 1.32,0 2.66,-0.16 4,-0.49 z m -46.25,-150.91 c 8.41,-3.52 12.36,-13.19 8.84,-21.6 -10.77,-25.71 -22.62,-50.17 -35.21,-72.71 -4.44,-7.96 -14.5,-10.8 -22.45,-6.36 -7.96,4.44 -10.8,14.5 -6.36,22.45 11.99,21.46 23.28,44.8 33.58,69.37 2.65,6.32 8.77,10.13 15.22,10.13 2.13,0 4.29,-0.41 6.37,-1.29 z M 1082.29,494.6 c 7.27,-5.49 8.72,-15.84 3.23,-23.11 -16.41,-21.73 -34.5,-42.28 -53.77,-61.07 -6.53,-6.36 -16.97,-6.23 -23.33,0.3 -6.36,6.52 -6.23,16.97 0.3,23.33 18.08,17.63 35.07,36.92 50.47,57.33 3.24,4.3 8.18,6.56 13.18,6.56 3.46,0 6.95,-1.09 9.93,-3.33 z M 973.16,381.19 c 5.34,-7.39 3.68,-17.7 -3.71,-23.04 -21.08,-15.24 -44.16,-29.74 -68.58,-43.08 -8,-4.37 -18.02,-1.43 -22.39,6.56 -4.37,8 -1.43,18.02 6.57,22.39 23.21,12.69 45.11,26.44 65.07,40.87 2.92,2.11 6.3,3.13 9.65,3.13 5.12,0 10.16,-2.37 13.39,-6.83 z"
         style="fill:#ffffff" />
    </g>
  </g>
</svg>
