<?xml version="1.0" encoding="UTF-8" standalone="no"?>
<svg
   height="1600"
   viewBox="0 0 1600 1600"
   width="1600"
   version="1.1"
   id="svg2"
   sodipodi:docname="ops.generic.select_lasso__lone-noel.svg"
   inkscape:version="1.3.2 (091e20e, 2023-11-25, custom)"
   xml:space="preserve"
   xmlns:inkscape="http://www.inkscape.org/namespaces/inkscape"
   xmlns:sodipodi="http://sodipodi.sourceforge.net/DTD/sodipodi-0.dtd"
   xmlns="http://www.w3.org/2000/svg"
   xmlns:svg="http://www.w3.org/2000/svg"><defs
     id="defs2" /><sodipodi:namedview
     pagecolor="#303030"
     showgrid="true"
     id="namedview1"
     bordercolor="#000000"
     borderopacity="0.25"
     inkscape:showpageshadow="2"
     inkscape:pageopacity="0.0"
     inkscape:pagecheckerboard="0"
     inkscape:deskcolor="#d1d1d1"
     inkscape:zoom="0.38027335"
     inkscape:cx="804.68431"
     inkscape:cy="713.9601"
     inkscape:window-width="1920"
     inkscape:window-height="1009"
     inkscape:window-x="1912"
     inkscape:window-y="-8"
     inkscape:window-maximized="1"
     inkscape:current-layer="svg2"
     showguides="true"><inkscape:grid
       id="grid5"
       units="px"
       spacingx="50"
       spacingy="50"
       color="#4772b3"
       opacity="0.2"
       visible="true"
       originx="0"
       originy="0"
       empspacing="2" /></sodipodi:namedview><g
     id="g3"
     transform="matrix(1.0026413,0,0,1.0036902,-2.2258675,1.5929349)"><g
       id="g2"
       style="opacity:1;fill:#ffffff"><path
         style="opacity:1;fill:#ffffff;stroke:none;stroke-width:0.732016"
         d="m 599.97827,496.63792 -0.0616,698.09468 c 183.00803,-184.1914 31.91336,-30.3708 200.04085,-200.01803 247.82448,0.52939 48.47542,0.0768 299.94228,0.0445 C 645.46208,538.80428 1056.2976,952.71238 599.9782,496.63785 Z"
         id="path5976"
         sodipodi:nodetypes="cccccc" /></g><g
       id="g1"><path
         style="fill:none;fill-opacity:1;fill-rule:evenodd;stroke:#ffad29;stroke-width:83.3315;stroke-linecap:round;stroke-dasharray:185.829;stroke-dashoffset:291.66;stroke-opacity:1"
         d="M 1143.3638,1605.1591 C 900.96766,1492.3775 591.17981,1445.1313 576.26322,1130.3752 563.10188,852.65662 839.29872,577.67917 1553.2928,598.04143 c 337.1082,9.61392 729.1137,23.33172 821.1454,324.76501 59.5731,195.12086 -15.7897,332.36516 -24.6576,578.94456 -14.5337,404.1216 123.5666,827.4636 -264.2361,910.5303 -412.8394,88.4295 -405.3298,-351.572 -578.09,-539.9138"
         id="path1"
         sodipodi:nodetypes="csssssc"
         transform="matrix(0.73373999,0,0,0.73029649,-289.97342,-307.00217)" /></g></g></svg>
