<?xml version="1.0" encoding="UTF-8" standalone="no"?>
<svg
   height="1600"
   viewBox="0 0 1600 1600"
   width="1600"
   version="1.1"
   id="svg2"
   sodipodi:docname="ops.generic.select_paint.svg"
   inkscape:version="1.3.2 (091e20e, 2023-11-25, custom)"
   xml:space="preserve"
   xmlns:inkscape="http://www.inkscape.org/namespaces/inkscape"
   xmlns:sodipodi="http://sodipodi.sourceforge.net/DTD/sodipodi-0.dtd"
   xmlns="http://www.w3.org/2000/svg"
   xmlns:svg="http://www.w3.org/2000/svg"><defs
     id="defs2" /><sodipodi:namedview
     pagecolor="#303030"
     showgrid="true"
     id="namedview1"
     bordercolor="#000000"
     borderopacity="0.25"
     inkscape:showpageshadow="2"
     inkscape:pageopacity="0.0"
     inkscape:pagecheckerboard="0"
     inkscape:deskcolor="#d1d1d1"
     inkscape:zoom="0.12703125"
     inkscape:cx="1330.3813"
     inkscape:cy="1460.2706"
     inkscape:window-width="1920"
     inkscape:window-height="1009"
     inkscape:window-x="1912"
     inkscape:window-y="-8"
     inkscape:window-maximized="1"
     inkscape:current-layer="svg2"
     showguides="true"><inkscape:grid
       id="grid5"
       units="px"
       spacingx="50"
       spacingy="50"
       color="#4772b3"
       opacity="0.2"
       visible="true"
       originx="0"
       originy="0"
       empspacing="2" /></sodipodi:namedview><g
     id="g5"
     transform="matrix(1.0835937,0,0,1.0684324,-106.46598,-83.060523)"><g
       id="g4"
       style="fill:#ffaf2b;fill-opacity:1"><path
         style="fill:#ffaf2b;fill-opacity:1;fill-rule:evenodd"
         d="m 1331.7543,1166.3657 c 22.1863,-9.1419 81.3406,-11.3109 102.9784,9.0454 21.6378,20.3563 3.0274,35.5703 -13.2202,36.8774 -16.2476,1.3071 -74.1533,17.2217 -91.8456,4.1748 -17.6923,-13.0469 -20.0989,-40.9557 2.0874,-50.0976 z"
         id="path3-2"
         sodipodi:nodetypes="zzzzz" /><path
         style="fill:#ffaf2b;fill-opacity:1;fill-rule:evenodd"
         d="m 1053.4195,1248.4667 c 4.117,-27.1761 138.4849,-68.1564 156.555,-68.8842 18.0701,-0.7278 33.0588,36.0825 24.353,51.4892 -8.7058,15.4067 -154.8237,70.4036 -168.3836,64.0136 -13.5599,-6.39 -16.6414,-19.4425 -12.5244,-46.6186 z"
         id="path3-1"
         sodipodi:nodetypes="zzzzz" /><path
         style="fill:#ffaf2b;fill-opacity:1;fill-rule:evenodd"
         d="m 796.60096,1373.7961 c 14.81956,-13.2756 149.02035,-80.6245 166.10937,-72.4985 17.08903,8.126 23.05021,26.3422 17.02487,43.6026 -6.02535,17.2604 -136.72153,90.0169 -160.8372,76.3936 -24.11567,-13.6233 -37.1166,-34.222 -22.29704,-47.4977 z"
         id="path3-5"
         sodipodi:nodetypes="zzzzz" /><path
         style="fill:#ffaf2b;fill-opacity:1;fill-rule:evenodd"
         d="m 525.40812,1412.793 c 10.88789,-2.6815 172.15681,-12.2439 182.2996,8.0017 10.14279,20.2456 9.87645,37.6625 -4.8706,49.7497 -14.74705,12.0872 -176.0235,14.9066 -185.43071,0.6958 -9.40722,-14.2107 -2.88619,-55.7657 8.00171,-58.4472 z"
         id="path3-0"
         sodipodi:nodetypes="zzzzz" /><path
         style="fill:#ffaf2b;fill-opacity:1;fill-rule:evenodd"
         d="m 319.02432,1280.62 c 21.81424,19.8773 103.89868,92.0537 108.8927,104.0221 4.99402,11.9684 -3.78283,61.3644 -29.9194,55.3161 -26.13657,-6.0483 -116.59521,-98.7009 -122.46081,-128.3751 -5.8656,-29.6742 21.67327,-50.8404 43.48751,-30.9631 z"
         id="path3"
         sodipodi:nodetypes="zzzzz" /></g><g
       id="g3"
       style="fill:#ffffff"><path
         style="fill:#ffffff;fill-rule:evenodd"
         d="m 683.88685,795.07996 c 0,0 54.84194,18.22777 90.5289,60.0246 35.68696,41.79682 44.28044,77.73678 44.28044,77.73678 0,0 280.98081,-203.01269 544.15741,-521.52522 105.735,-131.55065 114.1452,-184.00984 114.1452,-184.00984 0,0 14.0952,-25.1402 -4.9201,-45.26446 -19.0152,-20.12426 -49.2005,-5.90406 -49.2005,-5.90406 0,0 -67.0334,21.0065 -195.8179,118.08118 C 915.24994,532.00703 683.88685,795.07996 683.88685,795.07996 Z"
         id="path1"
         sodipodi:nodetypes="czccczccc" /><path
         style="fill:#ffffff;fill-rule:evenodd"
         d="m 190.64921,1134.1541 c 41.77889,-29.5106 82.15726,-50.9274 148.9012,-132.202 108.49195,-175.90345 299.0363,-193.99341 382.69003,-111.32805 78.08733,100.75616 49.14693,230.41745 -19.4824,282.49485 -63.06293,74.343 -229.70755,84.12 -293.62762,69.58 -61.13687,-13.1484 -123.88329,-49.8106 -218.48121,-108.5448 z"
         id="path2"
         sodipodi:nodetypes="cccccc" /></g></g></svg>
