<?xml version="1.0" encoding="UTF-8" standalone="no"?>
<svg
   height="1600"
   viewBox="0 0 1600 1600"
   width="1600"
   version="1.1"
   id="svg2"
   sodipodi:docname="ops.gpencil.primitive_circle.svg"
   inkscape:version="1.3.2 (091e20e, 2023-11-25, custom)"
   xml:space="preserve"
   xmlns:inkscape="http://www.inkscape.org/namespaces/inkscape"
   xmlns:sodipodi="http://sodipodi.sourceforge.net/DTD/sodipodi-0.dtd"
   xmlns="http://www.w3.org/2000/svg"
   xmlns:svg="http://www.w3.org/2000/svg"><defs
     id="defs2" /><sodipodi:namedview
     pagecolor="#303030"
     showgrid="true"
     id="namedview1"
     bordercolor="#000000"
     borderopacity="0.25"
     inkscape:showpageshadow="2"
     inkscape:pageopacity="0.0"
     inkscape:pagecheckerboard="0"
     inkscape:deskcolor="#d1d1d1"
     inkscape:zoom="0.2540625"
     inkscape:cx="1253.6285"
     inkscape:cy="1395.326"
     inkscape:window-width="1920"
     inkscape:window-height="1009"
     inkscape:window-x="1912"
     inkscape:window-y="-8"
     inkscape:window-maximized="1"
     inkscape:current-layer="svg2"><inkscape:grid
       id="grid5"
       units="px"
       spacingx="50"
       spacingy="50"
       color="#4772b3"
       opacity="0.2"
       visible="true"
       originx="0"
       originy="0"
       empspacing="2" /></sodipodi:namedview><g
     id="g2"
     style="fill:#75ffaf;fill-opacity:1"
     transform="translate(-3.9360393,-3.9040589)"><path
       style="color:#000000;fill:#75ffaf;fill-opacity:1;fill-rule:evenodd;-inkscape-stroke:none"
       d="m 943.83789,390.39844 c -36.28411,0.1799 -72.71631,3.91278 -108.7832,11.29687 -144.26757,29.53638 -270.96523,115.1027 -352.25,237.89649 -81.28477,122.79378 -110.56072,272.84854 -81.39453,417.1914 29.16619,144.3429 114.40732,271.2579 236.99218,352.8574 122.58487,81.5995 272.56522,111.2607 416.98246,82.4649 144.4172,-28.7958 271.5492,-113.7108 353.4629,-236.086 76.7838,-114.7113 107.9901,-253.6103 88.1855,-389.56638 l 0.9785,-0.20312 -6.1699,-29.74805 -5.8848,-29.91211 -0.9804,0.19336 C 1450.4398,673.80324 1367.7525,557.91864 1252.4531,482.01953 1160.2017,421.2924 1052.6902,389.85873 943.83789,390.39844 Z m 0.33984,66.56836 c 95.82267,-0.47886 190.44497,27.19149 271.66997,80.66015 98.9881,65.16179 170.5153,163.7973 202.2128,277.21289 l 14.1778,70.16602 c 14.8262,116.82594 -12.7906,235.49574 -78.7129,333.98044 -72.1229,107.7482 -184.0046,182.4761 -311.1602,207.8301 -127.15558,25.354 -259.13943,-0.7475 -367.07223,-72.5937 -107.9328,-71.8463 -182.94688,-183.5349 -208.62695,-310.625 -25.68008,-127.0902 0.0832,-259.14111 71.65234,-367.25786 71.56914,-108.11675 183.06403,-183.41781 310.08789,-209.42382 31.75596,-6.50151 63.83061,-9.7896 95.77148,-9.94922 z"
       id="path5"
       sodipodi:nodetypes="ssssssscccccssssccsssssss" /><path
       style="fill:#75ffaf;fill-opacity:1;fill-rule:evenodd;stroke:none"
       d="m 249.9385,250.0615 v -150 l 100,-0.0615 v 150 l 150,0.123 0.0615,99.8155 -150.0615,0.123 V 500 H 250 V 350.0615 L 99.938501,350 V 250 Z"
       id="path1"
       sodipodi:nodetypes="ccccccccccccc" /></g></svg>
