<?xml version="1.0" encoding="UTF-8" standalone="no"?>
<svg
   viewBox="0 0 1450 1600.0001"
   version="1.1"
   id="svg2"
   sodipodi:docname="ops.sequencer.retime.svg"
   width="1450"
   height="1600"
   inkscape:version="1.3.2 (091e20e, 2023-11-25, custom)"
   xmlns:inkscape="http://www.inkscape.org/namespaces/inkscape"
   xmlns:sodipodi="http://sodipodi.sourceforge.net/DTD/sodipodi-0.dtd"
   xmlns="http://www.w3.org/2000/svg"
   xmlns:svg="http://www.w3.org/2000/svg">
  <sodipodi:namedview
     id="namedview2"
     pagecolor="#3d3d3d"
     bordercolor="#000000"
     borderopacity="0.25"
     inkscape:showpageshadow="2"
     inkscape:pageopacity="0.0"
     inkscape:pagecheckerboard="0"
     inkscape:deskcolor="#d1d1d1"
     showgrid="true"
     inkscape:zoom="0.19451931"
     inkscape:cx="1120.7114"
     inkscape:cy="1478.0024"
     inkscape:window-width="1920"
     inkscape:window-height="1009"
     inkscape:window-x="1912"
     inkscape:window-y="-8"
     inkscape:window-maximized="1"
     inkscape:current-layer="svg2">
    <inkscape:grid
       id="grid2"
       units="px"
       originx="0"
       originy="0"
       spacingx="50.000001"
       spacingy="50.000001"
       empcolor="#0099e5"
       empopacity="0.30196078"
       color="#0099e5"
       opacity="0.14901961"
       empspacing="2"
       dotted="false"
       gridanglex="30"
       gridanglez="30"
       visible="true" />
  </sodipodi:namedview>
  <defs
     id="defs1">
    <style
       id="style1">.cls-1{fill:#e5e5e5;}</style>
  </defs>
  <g
     id="Ebene_2"
     data-name="Ebene 2"
     transform="matrix(1.3397818,0,0,1.3397818,100.40304,100.40304)">
    <g
       id="Ebene_1-2"
       data-name="Ebene 1"
       style="fill:#ffffff">
      <path
         class="cls-1"
         d="m 502.41718,118.00391 v -50.421 H 542.227 A 10.32507,10.32507 0 0 0 552.55213,57.25783 V 10.3252 A 10.32517,10.32517 0 0 0 542.227,0 H 385.52759 a 10.32522,10.32522 0 0 0 -10.32514,10.3252 v 46.93261 a 10.32512,10.32512 0 0 0 10.32514,10.32508 h 45.3313 v 50.34118 C 189.90106,135.86328 0,336.22119 0,580.74854 c 0,256.33465 208.682,464.13496 466.10431,464.13496 257.42231,0 466.10431,-207.80031 466.10431,-464.13496 0,-244.1662 -189.34033,-444.29407 -429.79144,-462.74463 z m -1.02149,829.73 v -63.66744 a 35.618,35.618 0 0 0 -35.618,-35.618 h -6e-5 a 35.16722,35.16722 0 0 0 -35.16724,35.16717 v 63.99787 C 255.46161,930.76666 116.01086,792.38019 98.3656,618.18408 h 62.1023 a 35.618,35.618 0 0 0 35.618,-35.618 v -8e-5 A 35.16718,35.16718 0 0 0 160.91872,547.39882 H 97.975 C 113.84371,371.20229 254.226,230.73043 430.85885,213.86007 v 70.05407 a 29.70552,29.70552 0 0 0 29.7055,29.70551 h 12.6994 a 29.1534,29.1534 0 0 0 29.15339,-29.15338 v -70.6062 c 176.63279,16.8704 317.01511,157.34226 332.88376,333.53879 h -64.14917 a 35.61794,35.61794 0 0 0 -35.61792,35.618 v 6e-5 a 35.16716,35.16716 0 0 0 35.16712,35.16717 h 64.20947 c -17.68787,174.617 -157.7704,313.2514 -333.51471,329.5498 z"
         id="path1"
         style="fill:#ffffff" />
      <path
         class="cls-1"
         d="m 514.56439,575.26385 c 0,0 75.681,-156.957 83.043,-173.44781 3.865,-10.12274 8.94476,-28.01227 -6.4267,-36.82355 C 580.27,357.681 570,361.87738 557.55829,377.37427 525.16565,423.31293 431.52148,557.22705 431.52148,557.22705 c 0,0 -22.08587,34.23316 11.9264,61.61963 34.01226,27.38654 123.01837,98.28223 123.01837,98.28223 0,0 18.51532,14.72393 33.97546,-4.74848 8.09815,-10.27 6.47852,-19.25152 -0.40491,-28.01227 -11.76074,-13.14111 -85.47241,-109.10431 -85.47241,-109.10431 z"
         id="path2"
         style="fill:#ffffff" />
    </g>
  </g>
</svg>
