<?xml version="1.0" encoding="UTF-8" standalone="no"?>
<svg
   height="1600"
   viewBox="0 0 1600 1600"
   width="1600"
   version="1.1"
   id="svg2"
   sodipodi:docname="ops.gpencil.primitive_polyline.svg"
   inkscape:version="1.3.2 (091e20e, 2023-11-25, custom)"
   xml:space="preserve"
   xmlns:inkscape="http://www.inkscape.org/namespaces/inkscape"
   xmlns:sodipodi="http://sodipodi.sourceforge.net/DTD/sodipodi-0.dtd"
   xmlns="http://www.w3.org/2000/svg"
   xmlns:svg="http://www.w3.org/2000/svg"><defs
     id="defs2" /><sodipodi:namedview
     pagecolor="#303030"
     showgrid="true"
     id="namedview1"
     bordercolor="#000000"
     borderopacity="0.25"
     inkscape:showpageshadow="2"
     inkscape:pageopacity="0.0"
     inkscape:pagecheckerboard="0"
     inkscape:deskcolor="#d1d1d1"
     inkscape:zoom="0.2540625"
     inkscape:cx="1009.5941"
     inkscape:cy="1080.4428"
     inkscape:window-width="1920"
     inkscape:window-height="1009"
     inkscape:window-x="1912"
     inkscape:window-y="-8"
     inkscape:window-maximized="1"
     inkscape:current-layer="svg2"><inkscape:grid
       id="grid5"
       units="px"
       spacingx="50"
       spacingy="50"
       color="#4772b3"
       opacity="0.2"
       visible="true"
       originx="0"
       originy="0"
       empspacing="2" /></sodipodi:namedview><g
     id="g2"
     style="fill:#75ffaf;fill-opacity:1"><path
       style="fill:#75ffaf;fill-rule:evenodd;stroke:none;fill-opacity:1"
       d="m 249.9385,250.0615 v -150 l 100,-0.0615 0,150.000004 150,0.123 0.0615,99.8155 -150.0615,0.123 0,149.9385 H 250 V 350.0615 L 99.938501,350 V 250 Z"
       id="path1"
       sodipodi:nodetypes="ccccccccccccc" /><path
       style="fill:#75ffaf;fill-opacity:1;fill-rule:evenodd;stroke:none;stroke-width:1.38302"
       d="M 114.11406,1429.381 C 272.06536,1193.2142 465.01869,925.46735 633.3957,696.55297 825.55884,1002.2293 904.46802,1138.0264 990.58601,1278.7124 1139.1371,1060.0581 1279.3918,871.49344 1446.3497,635.65286 c 26.4095,-31.32766 74.4281,23.9688 47.1787,63.28786 C 1264.0317,1028.9735 1188.379,1130.6355 991.19534,1408.337 884.85516,1243.9181 739.8087,994.4462 632.22681,823.90718 498.32522,1011.6931 289.85982,1298.0828 155.35163,1496.5203 c -22.89617,30.788 -69.677965,-31.6142 -41.23757,-67.1393 z"
       id="path2"
       sodipodi:nodetypes="ccccccccc" /></g></svg>
