<?xml version="1.0" encoding="UTF-8" standalone="no"?>
<svg
   height="1540"
   viewBox="0 0 1600 1540"
   width="1600"
   version="1.1"
   id="svg2"
   sodipodi:docname="ops.sculpt.cloth_filter.svg"
   inkscape:version="1.3.2 (091e20e, 2023-11-25, custom)"
   xml:space="preserve"
   xmlns:inkscape="http://www.inkscape.org/namespaces/inkscape"
   xmlns:sodipodi="http://sodipodi.sourceforge.net/DTD/sodipodi-0.dtd"
   xmlns="http://www.w3.org/2000/svg"
   xmlns:svg="http://www.w3.org/2000/svg"><defs
     id="defs2"><inkscape:path-effect
       effect="skeletal"
       id="path-effect6"
       is_visible="true"
       lpeversion="1"
       pattern="m 37.5,28.125 c -71.859915,0 -109.493339,55.99218 -125,87.5 h 500.75634 c 55.31372,0 93.41008,-52.7939 99.62087,-87.5 z"
       copytype="single_stretched"
       prop_scale="0.5"
       scale_y_rel="false"
       spacing="0"
       normal_offset="0"
       tang_offset="0"
       prop_units="false"
       vertical_pattern="false"
       hide_knot="false"
       fuse_tolerance="0" /></defs><sodipodi:namedview
     pagecolor="#303030"
     showgrid="true"
     id="namedview1"
     bordercolor="#000000"
     borderopacity="0.25"
     inkscape:showpageshadow="2"
     inkscape:pageopacity="0.0"
     inkscape:pagecheckerboard="0"
     inkscape:deskcolor="#d1d1d1"
     inkscape:zoom="0.1767767"
     inkscape:cx="1284.1059"
     inkscape:cy="1360.4734"
     inkscape:window-width="1920"
     inkscape:window-height="1009"
     inkscape:window-x="1912"
     inkscape:window-y="-8"
     inkscape:window-maximized="1"
     inkscape:current-layer="layer2"
     showguides="true"><inkscape:grid
       id="grid5"
       units="px"
       spacingx="50"
       spacingy="50"
       color="#4772b3"
       opacity="0.2"
       visible="true"
       originx="0"
       originy="0"
       empspacing="2" /></sodipodi:namedview><g
     inkscape:groupmode="layer"
     id="layer1"
     inkscape:label="Layer 1" /><g
     inkscape:groupmode="layer"
     id="layer2"
     inkscape:label="icon"><g
       id="rect1" /><g
       id="g1"
       transform="matrix(1.1098554,0,0,1.1098554,-15.362358,-118.34098)"><path
         id="circle11"
         style="baseline-shift:baseline;display:inline;overflow:visible;vector-effect:none;fill:#cca1ff;stroke-miterlimit:1000;enable-background:accumulate;stop-color:#000000;stop-opacity:1"
         d="m 653.94336,303.71094 c -57.82443,0 -114.60864,9.37112 -168.62109,26.82226 V 1021.5 h 72.34765 c 0.66219,-10.7451 1.69294,-21.4456 3.56641,-31.9707 6.21288,-35.37489 18.72077,-69.67342 37.14844,-100.70703 15.64926,-26.13428 25.57548,-56.01035 30.89062,-86.86915 5.24886,-30.36802 6.35346,-62.39 8.25977,-95.37304 3.83738,-66.83204 -3.53806,-134.47142 -17.5293,-200.87891 8.79772,12.84303 21.95238,35.12249 33.65234,67.47461 11.49926,31.7971 23.28014,78.20708 24.03907,135.67188 0.93563,58.05363 0.30234,131.2462 -41.70704,202.33203 -15.64224,26.27369 -26.32407,55.64973 -31.66796,85.93554 -4.73664,27.27007 -5.40434,55.10747 -0.53711,81.63677 0.37292,2.8024 3.05373,8.2968 10.625,11.1445 0.97494,0.2719 1.77214,0.458 2.57617,0.6445 1.95952,0.3064 2.61866,-0.1249 10.96484,-12.3594 8.34617,-12.2346 25.27755,-35.5318 45.27344,-57.1035 16.79888,-18.2122 36.50947,-34.89188 59.625,-47.38474 23.18566,-12.24092 48.23457,-19.25186 73.17969,-22.24609 31.62179,-3.8077 62.79371,-2.59511 92.8164,0.20312 8.6086,0.6627 16.39895,0.99415 23.01758,-0.25 13.92682,-3.60086 10.99333,-6.31286 7.26758,-21.40234 -21.18517,-67.38132 -41.64744,-134.65411 -64.46875,-200.78907 -23.41637,-67.82965 -49.30243,-134.57907 -80.2168,-198.67382 10.24415,2.87637 29.6095,20.04637 51.98828,51.20117 37.16077,51.73366 63.70976,115.07311 80.13672,164.32812 18.97678,56.90046 35.42906,114.37839 54.29883,170.8125 16.43882,49.16384 15.57752,82.6065 35.97456,79.56671 59.9163,-8.92938 242.5868,0.9582 300.0606,10.55434 57.2273,16.1407 68.9119,-21.32624 50.1309,-48.23042 C 1327.0088,917.17478 1273.611,854.52199 1231.9551,760.0293 1190.2992,665.53661 1096.4679,518.32716 1043.0059,464.86523 939.82,361.67944 799.8701,303.71095 653.94336,303.71094 Z"
         sodipodi:nodetypes="sccccccccsccccccsccccccccssssccsss" /><path
         id="rect4"
         style="fill:#f9f9f9;stroke-miterlimit:1000"
         d="m 385.32227,196.93555 v 924.83595 h 179.4375 l -6.42383,-50 H 435.32227 V 246.93555 H 1254.998 v 446.16406 c 13.2069,38.3481 31.5836,70.23402 50,102.07031 V 196.93555 Z"
         sodipodi:nodetypes="ccccccccccc" /><path
         style="baseline-shift:baseline;display:inline;overflow:visible;vector-effect:none;fill:#896cb0;fill-opacity:1;stroke-miterlimit:1000;enable-background:accumulate;stop-color:#000000;stop-opacity:1"
         d="m 1004.1797,1033.8477 c -11.28865,2.8164 -10.12182,46.4208 -10.20509,70.1113 -0.0314,8.9338 17.34929,12.4184 33.26949,16.4101 31.8405,7.9835 81.1387,7.1347 135.4317,-2.207 37.9107,-6.5229 92.8232,-17.868 136.6797,-30.4238 21.9282,-6.2779 58.742,-34.896 49.248,-40.793 -9.494,-5.897 -48.9453,-10.0488 -48.9453,-10.0488 -46.955,-7.8402 -234.8393,-18.1778 -295.4785,-3.0488 z"
         id="path12"
         sodipodi:nodetypes="ssssszcs" /><path
         style="baseline-shift:baseline;display:inline;overflow:visible;vector-effect:none;fill:#896cb0;fill-opacity:1;stroke-miterlimit:1000;enable-background:accumulate;stop-color:#000000;stop-opacity:1"
         d="m 908.97266,991.32812 c -13.94718,-0.20283 -84.16863,1.83307 -97.57813,3.53907 -46.982,6.00311 -75.91277,23.87421 -106.14453,56.01761 -13.47654,14.4116 -25.74869,30.4041 -37.63828,47.1537 -10.1154,13.5666 -16.79659,22.4966 -13.20156,40.4791 1.32541,5.6868 3.0889,7.3203 5.55273,8.8379 4.92767,3.0351 18.2963,3.0076 29.35352,-4.418 54.80095,-36.8021 120.20469,-58.7956 191.53711,-68.7129 14.50548,-2.0167 40.07391,-7.7144 42.51562,-10.8242 6.48896,-29.5124 19.59575,-69.06882 -14.39648,-72.07228 z"
         id="path11"
         sodipodi:nodetypes="sccsssssss" /><path
         style="display:inline;opacity:1;fill:#9b9b9b;fill-opacity:1;stroke:none;stroke-width:53.2051;stroke-miterlimit:1000"
         d="m 335.32227,406.88867 a 550.21747,550.21747 0 0 0 -231.59571,447.03906 550.21747,550.21747 0 0 0 550.2168,550.21677 550.21747,550.21747 0 0 0 447.62114,-232.373 H 335.32227 Z"
         id="path13" /></g></g></svg>
