<?xml version="1.0" encoding="UTF-8" standalone="no"?>
<svg
   height="1560"
   viewBox="0 0 1600 1560"
   width="1600"
   version="1.1"
   id="svg2"
   sodipodi:docname="ops.sculpt.polyline_trim.svg"
   inkscape:version="1.3.2 (091e20e, 2023-11-25, custom)"
   xml:space="preserve"
   xmlns:inkscape="http://www.inkscape.org/namespaces/inkscape"
   xmlns:sodipodi="http://sodipodi.sourceforge.net/DTD/sodipodi-0.dtd"
   xmlns="http://www.w3.org/2000/svg"
   xmlns:svg="http://www.w3.org/2000/svg"><defs
     id="defs2" /><sodipodi:namedview
     pagecolor="#303030"
     showgrid="true"
     id="namedview1"
     bordercolor="#000000"
     borderopacity="0.25"
     inkscape:showpageshadow="2"
     inkscape:pageopacity="0.0"
     inkscape:pagecheckerboard="0"
     inkscape:deskcolor="#d1d1d1"
     inkscape:zoom="0.90509668"
     inkscape:cx="1226.3883"
     inkscape:cy="1193.7951"
     inkscape:window-width="1920"
     inkscape:window-height="1009"
     inkscape:window-x="1912"
     inkscape:window-y="-8"
     inkscape:window-maximized="1"
     inkscape:current-layer="layer2"
     showguides="true"><inkscape:grid
       id="grid5"
       units="px"
       spacingx="50"
       spacingy="50"
       color="#4772b3"
       opacity="0.2"
       visible="true"
       originx="0"
       originy="0"
       empspacing="2" /></sodipodi:namedview><g
     inkscape:groupmode="layer"
     id="layer1"
     inkscape:label="Layer 1" /><g
     inkscape:groupmode="layer"
     id="layer2"
     inkscape:label="icon"><g
       id="g4"
       transform="matrix(1.0737499,0,0,1.0737499,58.587331,-65.731264)"><path
         style="opacity:1;fill:#9b9b9b;fill-opacity:1;stroke:none;stroke-width:53.2051;stroke-miterlimit:1000"
         d="m 136.77734,670.05859 a 550.21747,550.21747 0 0 0 -33.05078,183.86914 550.21747,550.21747 0 0 0 550.2168,550.21677 550.21747,550.21747 0 0 0 506.57614,-337.9531 l -367.69528,201.1094 c -10.71533,47.1991 -53.24378,82.8094 -103.36133,82.8574 h -0.0332 c -58.17833,0 -106.09181,-47.9135 -106.0918,-106.0918 v -0.2226 c 0.038,-5.9686 0.6566,-11.8978 1.68945,-17.75 z"
         id="path4" /><path
         id="path7"
         style="fill:#f56b5b;fill-opacity:1;stroke-linejoin:bevel;stroke-miterlimit:1000"
         d="m 501.60352,154.29883 c -39.26292,-1e-5 -71.0918,31.82887 -71.0918,71.09179 0.004,3.3257 0.24177,6.64701 0.71094,9.93946 L 138.2168,460.46289 c -8.77182,-3.72084 -18.20212,-5.64037 -27.73047,-5.64453 -39.262921,-10e-6 -71.091809,31.82888 -71.091799,71.0918 -4e-6,39.26292 31.828882,71.0918 71.091799,71.09179 3.86273,-0.0295 7.71664,-0.37369 11.52344,-1.02929 l 501.45507,622.03514 c -3.33069,8.287 -5.07002,17.1275 -5.12695,26.0586 -10e-6,39.2629 31.82888,71.0918 71.0918,71.0918 38.82653,-0.037 70.44176,-31.2187 71.01562,-70.041 l 432.94139,-236.793 c 11.2324,6.9897 24.1923,10.7066 37.4219,10.7324 39.2629,0 71.0918,-31.82885 71.0918,-71.09176 -0.01,-24.24119 -12.3686,-46.80721 -32.791,-59.86718 l 11.6269,-214.125 c -21.9905,8.76088 -45.9496,13.12951 -70.7695,12.26367 l -10.7598,198.18945 c -23.7802,11.83086 -38.9821,35.93119 -39.416,62.48828 L 726.90625,1183.6758 c -11.2514,-6.9886 -24.23141,-10.6949 -37.47656,-10.7012 -3.86338,0.029 -7.71794,0.3736 -11.52539,1.0293 L 176.44922,551.96875 c 3.33136,-8.2869 5.07135,-17.12733 5.1289,-26.05859 -0.003,-3.32631 -0.24037,-6.64827 -0.70898,-9.94141 l 293.0957,-225.20313 c 8.73824,3.73361 18.13631,5.67751 27.63868,5.7168 1.37105,-0.0587 2.74011,-0.15701 4.10546,-0.29492 L 634.87695,495.91016 704.03516,473.94531 564.49219,258.18164 c 5.33088,-10.11188 8.14479,-21.36014 8.20312,-32.79102 0,-39.26291 -31.82888,-71.09179 -71.09179,-71.09179 z"
         sodipodi:nodetypes="sccccscccccccccccccccccccccccccccs" /><path
         style="fill:#f9f9f9;stroke-miterlimit:1000"
         d="m 1002.3094,165.95018 c -8.38069,-0.6938 -16.95399,-0.5584 -25.62949,0.4809 -69.4021,8.3145 -118.9232,71.3165 -110.6092,140.7186 5.9517,49.4728 40.3778,90.8501 87.9426,105.6981 18.4474,5.4424 33.7508,11.2542 47.92739,18.9458 l -356.98069,113.375 c -42.3929,13.464 -98.1927,64.9744 -116.2614,110.6947 l 467.3159,-143.9653 -131.1073,471.4414 c 45.204,-19.324 95.1568,-76.523 107.4453,-119.2717 L 1076.052,503.33458 c 8.1736,14.0503 14.4653,29.2801 20.4615,47.7152 16.1552,47.138 58.466,80.4097 108.0848,84.9935 69.6047,6.3963 131.2162,-44.8446 137.6126,-114.4499 6.3964,-69.6053 -44.8446,-131.2167 -114.4493,-137.613 -18.0918,-1.6626 -36.3288,0.5937 -53.4722,6.6091 -14.1329,5.2307 -54.8337,27.2833 -92.0404,32.6108 4.3972,-37.2391 25.1942,-78.3026 30.017,-92.5262 5.5396,-17.3025 7.2919,-35.5953 5.1326,-53.6343 -7.2755,-60.7269 -56.4225,-106.2322 -115.0892,-111.0896 z"
         id="path2" /></g></g></svg>
