<?xml version="1.0" encoding="UTF-8" standalone="no"?>
<svg
   height="1600"
   viewBox="0 0 1600 1600"
   width="1600"
   version="1.1"
   id="svg2"
   sodipodi:docname="ops.transform.bone_size.svg"
   inkscape:version="1.3.2 (091e20e, 2023-11-25, custom)"
   xml:space="preserve"
   xmlns:inkscape="http://www.inkscape.org/namespaces/inkscape"
   xmlns:sodipodi="http://sodipodi.sourceforge.net/DTD/sodipodi-0.dtd"
   xmlns="http://www.w3.org/2000/svg"
   xmlns:svg="http://www.w3.org/2000/svg"><defs
     id="defs2" /><sodipodi:namedview
     pagecolor="#303030"
     showgrid="true"
     id="namedview1"
     bordercolor="#000000"
     borderopacity="0.25"
     inkscape:showpageshadow="2"
     inkscape:pageopacity="0.0"
     inkscape:pagecheckerboard="0"
     inkscape:deskcolor="#d1d1d1"
     inkscape:zoom="0.35929863"
     inkscape:cx="652.66043"
     inkscape:cy="972.72844"
     inkscape:window-width="1920"
     inkscape:window-height="1009"
     inkscape:window-x="1912"
     inkscape:window-y="-8"
     inkscape:window-maximized="1"
     inkscape:current-layer="svg2"><inkscape:grid
       id="grid5"
       units="px"
       spacingx="50"
       spacingy="50"
       color="#4772b3"
       opacity="0.2"
       visible="true"
       originx="0"
       originy="0"
       empspacing="2" /></sodipodi:namedview><g
     id="g3"
     transform="matrix(1.3076707,0,0,1.3076707,-248.15502,-248.8713)"><g
       id="g2"
       inkscape:label="purple"
       style="fill:#d9aff5;fill-opacity:1"
       transform="matrix(1.1428571,0,0,1.1428571,-114.28571,-114.28571)"><path
         d="m 1049.9308,574.08652 45.0302,23.806 -212.72191,584.51928 h -440.6345 z"
         stroke-width="1.55328"
         id="path5"
         style="fill:#d9aff5;fill-opacity:1" /><path
         d="m 1025.9122,550.06822 -23.8061,-45.0303 -584.52031,212.7213 v 440.63368 z"
         stroke-width="1.55328"
         id="path6"
         style="fill:#d9aff5;fill-opacity:1" /><path
         d="m 534.63289,534.63182 -72.9623,-107.8819 61.4499,-61.44913 -190.1234,-32.30369 32.3037,190.12232 61.4499,-61.4491 z"
         stroke-width="1.55328"
         id="path1"
         style="fill:#d9aff5;fill-opacity:1" /><path
         d="m 1065.3675,1065.3656 107.8825,72.9615 61.449,-61.4491 32.3039,190.1223 -190.1236,-32.3037 61.4499,-61.4491 z"
         stroke-width="1.55328"
         id="path2"
         style="fill:#d9aff5;fill-opacity:1" /></g><g
       id="g1"
       inkscape:label="gray"
       style="fill:#e5e5e5;fill-opacity:1"
       transform="matrix(1.1428571,0,0,1.1428571,-114.28571,-114.28571)"><path
         d="m 533.04209,1209.3852 h -142.4298 v -142.4294 c -27.6413,14.6318 -49.0792,45.9428 -52.7237,77.0039 -4.986,30.8747 7.0758,66.8545 29.6646,88.4846 21.6308,22.588 57.6094,34.6499 88.4841,29.6645 31.0618,-3.6445 62.3728,-25.0823 77.0048,-52.7236 z"
         stroke-width="1.55328"
         id="path3"
         style="fill:#e5e5e5;fill-opacity:1" /><path
         d="m 1205.3816,394.61775 c -16.8099,-17.72812 -45.4229,-30.66635 -74.0354,-30.66635 -28.6124,0 -57.2244,12.93823 -74.0349,30.66635 -17.7283,16.80967 -30.6661,45.42247 -30.6661,74.03517 0,28.6122 12.9378,57.2242 30.6661,74.0346 16.8105,17.7282 45.4225,30.6663 74.0349,30.6663 28.6125,0 57.2255,-12.9381 74.0354,-30.6663 17.7279,-16.8104 30.6662,-45.4224 30.6662,-74.0346 0,-28.6127 -12.9383,-57.2255 -30.6662,-74.03517 z"
         stroke-width="1.55328"
         id="path4"
         style="fill:#e5e5e5;fill-opacity:1" /></g></g></svg>
