<?xml version="1.0" encoding="UTF-8" standalone="no"?>
<svg
   height="1560"
   viewBox="0 0 1600 1560"
   width="1600"
   version="1.1"
   id="svg2"
   sodipodi:docname="ops.sculpt.polyline_hide.svg"
   inkscape:version="1.3.2 (091e20e, 2023-11-25, custom)"
   xml:space="preserve"
   xmlns:inkscape="http://www.inkscape.org/namespaces/inkscape"
   xmlns:sodipodi="http://sodipodi.sourceforge.net/DTD/sodipodi-0.dtd"
   xmlns="http://www.w3.org/2000/svg"
   xmlns:svg="http://www.w3.org/2000/svg"><defs
     id="defs2" /><sodipodi:namedview
     pagecolor="#303030"
     showgrid="true"
     id="namedview1"
     bordercolor="#000000"
     borderopacity="0.25"
     inkscape:showpageshadow="2"
     inkscape:pageopacity="0.0"
     inkscape:pagecheckerboard="0"
     inkscape:deskcolor="#d1d1d1"
     inkscape:zoom="0.22627418"
     inkscape:cx="1153.4679"
     inkscape:cy="1292.6795"
     inkscape:window-width="1920"
     inkscape:window-height="1009"
     inkscape:window-x="1912"
     inkscape:window-y="-8"
     inkscape:window-maximized="1"
     inkscape:current-layer="layer2"
     showguides="true"><inkscape:grid
       id="grid5"
       units="px"
       spacingx="50"
       spacingy="50"
       color="#4772b3"
       opacity="0.2"
       visible="true"
       originx="0"
       originy="0"
       empspacing="2" /></sodipodi:namedview><g
     inkscape:groupmode="layer"
     id="layer2"
     inkscape:label="icon"><g
       id="g3"
       transform="matrix(1.0922366,0,0,1.0922366,56.534866,-68.583758)"><path
         style="opacity:1;fill:#9b9b9b;fill-opacity:1;stroke:none;stroke-width:53.2051;stroke-miterlimit:1000"
         d="m 136.77734,670.05859 a 550.21747,550.21747 0 0 0 -33.05078,183.86914 550.21747,550.21747 0 0 0 550.2168,550.21677 550.21747,550.21747 0 0 0 506.57614,-337.9531 l -367.69528,201.1094 c -10.71533,47.1991 -53.24378,82.8094 -103.36133,82.8574 h -0.0332 c -58.17833,0 -106.09181,-47.9135 -106.0918,-106.0918 v -0.2226 c 0.038,-5.9686 0.6566,-11.8978 1.68945,-17.75 z"
         id="path3" /><path
         style="fill:#f9f9f9;stroke-linejoin:bevel;stroke-miterlimit:1000"
         d="m 501.60352,154.29883 a 71.091782,71.091782 0 0 0 -71.0918,71.09179 71.091782,71.091782 0 0 0 0.71094,9.93946 L 138.2168,460.46289 a 71.091782,71.091782 0 0 0 -27.73047,-5.64453 71.091782,71.091782 0 0 0 -71.091799,71.0918 71.091782,71.091782 0 0 0 71.091799,71.09179 71.091782,71.091782 0 0 0 11.52344,-1.02929 l 501.45507,622.03514 a 71.091782,71.091782 0 0 0 -5.12695,26.0586 71.091782,71.091782 0 0 0 71.0918,71.0918 71.091782,71.091782 0 0 0 71.01562,-70.041 l 432.94139,-236.793 a 71.091782,71.091782 0 0 0 37.4219,10.7324 71.091782,71.091782 0 0 0 71.0918,-71.09176 71.091782,71.091782 0 0 0 -32.791,-59.86718 l 20.5937,-379.24024 A 71.091782,71.091782 0 0 0 1321.0918,450 71.091782,71.091782 0 0 0 1250,378.9082 71.091782,71.091782 0 0 0 1178.9102,449.9668 L 811.39062,578.51562 a 71.091782,71.091782 0 0 0 -46.83203,-17.63085 71.091782,71.091782 0 0 0 -4.10547,0.29492 L 564.49219,258.18164 a 71.091782,71.091782 0 0 0 8.20312,-32.79102 71.091782,71.091782 0 0 0 -71.09179,-71.09179 z m -27.63868,136.46679 a 71.091782,71.091782 0 0 0 27.63868,5.7168 71.091782,71.091782 0 0 0 4.10546,-0.29492 l 195.96094,303 a 71.091782,71.091782 0 0 0 -8.20312,32.78906 71.091782,71.091782 0 0 0 71.09179,71.0918 71.091782,71.091782 0 0 0 69.81641,-58.43164 l 380.4238,-133.06445 a 71.091782,71.091782 0 0 0 4.5176,2.46875 l -20.1094,370.38476 a 71.091782,71.091782 0 0 0 -39.416,62.48828 L 726.90625,1183.6758 a 71.091782,71.091782 0 0 0 -37.47656,-10.7012 71.091782,71.091782 0 0 0 -11.52539,1.0293 L 176.44922,551.96875 a 71.091782,71.091782 0 0 0 5.1289,-26.05859 71.091782,71.091782 0 0 0 -0.70898,-9.94141 z"
         id="path7" /></g></g></svg>
